<svg width="72" height="72" viewBox="0 0 72 72" fill="none" xmlns="http://www.w3.org/2000/svg">
<path d="M60.7766 17.2807C60.6046 15.9342 60.0297 14.671 59.1271 13.6569C58.2246 12.6428 57.0367 11.9252 55.7191 11.5982C55.1965 11.484 54.663 11.4268 54.128 11.4277H10.9124C9.13894 11.4277 7.4377 12.1303 6.18101 13.3816C4.92432 14.633 4.21455 16.3313 4.20703 18.1047V51.66C4.21455 53.4335 4.92432 55.1317 6.18101 56.3831C7.4377 57.6344 9.13894 58.337 10.9124 58.337H54.128C55.8992 58.3296 57.5961 57.6246 58.8512 56.3748C60.1063 55.1251 60.8185 53.4311 60.8334 51.66V18.1047C60.8334 17.849 60.805 17.5649 60.7766 17.2807ZM59.4128 51.66C59.4052 53.0567 58.8451 54.3936 57.8549 55.3785C56.8646 56.3635 55.5247 56.9164 54.128 56.9163H10.9124C10.2197 56.9201 9.53318 56.7869 8.89217 56.5244C8.25116 56.2619 7.66835 55.8754 7.17724 55.3869C6.68613 54.8984 6.29641 54.3177 6.03048 53.6781C5.76455 53.0385 5.62765 52.3527 5.62766 51.66V18.1047C5.62765 17.412 5.76455 16.7262 6.03048 16.0866C6.29641 15.447 6.68613 14.8663 7.17724 14.3778C7.66835 13.8894 8.25116 13.5028 8.89217 13.2403C9.53318 12.9778 10.2197 12.8446 10.9124 12.8484H54.128C54.5579 12.852 54.9863 12.8996 55.4066 12.9904C56.546 13.2796 57.5574 13.9385 58.2824 14.8639C59.0073 15.7894 59.4049 16.9292 59.4128 18.1047V51.66Z" fill="#4040B7"/>
<path d="M55.4078 12.9917C54.9876 12.9009 54.5592 12.8533 54.1292 12.8497H10.9137C10.221 12.8459 9.53443 12.9791 8.89341 13.2416C8.2524 13.5041 7.66959 13.8907 7.17848 14.3791C6.68737 14.8676 6.29765 15.4483 6.03172 16.0879C5.76579 16.7275 5.6289 17.4134 5.62891 18.106V51.6613C5.6289 52.354 5.76579 53.0398 6.03172 53.6794C6.29765 54.319 6.68737 54.8997 7.17848 55.3882C7.66959 55.8767 8.2524 56.2632 8.89341 56.5257C9.53443 56.7882 10.221 56.9214 10.9137 56.9177H54.1292C55.5259 56.9177 56.8658 56.3648 57.8561 55.3798C58.8464 54.3949 59.4065 53.058 59.414 51.6613V18.106C59.4061 16.9305 59.0086 15.7907 58.2836 14.8653C57.5587 13.9398 56.5473 13.2809 55.4078 12.9917ZM55.493 49.2463C55.493 50.2635 55.0889 51.2392 54.3696 51.9585C53.6503 52.6778 52.6746 53.082 51.6573 53.082H13.073C12.5682 53.0857 12.0678 52.9891 11.6007 52.7977C11.1336 52.6063 10.7093 52.3239 10.3523 51.9669C9.9954 51.61 9.71301 51.1856 9.52158 50.7186C9.33016 50.2515 9.23353 49.751 9.23731 49.2463V20.5211C9.23353 20.0163 9.33016 19.5158 9.52158 19.0488C9.71301 18.5817 9.9954 18.1573 10.3523 17.8004C10.7093 17.4435 11.1336 17.1611 11.6007 16.9697C12.0678 16.7782 12.5682 16.6816 13.073 16.6854H51.6573C52.6746 16.6854 53.6503 17.0895 54.3696 17.8088C55.0889 18.5282 55.493 19.5038 55.493 20.5211V49.2463Z" fill="#6678FF"/>
<path d="M15.4297 46.7737V46.8305L11.1962 51.5754C10.8458 51.2976 10.5637 50.9431 10.3716 50.5392C10.1795 50.1353 10.0825 49.6928 10.0881 49.2456V20.5204C10.0881 19.7292 10.4024 18.9704 10.9619 18.4109C11.5214 17.8514 12.2802 17.5371 13.0714 17.5371H15.2592V46.7737H15.4297Z" fill="#6678FF"/>
<path d="M54.6396 20.5204V49.2456C54.6396 50.0368 54.3252 50.7956 53.7658 51.3551C53.2063 51.9146 52.4475 52.2289 51.6562 52.2289H13.0719C12.5866 52.2336 12.1079 52.1164 11.6797 51.888L15.9132 47.1146H47.3659L52.3666 52.1153L52.7643 51.7175L47.6785 46.66V17.5371H51.6562C52.4475 17.5371 53.2063 17.8514 53.7658 18.4109C54.3252 18.9704 54.6396 19.7292 54.6396 20.5204Z" fill="#4747CC"/>
<path d="M25.2895 46.5464H15.8281V17.5371H47.1104V46.5464H25.2895Z" fill="#4747CC"/>
<path d="M52.7642 51.7169L52.3664 52.1147L47.3658 47.1141L47.1953 46.972L47.5931 46.5742L47.6783 46.6595L52.7642 51.7169Z" fill="#312893"/>
<path d="M16.0846 46.9436L15.9141 47.1141L11.6806 51.8874L11.5102 52.1147L11.084 51.7453L11.1976 51.5748L15.4311 46.8299L15.4879 46.7731L15.6584 46.5742L15.8289 46.7447L16.0846 46.9436Z" fill="#312893"/>
<path d="M15.828 17.2812H15.2598V46.7622H15.828V17.2812Z" fill="#312893"/>
<path d="M47.6796 16.9121H47.1113V46.7624H47.6796V16.9121Z" fill="#312893"/>
<path d="M71.9714 26.032C71.9629 25.1972 71.742 24.3783 71.3294 23.6525C70.9168 22.9267 70.3261 22.318 69.6131 21.8837L62.6236 17.4798C62.3508 17.3094 62.0429 17.2029 61.723 17.1685C61.4032 17.1341 61.0797 17.1725 60.7768 17.2809L60.4643 17.4229C60.1573 17.5901 59.9006 17.8363 59.7207 18.136C59.5409 18.4358 59.4444 18.7782 59.4414 19.1277L59.4982 52.9955C59.4892 53.4543 59.6513 53.8999 59.9528 54.2457L60.1801 54.5014L66.1752 61.4625C66.4857 61.8206 66.8698 62.1075 67.3013 62.3036C67.7328 62.4997 68.2015 62.6005 68.6755 62.599C69.1004 62.6024 69.5228 62.5352 69.9257 62.4001C70.5347 62.1915 71.0626 61.7967 71.4349 61.2715C71.8071 60.7463 72.0047 60.1173 71.9998 59.4736L71.9714 26.032ZM69.4142 61.0647C69.0378 61.2066 68.6271 61.2309 68.2365 61.1345C67.8459 61.0381 67.4937 60.8256 67.2265 60.5249L61.0325 53.3365C60.9568 53.2392 60.9167 53.1188 60.9189 52.9955L60.862 19.0993C60.8704 19.0103 60.9007 18.9247 60.9503 18.8503C60.9999 18.776 61.0672 18.715 61.1462 18.6731C61.2517 18.6187 61.3684 18.5895 61.4871 18.5879C61.615 18.5891 61.741 18.6182 61.8565 18.6731L68.846 23.077C69.3553 23.3869 69.7784 23.82 70.0764 24.3364C70.3743 24.8528 70.5374 25.4359 70.5507 26.032V59.4736C70.5516 59.8244 70.4424 60.1666 70.2385 60.452C70.0346 60.7375 69.7463 60.9518 69.4142 61.0647Z" fill="#4040B7"/>
<path d="M70.55 26.032C70.5367 25.436 70.3736 24.8529 70.0757 24.3365C69.7777 23.82 69.3546 23.387 68.8453 23.0771L61.8558 18.6731C61.7403 18.6182 61.6143 18.5892 61.4864 18.5879C61.3677 18.5895 61.251 18.6187 61.1455 18.6731C61.0665 18.7151 60.9992 18.776 60.9496 18.8504C60.9 18.9248 60.8697 19.0103 60.8613 19.0993L60.9182 52.9956C60.916 53.1189 60.9561 53.2392 61.0318 53.3365L67.2257 60.5249C67.493 60.8256 67.8452 61.0382 68.2358 61.1346C68.6264 61.2309 69.037 61.2066 69.4135 61.0647C69.7509 60.9567 70.0454 60.7445 70.2547 60.4586C70.464 60.1727 70.5773 59.8279 70.5784 59.4736L70.55 26.032ZM65.7199 32.8226C65.7199 32.368 66.345 32.1407 66.7427 32.4248L68.7884 34.0444C68.855 34.0859 68.9088 34.1451 68.9439 34.2152C68.979 34.2854 68.994 34.3639 68.9873 34.4421V37.8516C68.9873 38.3062 68.3623 38.5335 67.9645 38.221L65.9188 36.6299C65.8037 36.5279 65.7324 36.3854 65.7199 36.2321V32.8226ZM69.1294 46.347C69.1323 46.5554 69.0748 46.7602 68.9639 46.9367C68.853 47.1131 68.6934 47.2537 68.5043 47.3415C68.3644 47.4161 68.2083 47.4551 68.0497 47.4551C67.7792 47.4429 67.52 47.3432 67.311 47.171L65.8051 45.8072C65.6918 45.7013 65.6008 45.5739 65.5374 45.4324C65.4739 45.2909 65.4394 45.1382 65.4358 44.9832V39.1018C65.4315 38.8894 65.4916 38.6807 65.6083 38.5032C65.7249 38.3257 65.8926 38.1877 66.0892 38.1074C66.2783 38.0163 66.4902 37.9838 66.6978 38.0142C66.9054 38.0446 67.0992 38.1364 67.2542 38.2778L68.7884 39.6416C68.8979 39.7489 68.9845 39.8772 69.0431 40.0188C69.1017 40.1604 69.131 40.3124 69.1294 40.4656V46.347Z" fill="#5959FF"/>
<path d="M68.7885 39.6424L67.2542 38.2786C67.0992 38.1372 66.9054 38.0454 66.6978 38.015C66.4902 37.9846 66.2783 38.017 66.0893 38.1081C65.8926 38.1884 65.7249 38.3265 65.6083 38.504C65.4916 38.6815 65.4315 38.8902 65.4358 39.1026V44.984C65.4394 45.139 65.4739 45.2917 65.5374 45.4332C65.6008 45.5747 65.6918 45.7021 65.8051 45.8079L67.311 47.1717C67.52 47.344 67.7792 47.4437 68.0497 47.4559C68.2083 47.4559 68.3644 47.4168 68.5043 47.3422C68.6934 47.2545 68.853 47.1139 68.9639 46.9374C69.0748 46.761 69.1323 46.5562 69.1294 46.3478V40.4664C69.1311 40.3131 69.1017 40.1611 69.0431 40.0195C68.9845 39.8779 68.8979 39.7497 68.7885 39.6424ZM68.277 46.3478C68.2805 46.3958 68.2686 46.4437 68.2431 46.4846C68.2175 46.5254 68.1797 46.5571 68.135 46.5751C68.1065 46.6035 67.9929 46.6319 67.8792 46.5183L66.3734 45.1544C66.346 45.1354 66.3239 45.1099 66.309 45.0801C66.2941 45.0503 66.2869 45.0172 66.2881 44.984V39.1026C66.2913 39.0559 66.3059 39.0108 66.3307 38.9711C66.3555 38.9315 66.3896 38.8985 66.4302 38.8753H66.5154L66.6859 38.9321L68.1918 40.3243C68.2214 40.341 68.2453 40.3661 68.2605 40.3965C68.2756 40.4269 68.2814 40.4611 68.277 40.4948V46.3478Z" fill="#4239AB"/>
<path d="M47.5359 46.5469H15.4297V47.1151H47.5359V46.5469Z" fill="#312893"/>
<path d="M51.6565 16.6857H13.0721C12.5674 16.6819 12.0669 16.7785 11.5998 16.9699C11.1327 17.1614 10.7084 17.4437 10.3515 17.8007C9.99452 18.1576 9.71213 18.582 9.52071 19.049C9.32929 19.5161 9.23265 20.0166 9.23643 20.5214V49.2465C9.23265 49.7513 9.32929 50.2518 9.52071 50.7188C9.71213 51.1859 9.99452 51.6103 10.3515 51.9672C10.7084 52.3241 11.1327 52.6065 11.5998 52.7979C12.0669 52.9894 12.5674 53.086 13.0721 53.0822H51.6565C52.6738 53.0822 53.6494 52.6781 54.3687 51.9588C55.0881 51.2394 55.4922 50.2638 55.4922 49.2465V20.5214C55.4922 19.5041 55.0881 18.5284 54.3687 17.8091C53.6494 17.0898 52.6738 16.6857 51.6565 16.6857ZM54.6398 49.2465C54.6398 50.0377 54.3255 50.7966 53.766 51.356C53.2065 51.9155 52.4477 52.2298 51.6565 52.2298H13.0721C12.5868 52.2346 12.1081 52.1173 11.6799 51.8889C11.5066 51.8051 11.3444 51.7001 11.1969 51.5763C10.8465 51.2985 10.5644 50.944 10.3723 50.5401C10.1802 50.1362 10.0832 49.6937 10.0888 49.2465V20.5214C10.0888 19.7301 10.4031 18.9713 10.9626 18.4118C11.5221 17.8523 12.2809 17.538 13.0721 17.538H51.6565C52.4477 17.538 53.2065 17.8523 53.766 18.4118C54.3255 18.9713 54.6398 19.7301 54.6398 20.5214V49.2465Z" fill="#4239AB"/>
<path d="M68.2781 40.4661V46.3475C68.2815 46.3956 68.2696 46.4435 68.2441 46.4843C68.2186 46.5252 68.1807 46.5569 68.136 46.5748C68.1076 46.6032 67.994 46.6316 67.8803 46.518L66.3744 45.1542C66.3471 45.1352 66.325 45.1096 66.3101 45.0798C66.2952 45.05 66.288 45.017 66.2892 44.9837V39.1023C66.2923 39.0557 66.307 39.0105 66.3317 38.9708C66.3565 38.9312 66.3907 38.8983 66.4313 38.875H66.5165L66.687 38.9318L68.1928 40.324C68.218 40.3385 68.239 40.3592 68.2539 40.384C68.2688 40.4089 68.2771 40.4371 68.2781 40.4661Z" fill="#312893"/>
<path d="M68.9882 34.4434V37.8529C68.9882 38.3075 68.3631 38.5348 67.9653 38.2223L65.9196 36.6312C65.8045 36.5292 65.7333 36.3867 65.7207 36.2334V32.8239C65.7207 32.3693 66.3458 32.142 66.7436 32.4261L68.7893 34.0456C68.8558 34.0872 68.9096 34.1463 68.9447 34.2165C68.9798 34.2867 68.9948 34.3652 68.9882 34.4434Z" fill="#4239AB"/>
<path d="M43.0475 37.3115C42.9203 35.3271 42.2721 33.4114 41.1683 31.7575C40.0645 30.1036 38.5441 28.7699 36.7605 27.8911C34.9769 27.0122 32.993 26.6192 31.009 26.7517C29.025 26.8842 27.111 27.5374 25.46 28.6456C24.2301 29.469 23.1692 30.5202 22.3347 31.7426C21.0988 33.61 20.4422 35.801 20.4473 38.0403C20.4523 40.2796 21.1188 42.4675 22.3631 44.3294C23.0695 45.4087 23.9646 46.3519 25.0054 47.1138C25.2761 47.3227 25.5609 47.5125 25.8578 47.6821C26.9853 48.3964 28.2391 48.8883 29.5515 49.1311C30.2547 49.2629 30.9672 49.3389 31.6824 49.3584H31.7676L32.9042 49.3016C34.5796 49.1301 36.1933 48.576 37.6206 47.6821C37.7744 47.6181 37.918 47.532 38.0468 47.4264L38.473 47.1138L38.8992 46.8013L39.3538 46.4035L39.8652 45.9205L40.0073 45.75C41.461 44.2215 42.4469 42.3088 42.8486 40.238C42.9568 39.6754 43.0233 39.1056 43.0475 38.5332C43.0759 38.1265 43.0759 37.7182 43.0475 37.3115Z" fill="#C8C5E9"/>
<path d="M38.3023 33.8455C37.7323 32.9774 36.9932 32.2331 36.1291 31.6571C35.265 31.081 34.2937 30.6851 33.2732 30.4928C32.7686 30.3892 32.254 30.3416 31.739 30.3507C29.777 30.3391 27.8815 31.0608 26.424 32.3742C24.9665 33.6875 24.0521 35.4979 23.8601 37.4505C23.668 39.403 24.2122 41.3568 25.3859 42.929C26.5595 44.5012 28.2781 45.5783 30.2047 45.9492C30.7191 46.0515 31.2429 46.0991 31.7674 46.0913C33.3173 46.0905 34.8314 45.6254 36.1145 44.7559C37.851 43.5989 39.057 41.7996 39.4673 39.7536C39.8775 37.7077 39.4585 35.5825 38.3023 33.8455V33.8455Z" stroke="#A49FDA" stroke-width="2" stroke-miterlimit="10" stroke-dasharray="5.12 5.12"/>
<path d="M34.7783 40.1524C34.7783 41.232 33.3577 42.1128 31.6245 42.1128C29.8913 42.1128 28.4707 41.232 28.4707 40.1524C28.4707 39.0727 29.0958 38.817 30.0334 38.476C30.1099 38.107 30.3085 37.7745 30.5972 37.5322C30.8859 37.2899 31.2478 37.1519 31.6245 37.1406C32.0042 37.1414 32.3715 37.2755 32.6624 37.5196C32.9532 37.7637 33.149 38.1022 33.2156 38.476C34.1532 38.817 34.7783 39.442 34.7783 40.1524Z" fill="#A49FDA"/>
<path d="M28.7266 38.5328C28.5928 38.6023 28.4463 38.6438 28.296 38.6548C28.1456 38.6657 27.9947 38.6459 27.8523 38.5965C27.7098 38.547 27.579 38.4691 27.4678 38.3674C27.3565 38.2657 27.2672 38.1423 27.2053 38.0049C27.1434 37.8675 27.1101 37.7189 27.1076 37.5682C27.1051 37.4175 27.1333 37.2678 27.1906 37.1284C27.2479 36.989 27.333 36.8627 27.4408 36.7573C27.5486 36.652 27.6767 36.5697 27.8174 36.5155C27.9511 36.446 28.0976 36.4045 28.248 36.3936C28.3983 36.3826 28.5493 36.4024 28.6917 36.4519C28.8341 36.5013 28.9649 36.5792 29.0762 36.6809C29.1874 36.7826 29.2767 36.906 29.3387 37.0434C29.4006 37.1808 29.4338 37.3294 29.4364 37.4801C29.4389 37.6309 29.4106 37.7805 29.3533 37.9199C29.2961 38.0593 29.2109 38.1856 29.1031 38.291C28.9954 38.3964 28.8672 38.4787 28.7266 38.5328Z" fill="#A49FDA"/>
<path d="M35.6016 38.5321C35.4678 38.6016 35.3213 38.6431 35.171 38.654C35.0206 38.665 34.8697 38.6451 34.7273 38.5957C34.5848 38.5463 34.454 38.4683 34.3428 38.3666C34.2315 38.2649 34.1422 38.1416 34.0803 38.0042C34.0184 37.8667 33.9851 37.7181 33.9826 37.5674C33.9801 37.4167 34.0083 37.2671 34.0656 37.1277C34.1229 36.9882 34.208 36.862 34.3158 36.7566C34.4236 36.6512 34.5517 36.5689 34.6924 36.5148C34.9639 36.3881 35.2744 36.3738 35.5564 36.4749C35.8384 36.576 36.069 36.7843 36.1982 37.0546C36.3124 37.3299 36.3138 37.639 36.2022 37.9154C36.0906 38.1918 35.8749 38.4132 35.6016 38.5321Z" fill="#A49FDA"/>
<path d="M33.5004 36.6294C33.2988 36.711 33.0775 36.7315 32.8643 36.6882C32.6511 36.6449 32.4553 36.5399 32.3014 36.3861C32.1475 36.2323 32.0423 36.0366 31.9989 35.8235C31.9554 35.6103 31.9757 35.389 32.0572 35.1873C32.1387 34.9856 32.2777 34.8123 32.457 34.689C32.6363 34.5658 32.8479 34.4981 33.0654 34.4943C33.283 34.4905 33.4968 34.5509 33.6803 34.6678C33.8637 34.7848 34.0087 34.9531 34.0971 35.1519C34.2112 35.4272 34.2127 35.7364 34.1011 36.0127C33.9895 36.2891 33.7738 36.5105 33.5004 36.6294Z" fill="#A49FDA"/>
<path d="M30.6294 36.6294C30.4277 36.711 30.2065 36.7315 29.9932 36.6882C29.78 36.6449 29.5843 36.5399 29.4303 36.3861C29.2764 36.2323 29.1712 36.0366 29.1278 35.8235C29.0843 35.6103 29.1046 35.389 29.1861 35.1873C29.2676 34.9856 29.4066 34.8123 29.5859 34.689C29.7652 34.5658 29.9768 34.4981 30.1943 34.4943C30.4119 34.4905 30.6257 34.5509 30.8092 34.6678C30.9926 34.7848 31.1376 34.9531 31.226 35.1519C31.3402 35.4272 31.3416 35.7364 31.23 36.0127C31.1184 36.2891 30.9027 36.5105 30.6294 36.6294Z" fill="#A49FDA"/>
<path d="M43.0475 37.3115C42.9203 35.3271 42.2721 33.4114 41.1683 31.7575C40.0645 30.1036 38.5441 28.7699 36.7605 27.8911C34.9769 27.0122 32.993 26.6192 31.009 26.7517C29.025 26.8842 27.111 27.5374 25.46 28.6456C24.2301 29.469 23.1692 30.5202 22.3347 31.7426C21.0988 33.61 20.4422 35.801 20.4473 38.0403C20.4523 40.2796 21.1188 42.4675 22.3631 44.3294C23.0695 45.4087 23.9646 46.3519 25.0054 47.1138C25.2761 47.3227 25.5609 47.5125 25.8578 47.6821C26.9853 48.3964 28.2391 48.8883 29.5515 49.1311C30.2547 49.2629 30.9672 49.3389 31.6824 49.3584H31.7676L32.9042 49.3016C34.5796 49.1301 36.1933 48.576 37.6206 47.6821C37.7744 47.6181 37.918 47.532 38.0468 47.4264L38.473 47.1138L38.8992 46.8013L39.3538 46.4035L39.8652 45.9205L40.0073 45.75C41.461 44.2215 42.4469 42.3088 42.8486 40.238C42.9568 39.6754 43.0233 39.1056 43.0475 38.5332C43.0759 38.1265 43.0759 37.7182 43.0475 37.3115V37.3115Z" stroke="#A49FDA" stroke-width="3" stroke-miterlimit="10"/>
<path d="M53.7305 15.4346C53.7345 15.615 53.725 15.7954 53.7021 15.9744C53.6499 16.2261 53.5537 16.4665 53.418 16.6848C53.2123 17.0605 52.9201 17.3819 52.5656 17.6224C52.2942 17.818 51.9843 17.9535 51.6564 18.0201H51.5712L50.9177 18.077H41.6552C41.1486 18.0766 40.6525 17.9322 40.2249 17.6605C39.7972 17.3888 39.4557 17.0012 39.2401 16.5427C39.2401 16.5143 39.2117 16.4859 39.2117 16.4575C39.0454 16.0333 38.9868 15.5744 39.0412 15.1221C39.12 14.6095 39.3479 14.1314 39.6966 13.7474C40.0452 13.3634 40.4991 13.0905 41.0017 12.9627C41.1722 12.9343 41.2006 12.8775 41.2006 12.707C41.2408 12.0335 41.4767 11.3863 41.8794 10.8449C42.2821 10.3035 42.834 9.89142 43.4675 9.65914C44.1009 9.42686 44.7884 9.38452 45.4456 9.5373C46.1028 9.69007 46.7012 10.0313 47.1672 10.5192L47.5082 10.9738C47.5934 11.0875 47.6218 11.1159 47.7639 11.0306L48.1333 10.8886C48.6703 10.6983 49.2554 10.6928 49.7959 10.873C50.3363 11.0532 50.8011 11.4086 51.1166 11.883C51.2282 12.0635 51.3233 12.2537 51.4007 12.4513L51.486 12.7638C51.492 12.8145 51.5149 12.8616 51.5509 12.8977C51.587 12.9338 51.6342 12.9567 51.6848 12.9627C51.8628 12.9938 52.0352 13.0513 52.1963 13.1332C52.5582 13.2965 52.8787 13.5393 53.1339 13.8435C53.3855 14.1522 53.5694 14.5104 53.6737 14.8948C53.7021 15.0368 53.7021 15.1505 53.7305 15.2925V15.4346Z" fill="white"/>
<path d="M18.5558 35.5798C18.5687 36.1886 18.4112 36.7889 18.1012 37.3129C17.9276 37.5619 17.7377 37.7992 17.5329 38.0233L17.0783 38.3642C16.7429 38.5939 16.3668 38.7578 15.9702 38.8472H15.8282C15.5647 38.8897 15.2991 38.9181 15.0326 38.9325H3.35503C2.54536 38.9542 1.75649 38.6744 1.14143 38.1474C0.52638 37.6203 0.128991 36.8837 0.0263507 36.0802C-0.0762901 35.2768 0.123134 34.4639 0.585939 33.7992C1.04874 33.1345 1.74194 32.6653 2.53106 32.4828C2.75836 32.4544 2.78677 32.3691 2.78677 32.1703C2.8399 31.1681 3.23588 30.2147 3.90836 29.4698C4.58083 28.7249 5.48892 28.2338 6.48041 28.0788C6.71521 28.0411 6.95367 28.0316 7.19073 28.0504L7.90105 28.1073C8.82092 28.2622 9.66173 28.7226 10.2877 29.4142C10.4542 29.584 10.5975 29.7751 10.7139 29.9825C10.8275 30.1245 10.8844 30.153 11.0264 30.0677L11.5094 29.8688H11.5379C11.7977 29.7555 12.0783 29.6975 12.3618 29.6984C12.9277 29.6552 13.4948 29.7642 14.0043 30.014C14.5139 30.2638 14.9474 30.6453 15.2599 31.119C15.4055 31.3534 15.5291 31.6006 15.6293 31.8577C15.6577 31.9714 15.7145 32.1134 15.7429 32.2555C15.7713 32.3976 15.8282 32.426 15.9702 32.4828L16.6237 32.6817C16.9513 32.8404 17.257 33.0409 17.5329 33.2783C17.7527 33.4891 17.9438 33.728 18.1012 33.9887C18.2701 34.2812 18.3945 34.5972 18.4705 34.9263C18.5287 35.1392 18.5574 35.3591 18.5558 35.5798Z" fill="white"/>
<path d="M58.8735 54.3597V54.5586C58.8735 54.6438 58.8451 54.729 58.8451 54.8427C58.706 55.4253 58.3505 55.9332 57.8506 56.2633C57.6223 56.4251 57.3598 56.5321 57.0835 56.5758H48.5029C48.0533 56.5811 47.6125 56.4511 47.2376 56.2029C46.8627 55.9547 46.571 55.5996 46.4003 55.1836C46.3168 54.9638 46.2596 54.735 46.2298 54.5017C46.2121 53.9819 46.371 53.4715 46.6806 53.0535C46.9902 52.6356 47.4322 52.3348 47.9346 52.2003C48.0767 52.1719 48.1051 52.1151 48.1335 51.973C48.1626 51.3282 48.4041 50.7111 48.8203 50.2178C49.2366 49.7245 49.8042 49.3826 50.4349 49.2454C50.6579 49.1892 50.8869 49.1606 51.1168 49.1602L51.6851 49.2454C52.2757 49.3547 52.8145 49.654 53.2194 50.0978C53.3388 50.2177 53.4437 50.3512 53.5319 50.4955C53.5887 50.5808 53.6455 50.6092 53.7308 50.5524L54.0717 50.4103C54.5278 50.2485 55.025 50.2446 55.4835 50.3991C55.9421 50.5537 56.3354 50.8578 56.6005 51.2627H56.6289C56.7268 51.4224 56.8032 51.5944 56.8562 51.7741L56.9414 52.0298C56.9698 52.1435 56.9982 52.1719 57.1119 52.2003L57.5665 52.3424C57.8774 52.4848 58.1501 52.699 58.362 52.9674L58.4473 53.0811C58.6259 53.3062 58.7521 53.5682 58.8166 53.8482C58.8531 54.0163 58.8722 54.1877 58.8735 54.3597Z" fill="white"/>
</svg>
