<?xml version="1.0" encoding="UTF-8" standalone="no" ?>
<!DOCTYPE svg PUBLIC "-//W3C//DTD SVG 1.1//EN" "http://www.w3.org/Graphics/SVG/1.1/DTD/svg11.dtd">
<svg xmlns="http://www.w3.org/2000/svg" xmlns:xlink="http://www.w3.org/1999/xlink" version="1.1" width="72" height="72" viewBox="0 0 72 72" xml:space="preserve">
<desc>Created with Fabric.js 5.2.4</desc>
<defs>
</defs>
<rect x="0" y="0" width="100%" height="100%" fill="transparent"></rect>
<g transform="matrix(1 0 0 1 36 36)" id="a21ec444-3fc0-4fac-8bda-a2e6d81a3ee8"  >
<rect style="stroke: none; stroke-width: 1; stroke-dasharray: none; stroke-linecap: butt; stroke-dashoffset: 0; stroke-linejoin: miter; stroke-miterlimit: 4; fill: rgb(255,255,255); fill-rule: nonzero; opacity: 1; visibility: hidden;" vector-effect="non-scaling-stroke"  x="-36" y="-36" rx="0" ry="0" width="72" height="72" />
</g>
<g transform="matrix(Infinity NaN NaN Infinity 0 0)" id="78807e52-2e3a-488e-ad6d-191b89ec7fca"  >
</g>
<g transform="matrix(1.57 0 0 1.57 180.18 152.91)"  >
<g style=""   >
		<g transform="matrix(1 0 0 1 3 -10)"  >
<path style="stroke: none; stroke-width: 1; stroke-dasharray: none; stroke-linecap: butt; stroke-dashoffset: 0; stroke-linejoin: miter; stroke-miterlimit: 4; fill: rgb(164,159,218); fill-rule: nonzero; opacity: 1;" vector-effect="non-scaling-stroke"  transform=" translate(-26, -12)" d="M 38 11.2566 C 37.8545 9.13216 37.1534 7.08323 35.9668 5.31485 C 35.0926 4.00705 33.9689 2.88448 32.6601 2.01144 C 31.3512 1.13839 29.8831 0.532009 28.3395 0.227006 C 26.796 -0.0779962 25.2075 -0.0756281 23.6649 0.233973 C 22.1223 0.543574 20.6559 1.15433 19.3497 2.03127 C 18.0388 2.89916 16.9098 4.01454 16.0263 5.31485 C 15.1573 6.63424 14.5469 8.10669 14.2277 9.65387 C 13.6113 12.7832 14.2579 16.0292 16.0263 18.6837 C 16.9053 19.9942 18.0349 21.1179 19.3502 21.9901 C 20.6654 22.8622 22.1402 23.4656 23.6897 23.7655 C 24.4225 23.9207 25.1694 23.9994 25.9184 24 L 26.0357 24 L 27.2086 23.9218 C 29.1659 23.7285 31.0456 23.0573 32.6825 21.9673 L 33.5818 21.3028 C 33.7556 21.1797 33.9132 21.0352 34.051 20.8728 C 34.2518 20.7242 34.4354 20.5538 34.5984 20.3646 L 34.7939 20.2082 C 36.3041 18.5636 37.3322 16.5349 37.7654 14.3447 C 37.8795 13.7505 37.9578 13.1501 38 12.5466 L 38 11.2566 Z M 36.5142 14.0711 C 36.3023 15.5056 35.8013 16.8821 35.0415 18.1173 C 34.2817 19.3524 33.2789 20.4205 32.094 21.2567 C 30.909 22.0929 29.5666 22.6798 28.148 22.982 C 26.7294 23.2841 25.2643 23.295 23.8414 23.0142 C 22.4184 22.7334 21.0673 22.1666 19.87 21.3483 C 18.6726 20.5299 17.654 19.477 16.8757 18.2534 C 16.0975 17.0298 15.5759 15.6609 15.3425 14.2297 C 15.1091 12.7986 15.1688 11.3349 15.518 9.92751 C 15.783 8.54369 16.3203 7.22632 17.099 6.05196 C 17.8776 4.87759 18.8819 3.86965 20.0535 3.08671 C 21.2225 2.30121 22.5354 1.75479 23.9166 1.47893 C 25.2978 1.20307 26.7199 1.20322 28.101 1.47938 C 29.4822 1.75554 30.795 2.30225 31.9638 3.088 C 33.1326 3.87374 34.1343 4.88299 34.9112 6.05757 C 35.6998 7.21873 36.2479 8.52597 36.5232 9.90225 C 36.7985 11.2785 36.7955 12.696 36.5142 14.0711 Z" stroke-linecap="round" />
</g>
		<g transform="matrix(1 0 0 1 2.97 -9.76)"  >
<path style="stroke: none; stroke-width: 1; stroke-dasharray: none; stroke-linecap: butt; stroke-dashoffset: 0; stroke-linejoin: miter; stroke-miterlimit: 4; fill: rgb(200,197,233); fill-rule: nonzero; opacity: 1;" vector-effect="non-scaling-stroke"  transform=" translate(-25.97, -12.24)" d="M 36.5145 14.0704 C 36.3026 15.5049 35.8015 16.8815 35.0417 18.1166 C 34.2819 19.3518 33.2791 20.4198 32.0942 21.256 C 30.9093 22.0922 29.5668 22.6792 28.1483 22.9813 C 26.7297 23.2834 25.2645 23.2944 23.8416 23.0136 C 22.4187 22.7327 21.0676 22.166 19.8702 21.3476 C 18.6729 20.5293 17.6542 19.4764 16.876 18.2528 C 16.0977 17.0291 15.5761 15.6602 15.3427 14.2291 C 15.1093 12.7979 15.1691 11.3343 15.5183 9.92684 C 15.7832 8.54303 16.3206 7.22566 17.0992 6.0513 C 17.8778 4.87693 18.8821 3.86899 20.0538 3.08605 C 21.2227 2.30055 22.5357 1.75413 23.9168 1.47827 C 25.298 1.2024 26.7202 1.20256 28.1013 1.47872 C 29.4824 1.75488 30.7952 2.30159 31.964 3.08734 C 33.1328 3.87308 34.1345 4.88233 34.9114 6.0569 C 35.7 7.21806 36.2481 8.52531 36.5235 9.90159 C 36.7988 11.2779 36.7957 12.6953 36.5145 14.0704 Z" stroke-linecap="round" />
</g>
		<g transform="matrix(1 0 0 1 3 -10)"  >
<path style="stroke: none; stroke-width: 1; stroke-dasharray: none; stroke-linecap: butt; stroke-dashoffset: 0; stroke-linejoin: miter; stroke-miterlimit: 4; fill: rgb(164,159,218); fill-rule: nonzero; opacity: 1;" vector-effect="non-scaling-stroke"  transform=" translate(-26, -12)" d="M 32.9565 7.34834 C 31.7253 5.50515 29.8128 4.22577 27.639 3.79113 C 27.096 3.70028 26.5472 3.64803 25.9968 3.63477 C 23.9184 3.63653 21.9149 4.41165 20.3767 5.80917 C 18.8385 7.2067 17.8756 9.12657 17.6756 11.1949 C 17.4755 13.2633 18.0526 15.332 19.2945 16.9983 C 20.5364 18.6646 22.3541 19.8091 24.3938 20.209 C 24.9368 20.2999 25.4855 20.3521 26.0359 20.3654 C 27.6773 20.3502 29.2793 19.8616 30.6496 18.9581 C 31.564 18.3477 32.3491 17.563 32.96 16.649 C 33.5709 15.7349 33.9956 14.7095 34.2099 13.6313 C 34.4241 12.553 34.4237 11.4432 34.2086 10.3651 C 33.9936 9.28701 33.5681 8.2619 32.9565 7.34834 Z M 33.6994 13.5246 C 33.3933 15.0375 32.6461 16.4259 31.5521 17.515 C 30.458 18.604 29.066 19.3449 27.5514 19.6443 C 26.0369 19.9437 24.4676 19.7881 23.0413 19.1973 C 21.615 18.6064 20.3956 17.6067 19.5367 16.3241 C 18.6778 15.0415 18.2179 13.5334 18.2149 11.9899 C 18.2119 10.4463 18.666 8.93648 19.5199 7.65055 C 20.3738 6.36462 21.5894 5.36018 23.0133 4.7638 C 24.4373 4.16742 26.006 4.0058 27.5217 4.2993 C 29.5585 4.71475 31.3494 5.91629 32.5059 7.6433 C 33.6624 9.37031 34.0912 11.4835 33.6994 13.5246 Z" stroke-linecap="round" />
</g>
		<g transform="matrix(1 0 0 1 2.99 -9.99)"  >
<path style="stroke: none; stroke-width: 1; stroke-dasharray: none; stroke-linecap: butt; stroke-dashoffset: 0; stroke-linejoin: miter; stroke-miterlimit: 4; fill: rgb(200,197,233); fill-rule: nonzero; opacity: 1;" vector-effect="non-scaling-stroke"  transform=" translate(-25.99, -12.01)" d="M 27.5208 4.29937 C 25.9957 3.99613 24.415 4.15201 22.9786 4.74728 C 21.5421 5.34255 20.3146 6.35045 19.4513 7.64345 C 18.5881 8.93644 18.1278 10.4564 18.1289 12.011 C 18.13 13.5656 18.5923 15.0849 19.4573 16.3767 C 20.3224 17.6685 21.5513 18.6747 22.9885 19.268 C 24.4258 19.8613 26.0068 20.015 27.5314 19.7097 C 29.0561 19.4043 30.4558 18.6537 31.5536 17.5527 C 32.6514 16.4517 33.3978 15.0499 33.6985 13.5247 C 33.9031 12.5131 33.9054 11.4709 33.7052 10.4584 C 33.5049 9.4459 33.1062 8.48306 32.5319 7.62541 C 31.9575 6.76776 31.219 6.03229 30.359 5.46144 C 29.4989 4.89058 28.5343 4.49563 27.5208 4.29937 Z M 26.8952 8.16931 C 27.1858 8.03591 27.5173 8.02268 27.8175 8.13251 C 28.1178 8.24233 28.3624 8.46631 28.4983 8.75566 C 28.6171 9.04653 28.6183 9.37215 28.5016 9.66387 C 28.3849 9.95558 28.1594 10.1906 27.8727 10.3193 C 27.5822 10.4527 27.2507 10.4659 26.9504 10.3561 C 26.6502 10.2462 26.4055 10.0223 26.2696 9.73292 C 26.2055 9.58953 26.1709 9.43471 26.1677 9.27767 C 26.1646 9.12063 26.193 8.96456 26.2514 8.81872 C 26.3097 8.67288 26.3968 8.54025 26.5074 8.42869 C 26.618 8.31713 26.7499 8.22893 26.8952 8.16931 Z M 23.8455 8.16931 C 24.136 8.03591 24.4675 8.02268 24.7678 8.13251 C 25.068 8.24233 25.3127 8.46631 25.4486 8.75566 C 25.5127 8.89906 25.5473 9.05387 25.5505 9.21091 C 25.5536 9.36795 25.5252 9.52402 25.4668 9.66986 C 25.4085 9.8157 25.3214 9.94833 25.2108 10.0599 C 25.1002 10.1714 24.9683 10.2597 24.823 10.3193 C 24.5324 10.4527 24.2009 10.4659 23.9007 10.3561 C 23.6004 10.2462 23.3557 10.0223 23.2199 9.73292 C 23.1011 9.44206 23.0999 9.11642 23.2166 8.82471 C 23.3333 8.533 23.5588 8.29801 23.8455 8.16931 Z M 21.1868 11.7656 C 21.0776 11.4739 21.0812 11.152 21.1969 10.8628 C 21.3126 10.5736 21.5321 10.338 21.8123 10.202 C 21.9553 10.1305 22.1113 10.0889 22.2709 10.0798 C 22.4305 10.0708 22.5903 10.0944 22.7404 10.1493 C 22.8906 10.2042 23.0279 10.2893 23.1439 10.3991 C 23.26 10.509 23.3524 10.6415 23.4154 10.7884 C 23.4795 10.9317 23.5142 11.0866 23.5173 11.2436 C 23.5205 11.4006 23.492 11.5567 23.4337 11.7026 C 23.3753 11.8484 23.2883 11.981 23.1777 12.0926 C 23.0671 12.2041 22.9352 12.2923 22.7898 12.352 C 22.4993 12.4854 22.1678 12.4986 21.8675 12.3888 C 21.5673 12.2789 21.3226 12.055 21.1868 11.7656 Z M 25.8786 16.1437 C 24.041 16.1437 22.5161 15.2056 22.5161 14.0719 C 22.5161 12.9383 23.2199 12.6256 24.1974 12.2738 C 24.2807 11.8899 24.4929 11.5461 24.7988 11.2995 C 25.1046 11.0529 25.4857 10.9184 25.8786 10.9184 C 26.2716 10.9184 26.6527 11.0529 26.9585 11.2995 C 27.2644 11.5461 27.4766 11.8899 27.5599 12.2738 C 28.5374 12.6256 29.2412 13.2901 29.2412 14.0719 C 29.2412 14.8537 27.7163 16.1437 25.8786 16.1437 Z M 30.1014 12.352 C 29.8108 12.4854 29.4793 12.4986 29.1791 12.3888 C 28.8788 12.2789 28.6341 12.055 28.4983 11.7656 C 28.3795 11.4747 28.3783 11.1491 28.495 10.8574 C 28.6117 10.5657 28.8372 10.3307 29.1239 10.202 C 29.2668 10.1305 29.4229 10.0889 29.5825 10.0798 C 29.7421 10.0708 29.9018 10.0944 30.052 10.1493 C 30.2021 10.2042 30.3394 10.2893 30.4555 10.3991 C 30.5715 10.509 30.6639 10.6415 30.7269 10.7884 C 30.8457 11.0792 30.8469 11.4048 30.7302 11.6966 C 30.6135 11.9883 30.388 12.2233 30.1014 12.352 Z" stroke-linecap="round" />
</g>
		<g transform="matrix(1 0 0 1 2.88 -8.47)"  >
<path style="stroke: none; stroke-width: 1; stroke-dasharray: none; stroke-linecap: butt; stroke-dashoffset: 0; stroke-linejoin: miter; stroke-miterlimit: 4; fill: rgb(164,159,218); fill-rule: nonzero; opacity: 1;" vector-effect="non-scaling-stroke"  transform=" translate(-25.88, -13.53)" d="M 29.2407 14.0715 C 29.2407 15.2051 27.7158 16.1433 25.8782 16.1433 C 24.0405 16.1433 22.5156 15.2051 22.5156 14.0715 C 22.5156 12.9379 23.2194 12.6251 24.1969 12.2733 C 24.2802 11.8894 24.4924 11.5456 24.7983 11.299 C 25.1041 11.0524 25.4852 10.918 25.8782 10.918 C 26.2711 10.918 26.6522 11.0524 26.958 11.299 C 27.2639 11.5456 27.4761 11.8894 27.5594 12.2733 C 28.5369 12.6251 29.2407 13.2897 29.2407 14.0715 Z" stroke-linecap="round" />
</g>
		<g transform="matrix(1 0 0 1 -0.69 -10.73)"  >
<path style="stroke: none; stroke-width: 1; stroke-dasharray: none; stroke-linecap: butt; stroke-dashoffset: 0; stroke-linejoin: miter; stroke-miterlimit: 4; fill: rgb(164,159,218); fill-rule: nonzero; opacity: 1;" vector-effect="non-scaling-stroke"  transform=" translate(-22.31, -11.27)" d="M 22.7898 12.3521 C 22.4992 12.4855 22.1678 12.4988 21.8675 12.389 C 21.5673 12.2791 21.3226 12.0551 21.1867 11.7658 C 21.0776 11.4741 21.0812 11.1522 21.1969 10.863 C 21.3126 10.5738 21.5321 10.3382 21.8123 10.2022 C 21.9553 10.1306 22.1113 10.0891 22.2709 10.08 C 22.4305 10.071 22.5903 10.0946 22.7404 10.1495 C 22.8905 10.2044 23.0278 10.2894 23.1439 10.3993 C 23.26 10.5092 23.3524 10.6417 23.4154 10.7885 C 23.4795 10.9319 23.5142 11.0867 23.5173 11.2438 C 23.5204 11.4008 23.492 11.5569 23.4336 11.7027 C 23.3753 11.8486 23.2882 11.9812 23.1776 12.0928 C 23.067 12.2043 22.9351 12.2925 22.7898 12.3521 Z" stroke-linecap="round" />
</g>
		<g transform="matrix(1 0 0 1 6.61 -10.73)"  >
<path style="stroke: none; stroke-width: 1; stroke-dasharray: none; stroke-linecap: butt; stroke-dashoffset: 0; stroke-linejoin: miter; stroke-miterlimit: 4; fill: rgb(164,159,218); fill-rule: nonzero; opacity: 1;" vector-effect="non-scaling-stroke"  transform=" translate(-29.61, -11.27)" d="M 30.1012 12.3521 C 29.8107 12.4855 29.4792 12.4988 29.179 12.389 C 28.8787 12.2791 28.634 12.0551 28.4982 11.7658 C 28.3794 11.4749 28.3782 11.1493 28.4949 10.8576 C 28.6116 10.5659 28.8371 10.3309 29.1238 10.2022 C 29.2667 10.1306 29.4228 10.0891 29.5824 10.08 C 29.742 10.071 29.9017 10.0946 30.0519 10.1495 C 30.202 10.2044 30.3393 10.2894 30.4554 10.3993 C 30.5714 10.5092 30.6638 10.6417 30.7268 10.7885 C 30.8456 11.0794 30.8468 11.405 30.7301 11.6967 C 30.6134 11.9885 30.3879 12.2234 30.1012 12.3521 Z" stroke-linecap="round" />
</g>
		<g transform="matrix(1 0 0 1 4.38 -12.76)"  >
<path style="stroke: none; stroke-width: 1; stroke-dasharray: none; stroke-linecap: butt; stroke-dashoffset: 0; stroke-linejoin: miter; stroke-miterlimit: 4; fill: rgb(164,159,218); fill-rule: nonzero; opacity: 1;" vector-effect="non-scaling-stroke"  transform=" translate(-27.38, -9.24)" d="M 27.8732 10.3191 C 27.5827 10.4525 27.2512 10.4657 26.9509 10.3559 C 26.6507 10.2461 26.406 10.0221 26.2701 9.73278 C 26.206 9.58938 26.1713 9.43457 26.1682 9.27753 C 26.1651 9.12049 26.1935 8.96442 26.2519 8.81858 C 26.3102 8.67274 26.3973 8.5401 26.5079 8.42855 C 26.6185 8.31699 26.7504 8.22879 26.8957 8.16917 C 27.1863 8.03577 27.5177 8.02254 27.818 8.13236 C 28.1182 8.24219 28.3629 8.46617 28.4988 8.75552 C 28.6176 9.04638 28.6188 9.37201 28.5021 9.66372 C 28.3853 9.95544 28.1599 10.1904 27.8732 10.3191 Z" stroke-linecap="round" />
</g>
		<g transform="matrix(1 0 0 1 1.34 -12.76)"  >
<path style="stroke: none; stroke-width: 1; stroke-dasharray: none; stroke-linecap: butt; stroke-dashoffset: 0; stroke-linejoin: miter; stroke-miterlimit: 4; fill: rgb(164,159,218); fill-rule: nonzero; opacity: 1;" vector-effect="non-scaling-stroke"  transform=" translate(-24.34, -9.24)" d="M 24.8239 10.3191 C 24.5334 10.4525 24.2019 10.4657 23.9016 10.3559 C 23.6014 10.2461 23.3567 10.0221 23.2208 9.73278 C 23.102 9.44191 23.1008 9.11628 23.2176 8.82457 C 23.3343 8.53286 23.5597 8.29787 23.8464 8.16917 C 24.137 8.03577 24.4684 8.02254 24.7687 8.13236 C 25.0689 8.24219 25.3136 8.46617 25.4495 8.75552 C 25.5136 8.89891 25.5483 9.05372 25.5514 9.21076 C 25.5545 9.36781 25.5261 9.52388 25.4677 9.66972 C 25.4094 9.81556 25.3223 9.94819 25.2117 10.0597 C 25.1011 10.1713 24.9692 10.2595 24.8239 10.3191 Z" stroke-linecap="round" />
</g>
		<g transform="matrix(1 0 0 1 -11 6)"  >
<path style="stroke: none; stroke-width: 1; stroke-dasharray: none; stroke-linecap: butt; stroke-dashoffset: 0; stroke-linejoin: miter; stroke-miterlimit: 4; fill: rgb(164,159,218); fill-rule: nonzero; opacity: 1;" vector-effect="non-scaling-stroke"  transform=" translate(-12, -28)" d="M 24 27.2566 C 23.8545 25.1322 23.1534 23.0832 21.9668 21.3149 C 21.0926 20.007 19.9689 18.8845 18.6601 18.0114 C 17.3512 17.1384 15.8831 16.532 14.3395 16.227 C 12.796 15.922 11.2075 15.9244 9.66489 16.234 C 8.12229 16.5436 6.65592 17.1543 5.34972 18.0313 C 4.03876 18.8992 2.90984 20.0145 2.0263 21.3149 C 1.15728 22.6342 0.546936 24.1067 0.227738 25.6539 C -0.388684 28.7832 0.257863 32.0292 2.0263 34.6837 C 2.90529 35.9942 4.03493 37.1179 5.35017 37.9901 C 6.66541 38.8622 8.14024 39.4656 9.68972 39.7655 C 10.4225 39.9207 11.1694 39.9994 11.9184 40 L 12.0357 40 L 13.2086 39.9218 C 15.1659 39.7285 17.0456 39.0573 18.6825 37.9673 L 19.5818 37.3028 C 19.7556 37.1797 19.9132 37.0352 20.051 36.8728 C 20.2518 36.7242 20.4354 36.5538 20.5984 36.3646 L 20.7939 36.2082 C 22.3041 34.5636 23.3322 32.5349 23.7654 30.3447 C 23.8795 29.7505 23.9578 29.1501 24 28.5466 L 24 27.2566 Z M 22.5142 30.0711 C 22.3023 31.5056 21.8013 32.8821 21.0415 34.1173 C 20.2817 35.3524 19.2789 36.4205 18.094 37.2567 C 16.909 38.0929 15.5666 38.6798 14.148 38.982 C 12.7294 39.2841 11.2643 39.295 9.84136 39.0142 C 8.41843 38.7334 7.06734 38.1666 5.86999 37.3483 C 4.67265 36.5299 3.65398 35.477 2.87573 34.2534 C 2.09748 33.0298 1.57586 31.6609 1.34248 30.2297 C 1.10909 28.7986 1.16881 27.3349 1.51801 25.9275 C 1.78295 24.5437 2.32035 23.2263 3.09896 22.052 C 3.87757 20.8776 4.88188 19.8696 6.05351 19.0867 C 7.22249 18.3012 8.53541 17.7548 9.91659 17.4789 C 11.2978 17.2031 12.7199 17.2032 14.101 17.4794 C 15.4822 17.7555 16.795 18.3023 17.9638 19.088 C 19.1326 19.8737 20.1343 20.883 20.9112 22.0576 C 21.6998 23.2187 22.2479 24.526 22.5232 25.9023 C 22.7985 27.2785 22.7955 28.696 22.5142 30.0711 Z" stroke-linecap="round" />
</g>
		<g transform="matrix(1 0 0 1 -11.03 6.24)"  >
<path style="stroke: none; stroke-width: 1; stroke-dasharray: none; stroke-linecap: butt; stroke-dashoffset: 0; stroke-linejoin: miter; stroke-miterlimit: 4; fill: rgb(200,197,233); fill-rule: nonzero; opacity: 1;" vector-effect="non-scaling-stroke"  transform=" translate(-11.97, -28.24)" d="M 22.5145 30.0704 C 22.3026 31.5049 21.8015 32.8815 21.0417 34.1166 C 20.2819 35.3518 19.2791 36.4198 18.0942 37.256 C 16.9093 38.0922 15.5668 38.6792 14.1483 38.9813 C 12.7297 39.2834 11.2645 39.2944 9.84161 39.0136 C 8.41868 38.7327 7.06759 38.166 5.87025 37.3476 C 4.6729 36.5293 3.65424 35.4764 2.87599 34.2528 C 2.09774 33.0291 1.57611 31.6602 1.34273 30.2291 C 1.10935 28.7979 1.16906 27.3343 1.51826 25.9268 C 1.7832 24.543 2.3206 23.2257 3.09921 22.0513 C 3.87783 20.8769 4.88213 19.869 6.05376 19.086 C 7.22274 18.3006 8.53566 17.7541 9.91684 17.4783 C 11.298 17.2024 12.7202 17.2026 14.1013 17.4787 C 15.4824 17.7549 16.7952 18.3016 17.964 19.0873 C 19.1328 19.8731 20.1345 20.8823 20.9114 22.0569 C 21.7 23.2181 22.2481 24.5253 22.5235 25.9016 C 22.7988 27.2779 22.7957 28.6953 22.5145 30.0704 Z" stroke-linecap="round" />
</g>
		<g transform="matrix(1 0 0 1 -11 6)"  >
<path style="stroke: none; stroke-width: 1; stroke-dasharray: none; stroke-linecap: butt; stroke-dashoffset: 0; stroke-linejoin: miter; stroke-miterlimit: 4; fill: rgb(164,159,218); fill-rule: nonzero; opacity: 1;" vector-effect="non-scaling-stroke"  transform=" translate(-12, -28)" d="M 18.9565 23.3483 C 17.7253 21.5051 15.8128 20.2258 13.639 19.7911 C 13.096 19.7003 12.5472 19.648 11.9968 19.6348 C 9.91836 19.6365 7.91494 20.4117 6.37673 21.8092 C 4.83852 23.2067 3.87563 25.1266 3.67558 27.1949 C 3.47553 29.2633 4.05264 31.332 5.29452 32.9983 C 6.5364 34.6646 8.35414 35.8091 10.3938 36.209 C 10.9368 36.2999 11.4855 36.3521 12.0359 36.3654 C 13.6773 36.3502 15.2793 35.8616 16.6496 34.9581 C 17.564 34.3477 18.3491 33.563 18.96 32.649 C 19.5709 31.7349 19.9956 30.7095 20.2099 29.6313 C 20.4241 28.553 20.4237 27.4432 20.2086 26.3651 C 19.9936 25.287 19.5681 24.2619 18.9565 23.3483 Z M 19.6994 29.5246 C 19.3933 31.0375 18.6461 32.4259 17.5521 33.515 C 16.458 34.604 15.066 35.3449 13.5514 35.6443 C 12.0369 35.9437 10.4676 35.7881 9.04132 35.1973 C 7.61504 34.6064 6.39563 33.6067 5.53674 32.3241 C 4.67784 31.0415 4.21792 29.5334 4.21493 27.9899 C 4.21193 26.4463 4.66601 24.9365 5.51992 23.6506 C 6.37383 22.3646 7.58937 21.3602 9.01334 20.7638 C 10.4373 20.1674 12.006 20.0058 13.5217 20.2993 C 15.5585 20.7147 17.3494 21.9163 18.5059 23.6433 C 19.6624 25.3703 20.0912 27.4835 19.6994 29.5246 Z" stroke-linecap="round" />
</g>
		<g transform="matrix(1 0 0 1 -11.01 6.01)"  >
<path style="stroke: none; stroke-width: 1; stroke-dasharray: none; stroke-linecap: butt; stroke-dashoffset: 0; stroke-linejoin: miter; stroke-miterlimit: 4; fill: rgb(200,197,233); fill-rule: nonzero; opacity: 1;" vector-effect="non-scaling-stroke"  transform=" translate(-11.99, -28.01)" d="M 13.5208 20.2994 C 11.9957 19.9961 10.415 20.152 8.97855 20.7473 C 7.54212 21.3425 6.3146 22.3505 5.45133 23.6434 C 4.58806 24.9364 4.12784 26.4564 4.12891 28.011 C 4.12998 29.5656 4.59229 31.0849 5.45734 32.3767 C 6.32239 33.6685 7.55129 34.6747 8.98853 35.268 C 10.4258 35.8613 12.0068 36.015 13.5314 35.7097 C 15.0561 35.4043 16.4558 34.6537 17.5536 33.5527 C 18.6514 32.4517 19.3978 31.0499 19.6985 29.5247 C 19.9031 28.5131 19.9054 27.4709 19.7052 26.4584 C 19.5049 25.4459 19.1062 24.4831 18.5319 23.6254 C 17.9575 22.7678 17.219 22.0323 16.359 21.4614 C 15.4989 20.8906 14.5343 20.4956 13.5208 20.2994 Z M 12.8952 24.1693 C 13.1858 24.0359 13.5173 24.0227 13.8175 24.1325 C 14.1178 24.2423 14.3624 24.4663 14.4983 24.7557 C 14.6171 25.0465 14.6183 25.3722 14.5016 25.6639 C 14.3849 25.9556 14.1594 26.1906 13.8727 26.3193 C 13.5822 26.4527 13.2507 26.4659 12.9504 26.3561 C 12.6502 26.2462 12.4055 26.0223 12.2696 25.7329 C 12.2055 25.5895 12.1709 25.4347 12.1677 25.2777 C 12.1646 25.1206 12.193 24.9646 12.2514 24.8187 C 12.3097 24.6729 12.3968 24.5402 12.5074 24.4287 C 12.618 24.3171 12.7499 24.2289 12.8952 24.1693 Z M 9.8455 24.1693 C 10.136 24.0359 10.4675 24.0227 10.7678 24.1325 C 11.068 24.2423 11.3127 24.4663 11.4486 24.7557 C 11.5127 24.8991 11.5473 25.0539 11.5505 25.2109 C 11.5536 25.3679 11.5252 25.524 11.4668 25.6699 C 11.4085 25.8157 11.3214 25.9483 11.2108 26.0599 C 11.1002 26.1714 10.9683 26.2597 10.823 26.3193 C 10.5324 26.4527 10.2009 26.4659 9.90069 26.3561 C 9.60044 26.2462 9.35575 26.0223 9.21991 25.7329 C 9.10109 25.4421 9.09992 25.1164 9.21663 24.8247 C 9.33334 24.533 9.55882 24.298 9.8455 24.1693 Z M 7.18675 27.7656 C 7.07761 27.4739 7.08124 27.152 7.19694 26.8628 C 7.31264 26.5736 7.53208 26.338 7.81234 26.202 C 7.95529 26.1305 8.11134 26.0889 8.27094 26.0798 C 8.43054 26.0708 8.5903 26.0944 8.74043 26.1493 C 8.89055 26.2042 9.02786 26.2893 9.14394 26.3991 C 9.26001 26.509 9.35239 26.6415 9.4154 26.7884 C 9.47953 26.9317 9.51419 27.0866 9.51733 27.2436 C 9.52046 27.4006 9.49202 27.5567 9.43367 27.7026 C 9.37532 27.8484 9.28826 27.981 9.17766 28.0926 C 9.06706 28.2041 8.93517 28.2923 8.78982 28.352 C 8.49928 28.4854 8.16778 28.4986 7.86753 28.3888 C 7.56728 28.2789 7.3226 28.055 7.18675 27.7656 Z M 11.8786 32.1437 C 10.041 32.1437 8.51612 31.2056 8.51612 30.0719 C 8.51612 28.9383 9.21991 28.6256 10.1974 28.2738 C 10.2807 27.8899 10.4929 27.5461 10.7988 27.2995 C 11.1046 27.0529 11.4857 26.9184 11.8786 26.9184 C 12.2716 26.9184 12.6527 27.0529 12.9585 27.2995 C 13.2644 27.5461 13.4766 27.8899 13.5599 28.2738 C 14.5374 28.6256 15.2412 29.2901 15.2412 30.0719 C 15.2412 30.8537 13.7163 32.1437 11.8786 32.1437 Z M 16.1014 28.352 C 15.8108 28.4854 15.4793 28.4986 15.1791 28.3888 C 14.8788 28.2789 14.6341 28.055 14.4983 27.7656 C 14.3795 27.4747 14.3783 27.1491 14.495 26.8574 C 14.6117 26.5657 14.8372 26.3307 15.1239 26.202 C 15.2668 26.1305 15.4229 26.0889 15.5825 26.0798 C 15.7421 26.0708 15.9018 26.0944 16.052 26.1493 C 16.2021 26.2042 16.3394 26.2893 16.4555 26.3991 C 16.5715 26.509 16.6639 26.6415 16.7269 26.7884 C 16.8457 27.0792 16.8469 27.4048 16.7302 27.6966 C 16.6135 27.9883 16.388 28.2233 16.1014 28.352 Z" stroke-linecap="round" />
</g>
		<g transform="matrix(1 0 0 1 -11.12 7.53)"  >
<path style="stroke: none; stroke-width: 1; stroke-dasharray: none; stroke-linecap: butt; stroke-dashoffset: 0; stroke-linejoin: miter; stroke-miterlimit: 4; fill: rgb(164,159,218); fill-rule: nonzero; opacity: 1;" vector-effect="non-scaling-stroke"  transform=" translate(-11.88, -29.53)" d="M 15.2407 30.0715 C 15.2407 31.2051 13.7158 32.1433 11.8782 32.1433 C 10.0405 32.1433 8.51562 31.2051 8.51562 30.0715 C 8.51562 28.9379 9.21941 28.6251 10.1969 28.2733 C 10.2802 27.8894 10.4924 27.5456 10.7983 27.299 C 11.1041 27.0524 11.4852 26.918 11.8782 26.918 C 12.2711 26.918 12.6522 27.0524 12.958 27.299 C 13.2639 27.5456 13.4761 27.8894 13.5594 28.2733 C 14.5369 28.6251 15.2407 29.2897 15.2407 30.0715 Z" stroke-linecap="round" />
</g>
		<g transform="matrix(1 0 0 1 -14.69 5.27)"  >
<path style="stroke: none; stroke-width: 1; stroke-dasharray: none; stroke-linecap: butt; stroke-dashoffset: 0; stroke-linejoin: miter; stroke-miterlimit: 4; fill: rgb(164,159,218); fill-rule: nonzero; opacity: 1;" vector-effect="non-scaling-stroke"  transform=" translate(-8.31, -27.27)" d="M 8.78979 28.3521 C 8.49925 28.4855 8.16776 28.4988 7.8675 28.389 C 7.56725 28.2791 7.32257 28.0551 7.18672 27.7658 C 7.07758 27.4741 7.08121 27.1522 7.19691 26.863 C 7.31261 26.5738 7.53205 26.3382 7.81231 26.2022 C 7.95526 26.1306 8.11131 26.0891 8.27091 26.08 C 8.43051 26.071 8.59027 26.0946 8.7404 26.1495 C 8.89052 26.2044 9.02783 26.2894 9.14391 26.3993 C 9.25998 26.5092 9.35236 26.6417 9.41537 26.7885 C 9.4795 26.9319 9.51416 27.0867 9.5173 27.2438 C 9.52043 27.4008 9.49199 27.5569 9.43364 27.7027 C 9.37529 27.8486 9.28823 27.9812 9.17763 28.0928 C 9.06703 28.2043 8.93514 28.2925 8.78979 28.3521 Z" stroke-linecap="round" />
</g>
		<g transform="matrix(1 0 0 1 -7.39 5.27)"  >
<path style="stroke: none; stroke-width: 1; stroke-dasharray: none; stroke-linecap: butt; stroke-dashoffset: 0; stroke-linejoin: miter; stroke-miterlimit: 4; fill: rgb(164,159,218); fill-rule: nonzero; opacity: 1;" vector-effect="non-scaling-stroke"  transform=" translate(-15.61, -27.27)" d="M 16.1012 28.3521 C 15.8107 28.4855 15.4792 28.4988 15.179 28.389 C 14.8787 28.2791 14.634 28.0551 14.4982 27.7658 C 14.3794 27.4749 14.3782 27.1493 14.4949 26.8576 C 14.6116 26.5659 14.8371 26.3309 15.1238 26.2022 C 15.2667 26.1306 15.4228 26.0891 15.5824 26.08 C 15.742 26.071 15.9017 26.0946 16.0519 26.1495 C 16.202 26.2044 16.3393 26.2894 16.4554 26.3993 C 16.5714 26.5092 16.6638 26.6417 16.7268 26.7885 C 16.8456 27.0794 16.8468 27.405 16.7301 27.6967 C 16.6134 27.9885 16.3879 28.2234 16.1012 28.3521 Z" stroke-linecap="round" />
</g>
		<g transform="matrix(1 0 0 1 -9.62 3.24)"  >
<path style="stroke: none; stroke-width: 1; stroke-dasharray: none; stroke-linecap: butt; stroke-dashoffset: 0; stroke-linejoin: miter; stroke-miterlimit: 4; fill: rgb(164,159,218); fill-rule: nonzero; opacity: 1;" vector-effect="non-scaling-stroke"  transform=" translate(-13.38, -25.24)" d="M 13.8732 26.3191 C 13.5827 26.4525 13.2512 26.4657 12.9509 26.3559 C 12.6507 26.2461 12.406 26.0221 12.2701 25.7328 C 12.206 25.5894 12.1713 25.4346 12.1682 25.2775 C 12.1651 25.1205 12.1935 24.9644 12.2519 24.8186 C 12.3102 24.6727 12.3973 24.5401 12.5079 24.4285 C 12.6185 24.317 12.7504 24.2288 12.8957 24.1692 C 13.1863 24.0358 13.5177 24.0225 13.818 24.1324 C 14.1182 24.2422 14.3629 24.4662 14.4988 24.7555 C 14.6176 25.0464 14.6188 25.372 14.5021 25.6637 C 14.3853 25.9554 14.1599 26.1904 13.8732 26.3191 Z" stroke-linecap="round" />
</g>
		<g transform="matrix(1 0 0 1 -12.66 3.24)"  >
<path style="stroke: none; stroke-width: 1; stroke-dasharray: none; stroke-linecap: butt; stroke-dashoffset: 0; stroke-linejoin: miter; stroke-miterlimit: 4; fill: rgb(164,159,218); fill-rule: nonzero; opacity: 1;" vector-effect="non-scaling-stroke"  transform=" translate(-10.34, -25.24)" d="M 10.8239 26.3191 C 10.5334 26.4525 10.2019 26.4657 9.90161 26.3559 C 9.60136 26.2461 9.35667 26.0221 9.22083 25.7328 C 9.10201 25.4419 9.10084 25.1163 9.21755 24.8246 C 9.33426 24.5329 9.55974 24.2979 9.84641 24.1692 C 10.137 24.0358 10.4684 24.0225 10.7687 24.1324 C 11.0689 24.2422 11.3136 24.4662 11.4495 24.7555 C 11.5136 24.8989 11.5483 25.0537 11.5514 25.2108 C 11.5545 25.3678 11.5261 25.5239 11.4677 25.6697 C 11.4094 25.8156 11.3223 25.9482 11.2117 26.0597 C 11.1011 26.1713 10.9692 26.2595 10.8239 26.3191 Z" stroke-linecap="round" />
</g>
		<g transform="matrix(1 0 0 1 15.5 14.5)"  >
<path style="stroke: none; stroke-width: 1; stroke-dasharray: none; stroke-linecap: butt; stroke-dashoffset: 0; stroke-linejoin: miter; stroke-miterlimit: 4; fill: rgb(164,159,218); fill-rule: nonzero; opacity: 1;" vector-effect="non-scaling-stroke"  transform=" translate(-38.5, -36.5)" d="M 46 36.0354 C 45.909 34.7076 45.4708 33.427 44.7293 32.3218 C 44.1829 31.5044 43.4805 30.8028 42.6625 30.2571 C 41.8445 29.7115 40.9269 29.3325 39.9622 29.1419 C 38.9975 28.9513 38.0047 28.9527 37.0406 29.1462 C 36.0764 29.3397 35.1599 29.7215 34.3436 30.2695 C 33.5242 30.812 32.8186 31.5091 32.2664 32.3218 C 31.7233 33.1464 31.3418 34.0667 31.1423 35.0337 C 30.7571 36.9895 31.1612 39.0183 32.2664 40.6773 C 32.8158 41.4964 33.5218 42.1987 34.3439 42.7438 C 35.1659 43.2889 36.0876 43.666 37.0561 43.8534 C 37.514 43.9505 37.9809 43.9996 38.449 44 L 38.5223 44 L 39.2554 43.9511 C 40.4787 43.8303 41.6535 43.4108 42.6766 42.7296 L 43.2386 42.3142 C 43.3472 42.2373 43.4458 42.147 43.5319 42.0455 C 43.6574 41.9526 43.7721 41.8461 43.874 41.7279 L 43.9962 41.6301 C 44.9401 40.6023 45.5826 39.3343 45.8534 37.9654 C 45.9247 37.5941 45.9736 37.2188 46 36.8416 L 46 36.0354 Z M 45.0714 37.7944 C 44.939 38.691 44.6258 39.5513 44.1509 40.3233 C 43.676 41.0953 43.0493 41.7628 42.3087 42.2854 C 41.5681 42.8081 40.7291 43.1749 39.8425 43.3637 C 38.9559 43.5525 38.0402 43.5594 37.1509 43.3839 C 36.2615 43.2084 35.4171 42.8542 34.6687 42.3427 C 33.9204 41.8312 33.2837 41.1732 32.7973 40.4084 C 32.3109 39.6436 31.9849 38.7881 31.839 37.8936 C 31.6932 36.9991 31.7305 36.0843 31.9488 35.2047 C 32.1143 34.3398 32.4502 33.5165 32.9368 32.7825 C 33.4235 32.0485 34.0512 31.4185 34.7834 30.9292 C 35.5141 30.4383 36.3346 30.0967 37.1979 29.9243 C 38.0611 29.7519 38.9499 29.752 39.8131 29.9246 C 40.6763 30.0972 41.4968 30.4389 42.2274 30.93 C 42.9579 31.4211 43.5839 32.0519 44.0695 32.786 C 44.5624 33.5117 44.9049 34.3287 45.077 35.1889 C 45.2491 36.0491 45.2472 36.935 45.0714 37.7944 Z" stroke-linecap="round" />
</g>
		<g transform="matrix(1 0 0 1 15.48 14.65)"  >
<path style="stroke: none; stroke-width: 1; stroke-dasharray: none; stroke-linecap: butt; stroke-dashoffset: 0; stroke-linejoin: miter; stroke-miterlimit: 4; fill: rgb(200,197,233); fill-rule: nonzero; opacity: 1;" vector-effect="non-scaling-stroke"  transform=" translate(-38.48, -36.65)" d="M 45.0716 37.7943 C 44.9391 38.6908 44.626 39.5512 44.1511 40.3231 C 43.6762 41.0951 43.0495 41.7626 42.3089 42.2853 C 41.5683 42.8079 40.7293 43.1747 39.8427 43.3636 C 38.9561 43.5524 38.0403 43.5592 37.151 43.3837 C 36.2617 43.2082 35.4172 42.854 34.6689 42.3425 C 33.9206 41.831 33.2839 41.173 32.7975 40.4082 C 32.3111 39.6434 31.9851 38.7879 31.8392 37.8934 C 31.6933 36.9989 31.7307 36.0842 31.9489 35.2045 C 32.1145 34.3396 32.4504 33.5163 32.937 32.7823 C 33.4236 32.0483 34.0513 31.4184 34.7836 30.929 C 35.5142 30.4381 36.3348 30.0966 37.198 29.9242 C 38.0613 29.7517 38.9501 29.7518 39.8133 29.9244 C 40.6765 30.097 41.497 30.4387 42.2275 30.9298 C 42.958 31.4209 43.5841 32.0517 44.0696 32.7858 C 44.5625 33.5115 44.9051 34.3286 45.0772 35.1887 C 45.2492 36.0489 45.2473 36.9348 45.0716 37.7943 Z" stroke-linecap="round" />
</g>
		<g transform="matrix(1 0 0 1 15.5 14.5)"  >
<path style="stroke: none; stroke-width: 1; stroke-dasharray: none; stroke-linecap: butt; stroke-dashoffset: 0; stroke-linejoin: miter; stroke-miterlimit: 4; fill: rgb(164,159,218); fill-rule: nonzero; opacity: 1;" vector-effect="non-scaling-stroke"  transform=" translate(-38.5, -36.5)" d="M 42.8483 33.5925 C 42.0788 32.4405 40.8835 31.6409 39.5249 31.3692 C 39.1855 31.3124 38.8425 31.2798 38.4985 31.2715 C 37.1995 31.2726 35.9473 31.757 34.9859 32.6305 C 34.0246 33.5039 33.4228 34.7039 33.2977 35.9966 C 33.1727 37.2893 33.5334 38.5823 34.3096 39.6237 C 35.0857 40.6651 36.2218 41.3805 37.4966 41.6304 C 37.836 41.6872 38.1789 41.7198 38.5229 41.7281 C 39.5488 41.7187 40.5501 41.4132 41.4065 40.8486 C 41.978 40.467 42.4687 39.9766 42.8505 39.4054 C 43.2323 38.8341 43.4978 38.1932 43.6317 37.5193 C 43.7656 36.8454 43.7653 36.1517 43.6309 35.4779 C 43.4965 34.8041 43.2305 34.1634 42.8483 33.5925 Z M 43.3126 37.4526 C 43.1213 38.3982 42.6543 39.266 41.9705 39.9466 C 41.2867 40.6273 40.4167 41.0903 39.4701 41.2774 C 38.5235 41.4646 37.5427 41.3673 36.6513 40.9981 C 35.7599 40.6288 34.9978 40.0039 34.4609 39.2023 C 33.9241 38.4007 33.6367 37.4581 33.6348 36.4934 C 33.6329 35.5287 33.9167 34.5851 34.4504 33.7814 C 34.9841 32.9776 35.7438 32.3499 36.6338 31.9771 C 37.5238 31.6044 38.5042 31.5034 39.4515 31.6868 C 40.7246 31.9465 41.8439 32.6974 42.5667 33.7768 C 43.2895 34.8562 43.5575 36.177 43.3126 37.4526 Z" stroke-linecap="round" />
</g>
		<g transform="matrix(1 0 0 1 15.49 14.5)"  >
<path style="stroke: none; stroke-width: 1; stroke-dasharray: none; stroke-linecap: butt; stroke-dashoffset: 0; stroke-linejoin: miter; stroke-miterlimit: 4; fill: rgb(200,197,233); fill-rule: nonzero; opacity: 1;" vector-effect="non-scaling-stroke"  transform=" translate(-38.49, -36.5)" d="M 39.45 31.6861 C 38.4969 31.4966 37.5089 31.594 36.6111 31.9661 C 35.7133 32.3381 34.9461 32.9681 34.4066 33.7762 C 33.867 34.5843 33.5794 35.5343 33.5801 36.5059 C 33.5807 37.4775 33.8697 38.4271 34.4103 39.2345 C 34.951 40.0418 35.7191 40.6707 36.6173 41.0415 C 37.5156 41.4123 38.5037 41.5084 39.4566 41.3176 C 40.4095 41.1267 41.2844 40.6576 41.9705 39.9695 C 42.6566 39.2814 43.1232 38.4052 43.3111 37.4519 C 43.439 36.8197 43.4404 36.1683 43.3152 35.5355 C 43.1901 34.9027 42.9409 34.3009 42.5819 33.7649 C 42.223 33.2289 41.7614 32.7692 41.2239 32.4124 C 40.6863 32.0556 40.0835 31.8088 39.45 31.6861 Z M 39.059 34.1048 C 39.2406 34.0215 39.4478 34.0132 39.6355 34.0818 C 39.8231 34.1505 39.976 34.2905 40.0609 34.4713 C 40.1352 34.6531 40.1359 34.8566 40.063 35.0389 C 39.99 35.2213 39.8491 35.3681 39.67 35.4486 C 39.4884 35.5319 39.2812 35.5402 39.0935 35.4716 C 38.9059 35.4029 38.7529 35.2629 38.668 35.0821 C 38.628 34.9925 38.6063 34.8957 38.6043 34.7976 C 38.6024 34.6994 38.6202 34.6019 38.6566 34.5107 C 38.6931 34.4196 38.7475 34.3367 38.8166 34.267 C 38.8857 34.1972 38.9682 34.1421 39.059 34.1048 Z M 37.1529 34.1048 C 37.3345 34.0215 37.5417 34.0132 37.7294 34.0818 C 37.917 34.1505 38.07 34.2905 38.1549 34.4713 C 38.1949 34.5609 38.2166 34.6577 38.2186 34.7558 C 38.2205 34.854 38.2027 34.9515 38.1663 35.0427 C 38.1298 35.1338 38.0754 35.2167 38.0063 35.2865 C 37.9371 35.3562 37.8547 35.4113 37.7639 35.4486 C 37.5823 35.5319 37.3751 35.5402 37.1874 35.4716 C 36.9998 35.4029 36.8469 35.2629 36.762 35.0821 C 36.6877 34.9003 36.687 34.6968 36.7599 34.5145 C 36.8329 34.3321 36.9738 34.1853 37.1529 34.1048 Z M 35.4912 36.3525 C 35.423 36.1702 35.4253 35.969 35.4976 35.7883 C 35.5699 35.6075 35.7071 35.4603 35.8822 35.3753 C 35.9716 35.3306 36.0691 35.3046 36.1688 35.2989 C 36.2686 35.2933 36.3685 35.308 36.4623 35.3424 C 36.5561 35.3767 36.6419 35.4298 36.7145 35.4985 C 36.787 35.5672 36.8448 35.6499 36.8841 35.7417 C 36.9242 35.8314 36.9459 35.9281 36.9478 36.0263 C 36.9498 36.1244 36.932 36.222 36.8956 36.3131 C 36.8591 36.4043 36.8047 36.4872 36.7355 36.5569 C 36.6664 36.6266 36.584 36.6817 36.4931 36.719 C 36.3116 36.8024 36.1044 36.8106 35.9167 36.742 C 35.7291 36.6734 35.5761 36.5334 35.4912 36.3525 Z M 38.4237 39.0888 C 37.2751 39.0888 36.3221 38.5025 36.3221 37.794 C 36.3221 37.0855 36.762 36.89 37.3729 36.6701 C 37.4249 36.4302 37.5576 36.2153 37.7487 36.0612 C 37.9399 35.9071 38.1781 35.823 38.4237 35.823 C 38.6692 35.823 38.9074 35.9071 39.0986 36.0612 C 39.2898 36.2153 39.4224 36.4302 39.4745 36.6701 C 40.0854 36.89 40.5252 37.3054 40.5252 37.794 C 40.5252 38.2826 39.5722 39.0888 38.4237 39.0888 Z M 41.0629 36.719 C 40.8813 36.8024 40.6741 36.8106 40.4864 36.742 C 40.2988 36.6734 40.1458 36.5334 40.0609 36.3525 C 39.9867 36.1707 39.9859 35.9672 40.0589 35.7849 C 40.1318 35.6026 40.2728 35.4557 40.4519 35.3753 C 40.5413 35.3306 40.6388 35.3046 40.7386 35.2989 C 40.8383 35.2933 40.9382 35.308 41.032 35.3424 C 41.1258 35.3767 41.2116 35.4298 41.2842 35.4985 C 41.3567 35.5672 41.4145 35.6499 41.4538 35.7417 C 41.5281 35.9235 41.5288 36.1271 41.4559 36.3094 C 41.3829 36.4917 41.242 36.6386 41.0629 36.719 Z" stroke-linecap="round" />
</g>
		<g transform="matrix(1 0 0 1 15.43 15.46)"  >
<path style="stroke: none; stroke-width: 1; stroke-dasharray: none; stroke-linecap: butt; stroke-dashoffset: 0; stroke-linejoin: miter; stroke-miterlimit: 4; fill: rgb(164,159,218); fill-rule: nonzero; opacity: 1;" vector-effect="non-scaling-stroke"  transform=" translate(-38.43, -37.46)" d="M 40.5274 37.7952 C 40.5274 38.5037 39.5743 39.09 38.4258 39.09 C 37.2773 39.09 36.3242 38.5037 36.3242 37.7952 C 36.3242 37.0867 36.7641 36.8912 37.375 36.6713 C 37.4271 36.4314 37.5597 36.2165 37.7509 36.0624 C 37.942 35.9083 38.1802 35.8242 38.4258 35.8242 C 38.6714 35.8242 38.9095 35.9083 39.1007 36.0624 C 39.2919 36.2165 39.4245 36.4314 39.4766 36.6713 C 40.0875 36.8912 40.5274 37.3065 40.5274 37.7952 Z" stroke-linecap="round" />
</g>
		<g transform="matrix(1 0 0 1 13.2 14.04)"  >
<path style="stroke: none; stroke-width: 1; stroke-dasharray: none; stroke-linecap: butt; stroke-dashoffset: 0; stroke-linejoin: miter; stroke-miterlimit: 4; fill: rgb(164,159,218); fill-rule: nonzero; opacity: 1;" vector-effect="non-scaling-stroke"  transform=" translate(-36.2, -36.04)" d="M 36.4948 36.7201 C 36.3133 36.8035 36.1061 36.8117 35.9184 36.7431 C 35.7308 36.6745 35.5778 36.5345 35.4929 36.3536 C 35.4247 36.1713 35.427 35.9701 35.4993 35.7894 C 35.5716 35.6086 35.7088 35.4614 35.8839 35.3764 C 35.9733 35.3317 36.0708 35.3057 36.1705 35.3 C 36.2703 35.2943 36.3701 35.3091 36.464 35.3434 C 36.5578 35.3778 36.6436 35.4309 36.7162 35.4996 C 36.7887 35.5683 36.8464 35.651 36.8858 35.7428 C 36.9259 35.8325 36.9476 35.9292 36.9495 36.0274 C 36.9515 36.1255 36.9337 36.2231 36.8972 36.3142 C 36.8608 36.4054 36.8064 36.4883 36.7372 36.558 C 36.6681 36.6277 36.5857 36.6828 36.4948 36.7201 Z" stroke-linecap="round" />
</g>
		<g transform="matrix(1 0 0 1 17.76 14.04)"  >
<path style="stroke: none; stroke-width: 1; stroke-dasharray: none; stroke-linecap: butt; stroke-dashoffset: 0; stroke-linejoin: miter; stroke-miterlimit: 4; fill: rgb(164,159,218); fill-rule: nonzero; opacity: 1;" vector-effect="non-scaling-stroke"  transform=" translate(-40.76, -36.04)" d="M 41.064 36.7201 C 40.8824 36.8035 40.6752 36.8117 40.4876 36.7431 C 40.2999 36.6745 40.147 36.5345 40.0621 36.3536 C 39.9878 36.1718 39.9871 35.9683 40.06 35.786 C 40.133 35.6037 40.2739 35.4568 40.4531 35.3764 C 40.5424 35.3317 40.64 35.3057 40.7397 35.3 C 40.8395 35.2943 40.9393 35.3091 41.0331 35.3434 C 41.127 35.3778 41.2128 35.4309 41.2853 35.4996 C 41.3579 35.5683 41.4156 35.651 41.455 35.7428 C 41.5293 35.9246 41.53 36.1281 41.457 36.3105 C 41.3841 36.4928 41.2432 36.6397 41.064 36.7201 Z" stroke-linecap="round" />
</g>
		<g transform="matrix(1 0 0 1 16.36 12.78)"  >
<path style="stroke: none; stroke-width: 1; stroke-dasharray: none; stroke-linecap: butt; stroke-dashoffset: 0; stroke-linejoin: miter; stroke-miterlimit: 4; fill: rgb(164,159,218); fill-rule: nonzero; opacity: 1;" vector-effect="non-scaling-stroke"  transform=" translate(-39.36, -34.78)" d="M 39.6712 35.4499 C 39.4896 35.5333 39.2825 35.5416 39.0948 35.4729 C 38.9071 35.4043 38.7542 35.2643 38.6693 35.0835 C 38.6292 34.9939 38.6076 34.8971 38.6056 34.7989 C 38.6037 34.7008 38.6214 34.6032 38.6579 34.5121 C 38.6944 34.421 38.7488 34.3381 38.8179 34.2683 C 38.887 34.1986 38.9695 34.1435 39.0603 34.1062 C 39.2419 34.0228 39.4491 34.0146 39.6367 34.0832 C 39.8244 34.1519 39.9773 34.2918 40.0622 34.4727 C 40.1365 34.6545 40.1372 34.858 40.0643 35.0403 C 39.9913 35.2226 39.8504 35.3695 39.6712 35.4499 Z" stroke-linecap="round" />
</g>
		<g transform="matrix(1 0 0 1 14.46 12.78)"  >
<path style="stroke: none; stroke-width: 1; stroke-dasharray: none; stroke-linecap: butt; stroke-dashoffset: 0; stroke-linejoin: miter; stroke-miterlimit: 4; fill: rgb(164,159,218); fill-rule: nonzero; opacity: 1;" vector-effect="non-scaling-stroke"  transform=" translate(-37.46, -34.78)" d="M 37.7652 35.4499 C 37.5836 35.5333 37.3764 35.5416 37.1887 35.4729 C 37.0011 35.4043 36.8482 35.2643 36.7633 35.0835 C 36.689 34.9017 36.6883 34.6982 36.7612 34.5158 C 36.8342 34.3335 36.9751 34.1867 37.1543 34.1062 C 37.3358 34.0228 37.543 34.0146 37.7307 34.0832 C 37.9183 34.1519 38.0713 34.2918 38.1562 34.4727 C 38.1962 34.5623 38.2179 34.6591 38.2199 34.7572 C 38.2218 34.8554 38.2041 34.9529 38.1676 35.0441 C 38.1311 35.1352 38.0767 35.2181 38.0076 35.2878 C 37.9385 35.3576 37.856 35.4127 37.7652 35.4499 Z" stroke-linecap="round" />
</g>
</g>
</g>
<g transform="matrix(1.57 0 0 1.57 36 36)"  >
<g style=""   >
		<g transform="matrix(1 0 0 1 3 -10)"  >
<path style="stroke: none; stroke-width: 1; stroke-dasharray: none; stroke-linecap: butt; stroke-dashoffset: 0; stroke-linejoin: miter; stroke-miterlimit: 4; fill: rgb(164,159,218); fill-rule: nonzero; opacity: 1;" vector-effect="non-scaling-stroke"  transform=" translate(-26, -12)" d="M 38 11.2566 C 37.8545 9.13216 37.1534 7.08323 35.9668 5.31485 C 35.0926 4.00705 33.9689 2.88448 32.6601 2.01144 C 31.3512 1.13839 29.8831 0.532009 28.3395 0.227006 C 26.796 -0.0779962 25.2075 -0.0756281 23.6649 0.233973 C 22.1223 0.543574 20.6559 1.15433 19.3497 2.03127 C 18.0388 2.89916 16.9098 4.01454 16.0263 5.31485 C 15.1573 6.63424 14.5469 8.10669 14.2277 9.65387 C 13.6113 12.7832 14.2579 16.0292 16.0263 18.6837 C 16.9053 19.9942 18.0349 21.1179 19.3502 21.9901 C 20.6654 22.8622 22.1402 23.4656 23.6897 23.7655 C 24.4225 23.9207 25.1694 23.9994 25.9184 24 L 26.0357 24 L 27.2086 23.9218 C 29.1659 23.7285 31.0456 23.0573 32.6825 21.9673 L 33.5818 21.3028 C 33.7556 21.1797 33.9132 21.0352 34.051 20.8728 C 34.2518 20.7242 34.4354 20.5538 34.5984 20.3646 L 34.7939 20.2082 C 36.3041 18.5636 37.3322 16.5349 37.7654 14.3447 C 37.8795 13.7505 37.9578 13.1501 38 12.5466 L 38 11.2566 Z M 36.5142 14.0711 C 36.3023 15.5056 35.8013 16.8821 35.0415 18.1173 C 34.2817 19.3524 33.2789 20.4205 32.094 21.2567 C 30.909 22.0929 29.5666 22.6798 28.148 22.982 C 26.7294 23.2841 25.2643 23.295 23.8414 23.0142 C 22.4184 22.7334 21.0673 22.1666 19.87 21.3483 C 18.6726 20.5299 17.654 19.477 16.8757 18.2534 C 16.0975 17.0298 15.5759 15.6609 15.3425 14.2297 C 15.1091 12.7986 15.1688 11.3349 15.518 9.92751 C 15.783 8.54369 16.3203 7.22632 17.099 6.05196 C 17.8776 4.87759 18.8819 3.86965 20.0535 3.08671 C 21.2225 2.30121 22.5354 1.75479 23.9166 1.47893 C 25.2978 1.20307 26.7199 1.20322 28.101 1.47938 C 29.4822 1.75554 30.795 2.30225 31.9638 3.088 C 33.1326 3.87374 34.1343 4.88299 34.9112 6.05757 C 35.6998 7.21873 36.2479 8.52597 36.5232 9.90225 C 36.7985 11.2785 36.7955 12.696 36.5142 14.0711 Z" stroke-linecap="round" />
</g>
		<g transform="matrix(1 0 0 1 2.97 -9.76)"  >
<path style="stroke: none; stroke-width: 1; stroke-dasharray: none; stroke-linecap: butt; stroke-dashoffset: 0; stroke-linejoin: miter; stroke-miterlimit: 4; fill: rgb(200,197,233); fill-rule: nonzero; opacity: 1;" vector-effect="non-scaling-stroke"  transform=" translate(-25.97, -12.24)" d="M 36.5145 14.0704 C 36.3026 15.5049 35.8015 16.8815 35.0417 18.1166 C 34.2819 19.3518 33.2791 20.4198 32.0942 21.256 C 30.9093 22.0922 29.5668 22.6792 28.1483 22.9813 C 26.7297 23.2834 25.2645 23.2944 23.8416 23.0136 C 22.4187 22.7327 21.0676 22.166 19.8702 21.3476 C 18.6729 20.5293 17.6542 19.4764 16.876 18.2528 C 16.0977 17.0291 15.5761 15.6602 15.3427 14.2291 C 15.1093 12.7979 15.1691 11.3343 15.5183 9.92684 C 15.7832 8.54303 16.3206 7.22566 17.0992 6.0513 C 17.8778 4.87693 18.8821 3.86899 20.0538 3.08605 C 21.2227 2.30055 22.5357 1.75413 23.9168 1.47827 C 25.298 1.2024 26.7202 1.20256 28.1013 1.47872 C 29.4824 1.75488 30.7952 2.30159 31.964 3.08734 C 33.1328 3.87308 34.1345 4.88233 34.9114 6.0569 C 35.7 7.21806 36.2481 8.52531 36.5235 9.90159 C 36.7988 11.2779 36.7957 12.6953 36.5145 14.0704 Z" stroke-linecap="round" />
</g>
		<g transform="matrix(1 0 0 1 3 -10)"  >
<path style="stroke: none; stroke-width: 1; stroke-dasharray: none; stroke-linecap: butt; stroke-dashoffset: 0; stroke-linejoin: miter; stroke-miterlimit: 4; fill: rgb(164,159,218); fill-rule: nonzero; opacity: 1;" vector-effect="non-scaling-stroke"  transform=" translate(-26, -12)" d="M 32.9565 7.34834 C 31.7253 5.50515 29.8128 4.22577 27.639 3.79113 C 27.096 3.70028 26.5472 3.64803 25.9968 3.63477 C 23.9184 3.63653 21.9149 4.41165 20.3767 5.80917 C 18.8385 7.2067 17.8756 9.12657 17.6756 11.1949 C 17.4755 13.2633 18.0526 15.332 19.2945 16.9983 C 20.5364 18.6646 22.3541 19.8091 24.3938 20.209 C 24.9368 20.2999 25.4855 20.3521 26.0359 20.3654 C 27.6773 20.3502 29.2793 19.8616 30.6496 18.9581 C 31.564 18.3477 32.3491 17.563 32.96 16.649 C 33.5709 15.7349 33.9956 14.7095 34.2099 13.6313 C 34.4241 12.553 34.4237 11.4432 34.2086 10.3651 C 33.9936 9.28701 33.5681 8.2619 32.9565 7.34834 Z M 33.6994 13.5246 C 33.3933 15.0375 32.6461 16.4259 31.5521 17.515 C 30.458 18.604 29.066 19.3449 27.5514 19.6443 C 26.0369 19.9437 24.4676 19.7881 23.0413 19.1973 C 21.615 18.6064 20.3956 17.6067 19.5367 16.3241 C 18.6778 15.0415 18.2179 13.5334 18.2149 11.9899 C 18.2119 10.4463 18.666 8.93648 19.5199 7.65055 C 20.3738 6.36462 21.5894 5.36018 23.0133 4.7638 C 24.4373 4.16742 26.006 4.0058 27.5217 4.2993 C 29.5585 4.71475 31.3494 5.91629 32.5059 7.6433 C 33.6624 9.37031 34.0912 11.4835 33.6994 13.5246 Z" stroke-linecap="round" />
</g>
		<g transform="matrix(1 0 0 1 2.99 -9.99)"  >
<path style="stroke: none; stroke-width: 1; stroke-dasharray: none; stroke-linecap: butt; stroke-dashoffset: 0; stroke-linejoin: miter; stroke-miterlimit: 4; fill: rgb(200,197,233); fill-rule: nonzero; opacity: 1;" vector-effect="non-scaling-stroke"  transform=" translate(-25.99, -12.01)" d="M 27.5208 4.29937 C 25.9957 3.99613 24.415 4.15201 22.9786 4.74728 C 21.5421 5.34255 20.3146 6.35045 19.4513 7.64345 C 18.5881 8.93644 18.1278 10.4564 18.1289 12.011 C 18.13 13.5656 18.5923 15.0849 19.4573 16.3767 C 20.3224 17.6685 21.5513 18.6747 22.9885 19.268 C 24.4258 19.8613 26.0068 20.015 27.5314 19.7097 C 29.0561 19.4043 30.4558 18.6537 31.5536 17.5527 C 32.6514 16.4517 33.3978 15.0499 33.6985 13.5247 C 33.9031 12.5131 33.9054 11.4709 33.7052 10.4584 C 33.5049 9.4459 33.1062 8.48306 32.5319 7.62541 C 31.9575 6.76776 31.219 6.03229 30.359 5.46144 C 29.4989 4.89058 28.5343 4.49563 27.5208 4.29937 Z M 26.8952 8.16931 C 27.1858 8.03591 27.5173 8.02268 27.8175 8.13251 C 28.1178 8.24233 28.3624 8.46631 28.4983 8.75566 C 28.6171 9.04653 28.6183 9.37215 28.5016 9.66387 C 28.3849 9.95558 28.1594 10.1906 27.8727 10.3193 C 27.5822 10.4527 27.2507 10.4659 26.9504 10.3561 C 26.6502 10.2462 26.4055 10.0223 26.2696 9.73292 C 26.2055 9.58953 26.1709 9.43471 26.1677 9.27767 C 26.1646 9.12063 26.193 8.96456 26.2514 8.81872 C 26.3097 8.67288 26.3968 8.54025 26.5074 8.42869 C 26.618 8.31713 26.7499 8.22893 26.8952 8.16931 Z M 23.8455 8.16931 C 24.136 8.03591 24.4675 8.02268 24.7678 8.13251 C 25.068 8.24233 25.3127 8.46631 25.4486 8.75566 C 25.5127 8.89906 25.5473 9.05387 25.5505 9.21091 C 25.5536 9.36795 25.5252 9.52402 25.4668 9.66986 C 25.4085 9.8157 25.3214 9.94833 25.2108 10.0599 C 25.1002 10.1714 24.9683 10.2597 24.823 10.3193 C 24.5324 10.4527 24.2009 10.4659 23.9007 10.3561 C 23.6004 10.2462 23.3557 10.0223 23.2199 9.73292 C 23.1011 9.44206 23.0999 9.11642 23.2166 8.82471 C 23.3333 8.533 23.5588 8.29801 23.8455 8.16931 Z M 21.1868 11.7656 C 21.0776 11.4739 21.0812 11.152 21.1969 10.8628 C 21.3126 10.5736 21.5321 10.338 21.8123 10.202 C 21.9553 10.1305 22.1113 10.0889 22.2709 10.0798 C 22.4305 10.0708 22.5903 10.0944 22.7404 10.1493 C 22.8906 10.2042 23.0279 10.2893 23.1439 10.3991 C 23.26 10.509 23.3524 10.6415 23.4154 10.7884 C 23.4795 10.9317 23.5142 11.0866 23.5173 11.2436 C 23.5205 11.4006 23.492 11.5567 23.4337 11.7026 C 23.3753 11.8484 23.2883 11.981 23.1777 12.0926 C 23.0671 12.2041 22.9352 12.2923 22.7898 12.352 C 22.4993 12.4854 22.1678 12.4986 21.8675 12.3888 C 21.5673 12.2789 21.3226 12.055 21.1868 11.7656 Z M 25.8786 16.1437 C 24.041 16.1437 22.5161 15.2056 22.5161 14.0719 C 22.5161 12.9383 23.2199 12.6256 24.1974 12.2738 C 24.2807 11.8899 24.4929 11.5461 24.7988 11.2995 C 25.1046 11.0529 25.4857 10.9184 25.8786 10.9184 C 26.2716 10.9184 26.6527 11.0529 26.9585 11.2995 C 27.2644 11.5461 27.4766 11.8899 27.5599 12.2738 C 28.5374 12.6256 29.2412 13.2901 29.2412 14.0719 C 29.2412 14.8537 27.7163 16.1437 25.8786 16.1437 Z M 30.1014 12.352 C 29.8108 12.4854 29.4793 12.4986 29.1791 12.3888 C 28.8788 12.2789 28.6341 12.055 28.4983 11.7656 C 28.3795 11.4747 28.3783 11.1491 28.495 10.8574 C 28.6117 10.5657 28.8372 10.3307 29.1239 10.202 C 29.2668 10.1305 29.4229 10.0889 29.5825 10.0798 C 29.7421 10.0708 29.9018 10.0944 30.052 10.1493 C 30.2021 10.2042 30.3394 10.2893 30.4555 10.3991 C 30.5715 10.509 30.6639 10.6415 30.7269 10.7884 C 30.8457 11.0792 30.8469 11.4048 30.7302 11.6966 C 30.6135 11.9883 30.388 12.2233 30.1014 12.352 Z" stroke-linecap="round" />
</g>
		<g transform="matrix(1 0 0 1 2.88 -8.47)"  >
<path style="stroke: none; stroke-width: 1; stroke-dasharray: none; stroke-linecap: butt; stroke-dashoffset: 0; stroke-linejoin: miter; stroke-miterlimit: 4; fill: rgb(164,159,218); fill-rule: nonzero; opacity: 1;" vector-effect="non-scaling-stroke"  transform=" translate(-25.88, -13.53)" d="M 29.2407 14.0715 C 29.2407 15.2051 27.7158 16.1433 25.8782 16.1433 C 24.0405 16.1433 22.5156 15.2051 22.5156 14.0715 C 22.5156 12.9379 23.2194 12.6251 24.1969 12.2733 C 24.2802 11.8894 24.4924 11.5456 24.7983 11.299 C 25.1041 11.0524 25.4852 10.918 25.8782 10.918 C 26.2711 10.918 26.6522 11.0524 26.958 11.299 C 27.2639 11.5456 27.4761 11.8894 27.5594 12.2733 C 28.5369 12.6251 29.2407 13.2897 29.2407 14.0715 Z" stroke-linecap="round" />
</g>
		<g transform="matrix(1 0 0 1 -0.69 -10.73)"  >
<path style="stroke: none; stroke-width: 1; stroke-dasharray: none; stroke-linecap: butt; stroke-dashoffset: 0; stroke-linejoin: miter; stroke-miterlimit: 4; fill: rgb(164,159,218); fill-rule: nonzero; opacity: 1;" vector-effect="non-scaling-stroke"  transform=" translate(-22.31, -11.27)" d="M 22.7898 12.3521 C 22.4992 12.4855 22.1678 12.4988 21.8675 12.389 C 21.5673 12.2791 21.3226 12.0551 21.1867 11.7658 C 21.0776 11.4741 21.0812 11.1522 21.1969 10.863 C 21.3126 10.5738 21.5321 10.3382 21.8123 10.2022 C 21.9553 10.1306 22.1113 10.0891 22.2709 10.08 C 22.4305 10.071 22.5903 10.0946 22.7404 10.1495 C 22.8905 10.2044 23.0278 10.2894 23.1439 10.3993 C 23.26 10.5092 23.3524 10.6417 23.4154 10.7885 C 23.4795 10.9319 23.5142 11.0867 23.5173 11.2438 C 23.5204 11.4008 23.492 11.5569 23.4336 11.7027 C 23.3753 11.8486 23.2882 11.9812 23.1776 12.0928 C 23.067 12.2043 22.9351 12.2925 22.7898 12.3521 Z" stroke-linecap="round" />
</g>
		<g transform="matrix(1 0 0 1 6.61 -10.73)"  >
<path style="stroke: none; stroke-width: 1; stroke-dasharray: none; stroke-linecap: butt; stroke-dashoffset: 0; stroke-linejoin: miter; stroke-miterlimit: 4; fill: rgb(164,159,218); fill-rule: nonzero; opacity: 1;" vector-effect="non-scaling-stroke"  transform=" translate(-29.61, -11.27)" d="M 30.1012 12.3521 C 29.8107 12.4855 29.4792 12.4988 29.179 12.389 C 28.8787 12.2791 28.634 12.0551 28.4982 11.7658 C 28.3794 11.4749 28.3782 11.1493 28.4949 10.8576 C 28.6116 10.5659 28.8371 10.3309 29.1238 10.2022 C 29.2667 10.1306 29.4228 10.0891 29.5824 10.08 C 29.742 10.071 29.9017 10.0946 30.0519 10.1495 C 30.202 10.2044 30.3393 10.2894 30.4554 10.3993 C 30.5714 10.5092 30.6638 10.6417 30.7268 10.7885 C 30.8456 11.0794 30.8468 11.405 30.7301 11.6967 C 30.6134 11.9885 30.3879 12.2234 30.1012 12.3521 Z" stroke-linecap="round" />
</g>
		<g transform="matrix(1 0 0 1 4.38 -12.76)"  >
<path style="stroke: none; stroke-width: 1; stroke-dasharray: none; stroke-linecap: butt; stroke-dashoffset: 0; stroke-linejoin: miter; stroke-miterlimit: 4; fill: rgb(164,159,218); fill-rule: nonzero; opacity: 1;" vector-effect="non-scaling-stroke"  transform=" translate(-27.38, -9.24)" d="M 27.8732 10.3191 C 27.5827 10.4525 27.2512 10.4657 26.9509 10.3559 C 26.6507 10.2461 26.406 10.0221 26.2701 9.73278 C 26.206 9.58938 26.1713 9.43457 26.1682 9.27753 C 26.1651 9.12049 26.1935 8.96442 26.2519 8.81858 C 26.3102 8.67274 26.3973 8.5401 26.5079 8.42855 C 26.6185 8.31699 26.7504 8.22879 26.8957 8.16917 C 27.1863 8.03577 27.5177 8.02254 27.818 8.13236 C 28.1182 8.24219 28.3629 8.46617 28.4988 8.75552 C 28.6176 9.04638 28.6188 9.37201 28.5021 9.66372 C 28.3853 9.95544 28.1599 10.1904 27.8732 10.3191 Z" stroke-linecap="round" />
</g>
		<g transform="matrix(1 0 0 1 1.34 -12.76)"  >
<path style="stroke: none; stroke-width: 1; stroke-dasharray: none; stroke-linecap: butt; stroke-dashoffset: 0; stroke-linejoin: miter; stroke-miterlimit: 4; fill: rgb(164,159,218); fill-rule: nonzero; opacity: 1;" vector-effect="non-scaling-stroke"  transform=" translate(-24.34, -9.24)" d="M 24.8239 10.3191 C 24.5334 10.4525 24.2019 10.4657 23.9016 10.3559 C 23.6014 10.2461 23.3567 10.0221 23.2208 9.73278 C 23.102 9.44191 23.1008 9.11628 23.2176 8.82457 C 23.3343 8.53286 23.5597 8.29787 23.8464 8.16917 C 24.137 8.03577 24.4684 8.02254 24.7687 8.13236 C 25.0689 8.24219 25.3136 8.46617 25.4495 8.75552 C 25.5136 8.89891 25.5483 9.05372 25.5514 9.21076 C 25.5545 9.36781 25.5261 9.52388 25.4677 9.66972 C 25.4094 9.81556 25.3223 9.94819 25.2117 10.0597 C 25.1011 10.1713 24.9692 10.2595 24.8239 10.3191 Z" stroke-linecap="round" />
</g>
		<g transform="matrix(1 0 0 1 -11 6)"  >
<path style="stroke: none; stroke-width: 1; stroke-dasharray: none; stroke-linecap: butt; stroke-dashoffset: 0; stroke-linejoin: miter; stroke-miterlimit: 4; fill: rgb(164,159,218); fill-rule: nonzero; opacity: 1;" vector-effect="non-scaling-stroke"  transform=" translate(-12, -28)" d="M 24 27.2566 C 23.8545 25.1322 23.1534 23.0832 21.9668 21.3149 C 21.0926 20.007 19.9689 18.8845 18.6601 18.0114 C 17.3512 17.1384 15.8831 16.532 14.3395 16.227 C 12.796 15.922 11.2075 15.9244 9.66489 16.234 C 8.12229 16.5436 6.65592 17.1543 5.34972 18.0313 C 4.03876 18.8992 2.90984 20.0145 2.0263 21.3149 C 1.15728 22.6342 0.546936 24.1067 0.227738 25.6539 C -0.388684 28.7832 0.257863 32.0292 2.0263 34.6837 C 2.90529 35.9942 4.03493 37.1179 5.35017 37.9901 C 6.66541 38.8622 8.14024 39.4656 9.68972 39.7655 C 10.4225 39.9207 11.1694 39.9994 11.9184 40 L 12.0357 40 L 13.2086 39.9218 C 15.1659 39.7285 17.0456 39.0573 18.6825 37.9673 L 19.5818 37.3028 C 19.7556 37.1797 19.9132 37.0352 20.051 36.8728 C 20.2518 36.7242 20.4354 36.5538 20.5984 36.3646 L 20.7939 36.2082 C 22.3041 34.5636 23.3322 32.5349 23.7654 30.3447 C 23.8795 29.7505 23.9578 29.1501 24 28.5466 L 24 27.2566 Z M 22.5142 30.0711 C 22.3023 31.5056 21.8013 32.8821 21.0415 34.1173 C 20.2817 35.3524 19.2789 36.4205 18.094 37.2567 C 16.909 38.0929 15.5666 38.6798 14.148 38.982 C 12.7294 39.2841 11.2643 39.295 9.84136 39.0142 C 8.41843 38.7334 7.06734 38.1666 5.86999 37.3483 C 4.67265 36.5299 3.65398 35.477 2.87573 34.2534 C 2.09748 33.0298 1.57586 31.6609 1.34248 30.2297 C 1.10909 28.7986 1.16881 27.3349 1.51801 25.9275 C 1.78295 24.5437 2.32035 23.2263 3.09896 22.052 C 3.87757 20.8776 4.88188 19.8696 6.05351 19.0867 C 7.22249 18.3012 8.53541 17.7548 9.91659 17.4789 C 11.2978 17.2031 12.7199 17.2032 14.101 17.4794 C 15.4822 17.7555 16.795 18.3023 17.9638 19.088 C 19.1326 19.8737 20.1343 20.883 20.9112 22.0576 C 21.6998 23.2187 22.2479 24.526 22.5232 25.9023 C 22.7985 27.2785 22.7955 28.696 22.5142 30.0711 Z" stroke-linecap="round" />
</g>
		<g transform="matrix(1 0 0 1 -11.03 6.24)"  >
<path style="stroke: none; stroke-width: 1; stroke-dasharray: none; stroke-linecap: butt; stroke-dashoffset: 0; stroke-linejoin: miter; stroke-miterlimit: 4; fill: rgb(200,197,233); fill-rule: nonzero; opacity: 1;" vector-effect="non-scaling-stroke"  transform=" translate(-11.97, -28.24)" d="M 22.5145 30.0704 C 22.3026 31.5049 21.8015 32.8815 21.0417 34.1166 C 20.2819 35.3518 19.2791 36.4198 18.0942 37.256 C 16.9093 38.0922 15.5668 38.6792 14.1483 38.9813 C 12.7297 39.2834 11.2645 39.2944 9.84161 39.0136 C 8.41868 38.7327 7.06759 38.166 5.87025 37.3476 C 4.6729 36.5293 3.65424 35.4764 2.87599 34.2528 C 2.09774 33.0291 1.57611 31.6602 1.34273 30.2291 C 1.10935 28.7979 1.16906 27.3343 1.51826 25.9268 C 1.7832 24.543 2.3206 23.2257 3.09921 22.0513 C 3.87783 20.8769 4.88213 19.869 6.05376 19.086 C 7.22274 18.3006 8.53566 17.7541 9.91684 17.4783 C 11.298 17.2024 12.7202 17.2026 14.1013 17.4787 C 15.4824 17.7549 16.7952 18.3016 17.964 19.0873 C 19.1328 19.8731 20.1345 20.8823 20.9114 22.0569 C 21.7 23.2181 22.2481 24.5253 22.5235 25.9016 C 22.7988 27.2779 22.7957 28.6953 22.5145 30.0704 Z" stroke-linecap="round" />
</g>
		<g transform="matrix(1 0 0 1 -11 6)"  >
<path style="stroke: none; stroke-width: 1; stroke-dasharray: none; stroke-linecap: butt; stroke-dashoffset: 0; stroke-linejoin: miter; stroke-miterlimit: 4; fill: rgb(164,159,218); fill-rule: nonzero; opacity: 1;" vector-effect="non-scaling-stroke"  transform=" translate(-12, -28)" d="M 18.9565 23.3483 C 17.7253 21.5051 15.8128 20.2258 13.639 19.7911 C 13.096 19.7003 12.5472 19.648 11.9968 19.6348 C 9.91836 19.6365 7.91494 20.4117 6.37673 21.8092 C 4.83852 23.2067 3.87563 25.1266 3.67558 27.1949 C 3.47553 29.2633 4.05264 31.332 5.29452 32.9983 C 6.5364 34.6646 8.35414 35.8091 10.3938 36.209 C 10.9368 36.2999 11.4855 36.3521 12.0359 36.3654 C 13.6773 36.3502 15.2793 35.8616 16.6496 34.9581 C 17.564 34.3477 18.3491 33.563 18.96 32.649 C 19.5709 31.7349 19.9956 30.7095 20.2099 29.6313 C 20.4241 28.553 20.4237 27.4432 20.2086 26.3651 C 19.9936 25.287 19.5681 24.2619 18.9565 23.3483 Z M 19.6994 29.5246 C 19.3933 31.0375 18.6461 32.4259 17.5521 33.515 C 16.458 34.604 15.066 35.3449 13.5514 35.6443 C 12.0369 35.9437 10.4676 35.7881 9.04132 35.1973 C 7.61504 34.6064 6.39563 33.6067 5.53674 32.3241 C 4.67784 31.0415 4.21792 29.5334 4.21493 27.9899 C 4.21193 26.4463 4.66601 24.9365 5.51992 23.6506 C 6.37383 22.3646 7.58937 21.3602 9.01334 20.7638 C 10.4373 20.1674 12.006 20.0058 13.5217 20.2993 C 15.5585 20.7147 17.3494 21.9163 18.5059 23.6433 C 19.6624 25.3703 20.0912 27.4835 19.6994 29.5246 Z" stroke-linecap="round" />
</g>
		<g transform="matrix(1 0 0 1 -11.01 6.01)"  >
<path style="stroke: none; stroke-width: 1; stroke-dasharray: none; stroke-linecap: butt; stroke-dashoffset: 0; stroke-linejoin: miter; stroke-miterlimit: 4; fill: rgb(200,197,233); fill-rule: nonzero; opacity: 1;" vector-effect="non-scaling-stroke"  transform=" translate(-11.99, -28.01)" d="M 13.5208 20.2994 C 11.9957 19.9961 10.415 20.152 8.97855 20.7473 C 7.54212 21.3425 6.3146 22.3505 5.45133 23.6434 C 4.58806 24.9364 4.12784 26.4564 4.12891 28.011 C 4.12998 29.5656 4.59229 31.0849 5.45734 32.3767 C 6.32239 33.6685 7.55129 34.6747 8.98853 35.268 C 10.4258 35.8613 12.0068 36.015 13.5314 35.7097 C 15.0561 35.4043 16.4558 34.6537 17.5536 33.5527 C 18.6514 32.4517 19.3978 31.0499 19.6985 29.5247 C 19.9031 28.5131 19.9054 27.4709 19.7052 26.4584 C 19.5049 25.4459 19.1062 24.4831 18.5319 23.6254 C 17.9575 22.7678 17.219 22.0323 16.359 21.4614 C 15.4989 20.8906 14.5343 20.4956 13.5208 20.2994 Z M 12.8952 24.1693 C 13.1858 24.0359 13.5173 24.0227 13.8175 24.1325 C 14.1178 24.2423 14.3624 24.4663 14.4983 24.7557 C 14.6171 25.0465 14.6183 25.3722 14.5016 25.6639 C 14.3849 25.9556 14.1594 26.1906 13.8727 26.3193 C 13.5822 26.4527 13.2507 26.4659 12.9504 26.3561 C 12.6502 26.2462 12.4055 26.0223 12.2696 25.7329 C 12.2055 25.5895 12.1709 25.4347 12.1677 25.2777 C 12.1646 25.1206 12.193 24.9646 12.2514 24.8187 C 12.3097 24.6729 12.3968 24.5402 12.5074 24.4287 C 12.618 24.3171 12.7499 24.2289 12.8952 24.1693 Z M 9.8455 24.1693 C 10.136 24.0359 10.4675 24.0227 10.7678 24.1325 C 11.068 24.2423 11.3127 24.4663 11.4486 24.7557 C 11.5127 24.8991 11.5473 25.0539 11.5505 25.2109 C 11.5536 25.3679 11.5252 25.524 11.4668 25.6699 C 11.4085 25.8157 11.3214 25.9483 11.2108 26.0599 C 11.1002 26.1714 10.9683 26.2597 10.823 26.3193 C 10.5324 26.4527 10.2009 26.4659 9.90069 26.3561 C 9.60044 26.2462 9.35575 26.0223 9.21991 25.7329 C 9.10109 25.4421 9.09992 25.1164 9.21663 24.8247 C 9.33334 24.533 9.55882 24.298 9.8455 24.1693 Z M 7.18675 27.7656 C 7.07761 27.4739 7.08124 27.152 7.19694 26.8628 C 7.31264 26.5736 7.53208 26.338 7.81234 26.202 C 7.95529 26.1305 8.11134 26.0889 8.27094 26.0798 C 8.43054 26.0708 8.5903 26.0944 8.74043 26.1493 C 8.89055 26.2042 9.02786 26.2893 9.14394 26.3991 C 9.26001 26.509 9.35239 26.6415 9.4154 26.7884 C 9.47953 26.9317 9.51419 27.0866 9.51733 27.2436 C 9.52046 27.4006 9.49202 27.5567 9.43367 27.7026 C 9.37532 27.8484 9.28826 27.981 9.17766 28.0926 C 9.06706 28.2041 8.93517 28.2923 8.78982 28.352 C 8.49928 28.4854 8.16778 28.4986 7.86753 28.3888 C 7.56728 28.2789 7.3226 28.055 7.18675 27.7656 Z M 11.8786 32.1437 C 10.041 32.1437 8.51612 31.2056 8.51612 30.0719 C 8.51612 28.9383 9.21991 28.6256 10.1974 28.2738 C 10.2807 27.8899 10.4929 27.5461 10.7988 27.2995 C 11.1046 27.0529 11.4857 26.9184 11.8786 26.9184 C 12.2716 26.9184 12.6527 27.0529 12.9585 27.2995 C 13.2644 27.5461 13.4766 27.8899 13.5599 28.2738 C 14.5374 28.6256 15.2412 29.2901 15.2412 30.0719 C 15.2412 30.8537 13.7163 32.1437 11.8786 32.1437 Z M 16.1014 28.352 C 15.8108 28.4854 15.4793 28.4986 15.1791 28.3888 C 14.8788 28.2789 14.6341 28.055 14.4983 27.7656 C 14.3795 27.4747 14.3783 27.1491 14.495 26.8574 C 14.6117 26.5657 14.8372 26.3307 15.1239 26.202 C 15.2668 26.1305 15.4229 26.0889 15.5825 26.0798 C 15.7421 26.0708 15.9018 26.0944 16.052 26.1493 C 16.2021 26.2042 16.3394 26.2893 16.4555 26.3991 C 16.5715 26.509 16.6639 26.6415 16.7269 26.7884 C 16.8457 27.0792 16.8469 27.4048 16.7302 27.6966 C 16.6135 27.9883 16.388 28.2233 16.1014 28.352 Z" stroke-linecap="round" />
</g>
		<g transform="matrix(1 0 0 1 -11.12 7.53)"  >
<path style="stroke: none; stroke-width: 1; stroke-dasharray: none; stroke-linecap: butt; stroke-dashoffset: 0; stroke-linejoin: miter; stroke-miterlimit: 4; fill: rgb(164,159,218); fill-rule: nonzero; opacity: 1;" vector-effect="non-scaling-stroke"  transform=" translate(-11.88, -29.53)" d="M 15.2407 30.0715 C 15.2407 31.2051 13.7158 32.1433 11.8782 32.1433 C 10.0405 32.1433 8.51562 31.2051 8.51562 30.0715 C 8.51562 28.9379 9.21941 28.6251 10.1969 28.2733 C 10.2802 27.8894 10.4924 27.5456 10.7983 27.299 C 11.1041 27.0524 11.4852 26.918 11.8782 26.918 C 12.2711 26.918 12.6522 27.0524 12.958 27.299 C 13.2639 27.5456 13.4761 27.8894 13.5594 28.2733 C 14.5369 28.6251 15.2407 29.2897 15.2407 30.0715 Z" stroke-linecap="round" />
</g>
		<g transform="matrix(1 0 0 1 -14.69 5.27)"  >
<path style="stroke: none; stroke-width: 1; stroke-dasharray: none; stroke-linecap: butt; stroke-dashoffset: 0; stroke-linejoin: miter; stroke-miterlimit: 4; fill: rgb(164,159,218); fill-rule: nonzero; opacity: 1;" vector-effect="non-scaling-stroke"  transform=" translate(-8.31, -27.27)" d="M 8.78979 28.3521 C 8.49925 28.4855 8.16776 28.4988 7.8675 28.389 C 7.56725 28.2791 7.32257 28.0551 7.18672 27.7658 C 7.07758 27.4741 7.08121 27.1522 7.19691 26.863 C 7.31261 26.5738 7.53205 26.3382 7.81231 26.2022 C 7.95526 26.1306 8.11131 26.0891 8.27091 26.08 C 8.43051 26.071 8.59027 26.0946 8.7404 26.1495 C 8.89052 26.2044 9.02783 26.2894 9.14391 26.3993 C 9.25998 26.5092 9.35236 26.6417 9.41537 26.7885 C 9.4795 26.9319 9.51416 27.0867 9.5173 27.2438 C 9.52043 27.4008 9.49199 27.5569 9.43364 27.7027 C 9.37529 27.8486 9.28823 27.9812 9.17763 28.0928 C 9.06703 28.2043 8.93514 28.2925 8.78979 28.3521 Z" stroke-linecap="round" />
</g>
		<g transform="matrix(1 0 0 1 -7.39 5.27)"  >
<path style="stroke: none; stroke-width: 1; stroke-dasharray: none; stroke-linecap: butt; stroke-dashoffset: 0; stroke-linejoin: miter; stroke-miterlimit: 4; fill: rgb(164,159,218); fill-rule: nonzero; opacity: 1;" vector-effect="non-scaling-stroke"  transform=" translate(-15.61, -27.27)" d="M 16.1012 28.3521 C 15.8107 28.4855 15.4792 28.4988 15.179 28.389 C 14.8787 28.2791 14.634 28.0551 14.4982 27.7658 C 14.3794 27.4749 14.3782 27.1493 14.4949 26.8576 C 14.6116 26.5659 14.8371 26.3309 15.1238 26.2022 C 15.2667 26.1306 15.4228 26.0891 15.5824 26.08 C 15.742 26.071 15.9017 26.0946 16.0519 26.1495 C 16.202 26.2044 16.3393 26.2894 16.4554 26.3993 C 16.5714 26.5092 16.6638 26.6417 16.7268 26.7885 C 16.8456 27.0794 16.8468 27.405 16.7301 27.6967 C 16.6134 27.9885 16.3879 28.2234 16.1012 28.3521 Z" stroke-linecap="round" />
</g>
		<g transform="matrix(1 0 0 1 -9.62 3.24)"  >
<path style="stroke: none; stroke-width: 1; stroke-dasharray: none; stroke-linecap: butt; stroke-dashoffset: 0; stroke-linejoin: miter; stroke-miterlimit: 4; fill: rgb(164,159,218); fill-rule: nonzero; opacity: 1;" vector-effect="non-scaling-stroke"  transform=" translate(-13.38, -25.24)" d="M 13.8732 26.3191 C 13.5827 26.4525 13.2512 26.4657 12.9509 26.3559 C 12.6507 26.2461 12.406 26.0221 12.2701 25.7328 C 12.206 25.5894 12.1713 25.4346 12.1682 25.2775 C 12.1651 25.1205 12.1935 24.9644 12.2519 24.8186 C 12.3102 24.6727 12.3973 24.5401 12.5079 24.4285 C 12.6185 24.317 12.7504 24.2288 12.8957 24.1692 C 13.1863 24.0358 13.5177 24.0225 13.818 24.1324 C 14.1182 24.2422 14.3629 24.4662 14.4988 24.7555 C 14.6176 25.0464 14.6188 25.372 14.5021 25.6637 C 14.3853 25.9554 14.1599 26.1904 13.8732 26.3191 Z" stroke-linecap="round" />
</g>
		<g transform="matrix(1 0 0 1 -12.66 3.24)"  >
<path style="stroke: none; stroke-width: 1; stroke-dasharray: none; stroke-linecap: butt; stroke-dashoffset: 0; stroke-linejoin: miter; stroke-miterlimit: 4; fill: rgb(164,159,218); fill-rule: nonzero; opacity: 1;" vector-effect="non-scaling-stroke"  transform=" translate(-10.34, -25.24)" d="M 10.8239 26.3191 C 10.5334 26.4525 10.2019 26.4657 9.90161 26.3559 C 9.60136 26.2461 9.35667 26.0221 9.22083 25.7328 C 9.10201 25.4419 9.10084 25.1163 9.21755 24.8246 C 9.33426 24.5329 9.55974 24.2979 9.84641 24.1692 C 10.137 24.0358 10.4684 24.0225 10.7687 24.1324 C 11.0689 24.2422 11.3136 24.4662 11.4495 24.7555 C 11.5136 24.8989 11.5483 25.0537 11.5514 25.2108 C 11.5545 25.3678 11.5261 25.5239 11.4677 25.6697 C 11.4094 25.8156 11.3223 25.9482 11.2117 26.0597 C 11.1011 26.1713 10.9692 26.2595 10.8239 26.3191 Z" stroke-linecap="round" />
</g>
		<g transform="matrix(1 0 0 1 15.5 14.5)"  >
<path style="stroke: none; stroke-width: 1; stroke-dasharray: none; stroke-linecap: butt; stroke-dashoffset: 0; stroke-linejoin: miter; stroke-miterlimit: 4; fill: rgb(164,159,218); fill-rule: nonzero; opacity: 1;" vector-effect="non-scaling-stroke"  transform=" translate(-38.5, -36.5)" d="M 46 36.0354 C 45.909 34.7076 45.4708 33.427 44.7293 32.3218 C 44.1829 31.5044 43.4805 30.8028 42.6625 30.2571 C 41.8445 29.7115 40.9269 29.3325 39.9622 29.1419 C 38.9975 28.9513 38.0047 28.9527 37.0406 29.1462 C 36.0764 29.3397 35.1599 29.7215 34.3436 30.2695 C 33.5242 30.812 32.8186 31.5091 32.2664 32.3218 C 31.7233 33.1464 31.3418 34.0667 31.1423 35.0337 C 30.7571 36.9895 31.1612 39.0183 32.2664 40.6773 C 32.8158 41.4964 33.5218 42.1987 34.3439 42.7438 C 35.1659 43.2889 36.0876 43.666 37.0561 43.8534 C 37.514 43.9505 37.9809 43.9996 38.449 44 L 38.5223 44 L 39.2554 43.9511 C 40.4787 43.8303 41.6535 43.4108 42.6766 42.7296 L 43.2386 42.3142 C 43.3472 42.2373 43.4458 42.147 43.5319 42.0455 C 43.6574 41.9526 43.7721 41.8461 43.874 41.7279 L 43.9962 41.6301 C 44.9401 40.6023 45.5826 39.3343 45.8534 37.9654 C 45.9247 37.5941 45.9736 37.2188 46 36.8416 L 46 36.0354 Z M 45.0714 37.7944 C 44.939 38.691 44.6258 39.5513 44.1509 40.3233 C 43.676 41.0953 43.0493 41.7628 42.3087 42.2854 C 41.5681 42.8081 40.7291 43.1749 39.8425 43.3637 C 38.9559 43.5525 38.0402 43.5594 37.1509 43.3839 C 36.2615 43.2084 35.4171 42.8542 34.6687 42.3427 C 33.9204 41.8312 33.2837 41.1732 32.7973 40.4084 C 32.3109 39.6436 31.9849 38.7881 31.839 37.8936 C 31.6932 36.9991 31.7305 36.0843 31.9488 35.2047 C 32.1143 34.3398 32.4502 33.5165 32.9368 32.7825 C 33.4235 32.0485 34.0512 31.4185 34.7834 30.9292 C 35.5141 30.4383 36.3346 30.0967 37.1979 29.9243 C 38.0611 29.7519 38.9499 29.752 39.8131 29.9246 C 40.6763 30.0972 41.4968 30.4389 42.2274 30.93 C 42.9579 31.4211 43.5839 32.0519 44.0695 32.786 C 44.5624 33.5117 44.9049 34.3287 45.077 35.1889 C 45.2491 36.0491 45.2472 36.935 45.0714 37.7944 Z" stroke-linecap="round" />
</g>
		<g transform="matrix(1 0 0 1 15.48 14.65)"  >
<path style="stroke: none; stroke-width: 1; stroke-dasharray: none; stroke-linecap: butt; stroke-dashoffset: 0; stroke-linejoin: miter; stroke-miterlimit: 4; fill: rgb(200,197,233); fill-rule: nonzero; opacity: 1;" vector-effect="non-scaling-stroke"  transform=" translate(-38.48, -36.65)" d="M 45.0716 37.7943 C 44.9391 38.6908 44.626 39.5512 44.1511 40.3231 C 43.6762 41.0951 43.0495 41.7626 42.3089 42.2853 C 41.5683 42.8079 40.7293 43.1747 39.8427 43.3636 C 38.9561 43.5524 38.0403 43.5592 37.151 43.3837 C 36.2617 43.2082 35.4172 42.854 34.6689 42.3425 C 33.9206 41.831 33.2839 41.173 32.7975 40.4082 C 32.3111 39.6434 31.9851 38.7879 31.8392 37.8934 C 31.6933 36.9989 31.7307 36.0842 31.9489 35.2045 C 32.1145 34.3396 32.4504 33.5163 32.937 32.7823 C 33.4236 32.0483 34.0513 31.4184 34.7836 30.929 C 35.5142 30.4381 36.3348 30.0966 37.198 29.9242 C 38.0613 29.7517 38.9501 29.7518 39.8133 29.9244 C 40.6765 30.097 41.497 30.4387 42.2275 30.9298 C 42.958 31.4209 43.5841 32.0517 44.0696 32.7858 C 44.5625 33.5115 44.9051 34.3286 45.0772 35.1887 C 45.2492 36.0489 45.2473 36.9348 45.0716 37.7943 Z" stroke-linecap="round" />
</g>
		<g transform="matrix(1 0 0 1 15.5 14.5)"  >
<path style="stroke: none; stroke-width: 1; stroke-dasharray: none; stroke-linecap: butt; stroke-dashoffset: 0; stroke-linejoin: miter; stroke-miterlimit: 4; fill: rgb(164,159,218); fill-rule: nonzero; opacity: 1;" vector-effect="non-scaling-stroke"  transform=" translate(-38.5, -36.5)" d="M 42.8483 33.5925 C 42.0788 32.4405 40.8835 31.6409 39.5249 31.3692 C 39.1855 31.3124 38.8425 31.2798 38.4985 31.2715 C 37.1995 31.2726 35.9473 31.757 34.9859 32.6305 C 34.0246 33.5039 33.4228 34.7039 33.2977 35.9966 C 33.1727 37.2893 33.5334 38.5823 34.3096 39.6237 C 35.0857 40.6651 36.2218 41.3805 37.4966 41.6304 C 37.836 41.6872 38.1789 41.7198 38.5229 41.7281 C 39.5488 41.7187 40.5501 41.4132 41.4065 40.8486 C 41.978 40.467 42.4687 39.9766 42.8505 39.4054 C 43.2323 38.8341 43.4978 38.1932 43.6317 37.5193 C 43.7656 36.8454 43.7653 36.1517 43.6309 35.4779 C 43.4965 34.8041 43.2305 34.1634 42.8483 33.5925 Z M 43.3126 37.4526 C 43.1213 38.3982 42.6543 39.266 41.9705 39.9466 C 41.2867 40.6273 40.4167 41.0903 39.4701 41.2774 C 38.5235 41.4646 37.5427 41.3673 36.6513 40.9981 C 35.7599 40.6288 34.9978 40.0039 34.4609 39.2023 C 33.9241 38.4007 33.6367 37.4581 33.6348 36.4934 C 33.6329 35.5287 33.9167 34.5851 34.4504 33.7814 C 34.9841 32.9776 35.7438 32.3499 36.6338 31.9771 C 37.5238 31.6044 38.5042 31.5034 39.4515 31.6868 C 40.7246 31.9465 41.8439 32.6974 42.5667 33.7768 C 43.2895 34.8562 43.5575 36.177 43.3126 37.4526 Z" stroke-linecap="round" />
</g>
		<g transform="matrix(1 0 0 1 15.49 14.5)"  >
<path style="stroke: none; stroke-width: 1; stroke-dasharray: none; stroke-linecap: butt; stroke-dashoffset: 0; stroke-linejoin: miter; stroke-miterlimit: 4; fill: rgb(200,197,233); fill-rule: nonzero; opacity: 1;" vector-effect="non-scaling-stroke"  transform=" translate(-38.49, -36.5)" d="M 39.45 31.6861 C 38.4969 31.4966 37.5089 31.594 36.6111 31.9661 C 35.7133 32.3381 34.9461 32.9681 34.4066 33.7762 C 33.867 34.5843 33.5794 35.5343 33.5801 36.5059 C 33.5807 37.4775 33.8697 38.4271 34.4103 39.2345 C 34.951 40.0418 35.7191 40.6707 36.6173 41.0415 C 37.5156 41.4123 38.5037 41.5084 39.4566 41.3176 C 40.4095 41.1267 41.2844 40.6576 41.9705 39.9695 C 42.6566 39.2814 43.1232 38.4052 43.3111 37.4519 C 43.439 36.8197 43.4404 36.1683 43.3152 35.5355 C 43.1901 34.9027 42.9409 34.3009 42.5819 33.7649 C 42.223 33.2289 41.7614 32.7692 41.2239 32.4124 C 40.6863 32.0556 40.0835 31.8088 39.45 31.6861 Z M 39.059 34.1048 C 39.2406 34.0215 39.4478 34.0132 39.6355 34.0818 C 39.8231 34.1505 39.976 34.2905 40.0609 34.4713 C 40.1352 34.6531 40.1359 34.8566 40.063 35.0389 C 39.99 35.2213 39.8491 35.3681 39.67 35.4486 C 39.4884 35.5319 39.2812 35.5402 39.0935 35.4716 C 38.9059 35.4029 38.7529 35.2629 38.668 35.0821 C 38.628 34.9925 38.6063 34.8957 38.6043 34.7976 C 38.6024 34.6994 38.6202 34.6019 38.6566 34.5107 C 38.6931 34.4196 38.7475 34.3367 38.8166 34.267 C 38.8857 34.1972 38.9682 34.1421 39.059 34.1048 Z M 37.1529 34.1048 C 37.3345 34.0215 37.5417 34.0132 37.7294 34.0818 C 37.917 34.1505 38.07 34.2905 38.1549 34.4713 C 38.1949 34.5609 38.2166 34.6577 38.2186 34.7558 C 38.2205 34.854 38.2027 34.9515 38.1663 35.0427 C 38.1298 35.1338 38.0754 35.2167 38.0063 35.2865 C 37.9371 35.3562 37.8547 35.4113 37.7639 35.4486 C 37.5823 35.5319 37.3751 35.5402 37.1874 35.4716 C 36.9998 35.4029 36.8469 35.2629 36.762 35.0821 C 36.6877 34.9003 36.687 34.6968 36.7599 34.5145 C 36.8329 34.3321 36.9738 34.1853 37.1529 34.1048 Z M 35.4912 36.3525 C 35.423 36.1702 35.4253 35.969 35.4976 35.7883 C 35.5699 35.6075 35.7071 35.4603 35.8822 35.3753 C 35.9716 35.3306 36.0691 35.3046 36.1688 35.2989 C 36.2686 35.2933 36.3685 35.308 36.4623 35.3424 C 36.5561 35.3767 36.6419 35.4298 36.7145 35.4985 C 36.787 35.5672 36.8448 35.6499 36.8841 35.7417 C 36.9242 35.8314 36.9459 35.9281 36.9478 36.0263 C 36.9498 36.1244 36.932 36.222 36.8956 36.3131 C 36.8591 36.4043 36.8047 36.4872 36.7355 36.5569 C 36.6664 36.6266 36.584 36.6817 36.4931 36.719 C 36.3116 36.8024 36.1044 36.8106 35.9167 36.742 C 35.7291 36.6734 35.5761 36.5334 35.4912 36.3525 Z M 38.4237 39.0888 C 37.2751 39.0888 36.3221 38.5025 36.3221 37.794 C 36.3221 37.0855 36.762 36.89 37.3729 36.6701 C 37.4249 36.4302 37.5576 36.2153 37.7487 36.0612 C 37.9399 35.9071 38.1781 35.823 38.4237 35.823 C 38.6692 35.823 38.9074 35.9071 39.0986 36.0612 C 39.2898 36.2153 39.4224 36.4302 39.4745 36.6701 C 40.0854 36.89 40.5252 37.3054 40.5252 37.794 C 40.5252 38.2826 39.5722 39.0888 38.4237 39.0888 Z M 41.0629 36.719 C 40.8813 36.8024 40.6741 36.8106 40.4864 36.742 C 40.2988 36.6734 40.1458 36.5334 40.0609 36.3525 C 39.9867 36.1707 39.9859 35.9672 40.0589 35.7849 C 40.1318 35.6026 40.2728 35.4557 40.4519 35.3753 C 40.5413 35.3306 40.6388 35.3046 40.7386 35.2989 C 40.8383 35.2933 40.9382 35.308 41.032 35.3424 C 41.1258 35.3767 41.2116 35.4298 41.2842 35.4985 C 41.3567 35.5672 41.4145 35.6499 41.4538 35.7417 C 41.5281 35.9235 41.5288 36.1271 41.4559 36.3094 C 41.3829 36.4917 41.242 36.6386 41.0629 36.719 Z" stroke-linecap="round" />
</g>
		<g transform="matrix(1 0 0 1 15.43 15.46)"  >
<path style="stroke: none; stroke-width: 1; stroke-dasharray: none; stroke-linecap: butt; stroke-dashoffset: 0; stroke-linejoin: miter; stroke-miterlimit: 4; fill: rgb(164,159,218); fill-rule: nonzero; opacity: 1;" vector-effect="non-scaling-stroke"  transform=" translate(-38.43, -37.46)" d="M 40.5274 37.7952 C 40.5274 38.5037 39.5743 39.09 38.4258 39.09 C 37.2773 39.09 36.3242 38.5037 36.3242 37.7952 C 36.3242 37.0867 36.7641 36.8912 37.375 36.6713 C 37.4271 36.4314 37.5597 36.2165 37.7509 36.0624 C 37.942 35.9083 38.1802 35.8242 38.4258 35.8242 C 38.6714 35.8242 38.9095 35.9083 39.1007 36.0624 C 39.2919 36.2165 39.4245 36.4314 39.4766 36.6713 C 40.0875 36.8912 40.5274 37.3065 40.5274 37.7952 Z" stroke-linecap="round" />
</g>
		<g transform="matrix(1 0 0 1 13.2 14.04)"  >
<path style="stroke: none; stroke-width: 1; stroke-dasharray: none; stroke-linecap: butt; stroke-dashoffset: 0; stroke-linejoin: miter; stroke-miterlimit: 4; fill: rgb(164,159,218); fill-rule: nonzero; opacity: 1;" vector-effect="non-scaling-stroke"  transform=" translate(-36.2, -36.04)" d="M 36.4948 36.7201 C 36.3133 36.8035 36.1061 36.8117 35.9184 36.7431 C 35.7308 36.6745 35.5778 36.5345 35.4929 36.3536 C 35.4247 36.1713 35.427 35.9701 35.4993 35.7894 C 35.5716 35.6086 35.7088 35.4614 35.8839 35.3764 C 35.9733 35.3317 36.0708 35.3057 36.1705 35.3 C 36.2703 35.2943 36.3701 35.3091 36.464 35.3434 C 36.5578 35.3778 36.6436 35.4309 36.7162 35.4996 C 36.7887 35.5683 36.8464 35.651 36.8858 35.7428 C 36.9259 35.8325 36.9476 35.9292 36.9495 36.0274 C 36.9515 36.1255 36.9337 36.2231 36.8972 36.3142 C 36.8608 36.4054 36.8064 36.4883 36.7372 36.558 C 36.6681 36.6277 36.5857 36.6828 36.4948 36.7201 Z" stroke-linecap="round" />
</g>
		<g transform="matrix(1 0 0 1 17.76 14.04)"  >
<path style="stroke: none; stroke-width: 1; stroke-dasharray: none; stroke-linecap: butt; stroke-dashoffset: 0; stroke-linejoin: miter; stroke-miterlimit: 4; fill: rgb(164,159,218); fill-rule: nonzero; opacity: 1;" vector-effect="non-scaling-stroke"  transform=" translate(-40.76, -36.04)" d="M 41.064 36.7201 C 40.8824 36.8035 40.6752 36.8117 40.4876 36.7431 C 40.2999 36.6745 40.147 36.5345 40.0621 36.3536 C 39.9878 36.1718 39.9871 35.9683 40.06 35.786 C 40.133 35.6037 40.2739 35.4568 40.4531 35.3764 C 40.5424 35.3317 40.64 35.3057 40.7397 35.3 C 40.8395 35.2943 40.9393 35.3091 41.0331 35.3434 C 41.127 35.3778 41.2128 35.4309 41.2853 35.4996 C 41.3579 35.5683 41.4156 35.651 41.455 35.7428 C 41.5293 35.9246 41.53 36.1281 41.457 36.3105 C 41.3841 36.4928 41.2432 36.6397 41.064 36.7201 Z" stroke-linecap="round" />
</g>
		<g transform="matrix(1 0 0 1 16.36 12.78)"  >
<path style="stroke: none; stroke-width: 1; stroke-dasharray: none; stroke-linecap: butt; stroke-dashoffset: 0; stroke-linejoin: miter; stroke-miterlimit: 4; fill: rgb(164,159,218); fill-rule: nonzero; opacity: 1;" vector-effect="non-scaling-stroke"  transform=" translate(-39.36, -34.78)" d="M 39.6712 35.4499 C 39.4896 35.5333 39.2825 35.5416 39.0948 35.4729 C 38.9071 35.4043 38.7542 35.2643 38.6693 35.0835 C 38.6292 34.9939 38.6076 34.8971 38.6056 34.7989 C 38.6037 34.7008 38.6214 34.6032 38.6579 34.5121 C 38.6944 34.421 38.7488 34.3381 38.8179 34.2683 C 38.887 34.1986 38.9695 34.1435 39.0603 34.1062 C 39.2419 34.0228 39.4491 34.0146 39.6367 34.0832 C 39.8244 34.1519 39.9773 34.2918 40.0622 34.4727 C 40.1365 34.6545 40.1372 34.858 40.0643 35.0403 C 39.9913 35.2226 39.8504 35.3695 39.6712 35.4499 Z" stroke-linecap="round" />
</g>
		<g transform="matrix(1 0 0 1 14.46 12.78)"  >
<path style="stroke: none; stroke-width: 1; stroke-dasharray: none; stroke-linecap: butt; stroke-dashoffset: 0; stroke-linejoin: miter; stroke-miterlimit: 4; fill: rgb(164,159,218); fill-rule: nonzero; opacity: 1;" vector-effect="non-scaling-stroke"  transform=" translate(-37.46, -34.78)" d="M 37.7652 35.4499 C 37.5836 35.5333 37.3764 35.5416 37.1887 35.4729 C 37.0011 35.4043 36.8482 35.2643 36.7633 35.0835 C 36.689 34.9017 36.6883 34.6982 36.7612 34.5158 C 36.8342 34.3335 36.9751 34.1867 37.1543 34.1062 C 37.3358 34.0228 37.543 34.0146 37.7307 34.0832 C 37.9183 34.1519 38.0713 34.2918 38.1562 34.4727 C 38.1962 34.5623 38.2179 34.6591 38.2199 34.7572 C 38.2218 34.8554 38.2041 34.9529 38.1676 35.0441 C 38.1311 35.1352 38.0767 35.2181 38.0076 35.2878 C 37.9385 35.3576 37.856 35.4127 37.7652 35.4499 Z" stroke-linecap="round" />
</g>
</g>
</g>
</svg>