<svg width="44" height="45" viewBox="0 0 44 45" fill="none" xmlns="http://www.w3.org/2000/svg">
<path d="M19.4469 36.7952L38.4142 31.767C39.7176 31.4189 40.5198 30.1377 40.1967 28.8901L33.5882 2.22709C33.2791 0.973321 31.9809 0.245739 30.6914 0.587641L11.7102 5.62206C10.4208 5.96396 9.62478 7.25918 9.92771 8.49897L16.5424 35.176C16.8593 36.4095 18.1575 37.1371 19.4469 36.7952Z" fill="#6678FF"/>
<path fill-rule="evenodd" clip-rule="evenodd" d="M38.4138 31.7674L19.4466 36.7955C18.1571 37.1374 16.859 36.4099 16.5421 35.1763L9.92736 8.4993C9.62443 7.25951 10.4204 5.96429 11.7099 5.62239L30.6911 0.587975C31.9805 0.246073 33.2787 0.973655 33.5879 2.22742L40.1963 28.8905C40.5195 30.138 39.7173 31.4192 38.4138 31.7674ZM40.6696 28.7679C40.6698 28.7688 40.6701 28.7697 40.6703 28.7706C41.0653 30.3017 40.0768 31.8292 38.54 32.2397L38.5391 32.2399L19.5719 37.2681C18.0388 37.6746 16.4577 36.8129 16.0686 35.298L16.068 35.296L9.45244 8.61534C9.08254 7.10143 10.0534 5.55585 11.5845 5.14984C11.5845 5.14984 11.5845 5.14984 11.5845 5.14984L30.5658 0.115425C32.1001 -0.291399 33.683 0.572157 34.0625 2.11004M40.6696 28.7679L34.0625 2.11037L40.6696 28.7679Z" fill="#4040B7"/>
<path d="M32.9145 12.1222L14.8623 16.9089C14.7517 16.9421 14.6354 16.9526 14.5206 16.9398C14.4058 16.927 14.2947 16.8911 14.1941 16.8343C14.0935 16.7774 14.0054 16.7008 13.9351 16.6091C13.8649 16.5174 13.8139 16.4124 13.7852 16.3005L12.8202 12.4553C12.773 12.2236 12.817 11.9826 12.9431 11.7825C13.0692 11.5824 13.2676 11.4386 13.497 11.3811L31.5492 6.59449C31.6598 6.56126 31.7761 6.55074 31.8909 6.56356C32.0058 6.57639 32.1168 6.61229 32.2174 6.66912C32.318 6.72594 32.4061 6.80252 32.4764 6.89425C32.5467 6.98597 32.5977 7.09096 32.6263 7.20289L33.5851 11.0341C33.6326 11.2667 33.5897 11.5087 33.4651 11.7108C33.3406 11.913 33.1437 12.0601 32.9145 12.1222Z" fill="#4E4EDE"/>
<path d="M33.9418 15.0165L15.321 19.9568C15.2458 19.9802 15.1667 19.9882 15.0884 19.9801C15.01 19.9721 14.9342 19.9483 14.8653 19.91C14.7965 19.8718 14.7362 19.8201 14.6879 19.7578C14.6397 19.6956 14.6046 19.6243 14.5847 19.5481C14.5664 19.4713 14.5635 19.3915 14.5762 19.3136C14.589 19.2356 14.617 19.161 14.6588 19.0939C14.7006 19.0269 14.7552 18.9688 14.8196 18.923C14.884 18.8773 14.9568 18.8447 15.0338 18.8273L33.6546 13.887C33.7298 13.8636 33.8089 13.8556 33.8872 13.8636C33.9656 13.8717 34.0414 13.8955 34.1103 13.9337C34.1791 13.9719 34.2394 14.0237 34.2877 14.0859C34.3359 14.1481 34.371 14.2195 34.3909 14.2957C34.4199 14.4502 34.3899 14.6101 34.3067 14.7435C34.2236 14.877 34.0933 14.9744 33.9418 15.0165Z" fill="#4E4EDE"/>
<path d="M34.6703 17.9952L16.0495 22.9355C15.9748 22.9567 15.8966 22.9627 15.8196 22.9533C15.7426 22.9438 15.6682 22.919 15.6009 22.8803C15.5336 22.8416 15.4747 22.7899 15.4277 22.7281C15.3807 22.6663 15.3465 22.5958 15.3272 22.5206C15.3089 22.4438 15.306 22.3641 15.3187 22.2861C15.3314 22.2081 15.3595 22.1335 15.4013 22.0664C15.443 21.9994 15.4977 21.9413 15.5621 21.8956C15.6265 21.8498 15.6993 21.8172 15.7763 21.7998L34.3971 16.8595C34.549 16.8165 34.7116 16.8354 34.8496 16.912C34.9875 16.9885 35.0896 17.1166 35.1334 17.2682C35.1599 17.4252 35.1272 17.5865 35.0417 17.7208C34.9561 17.8551 34.8238 17.9529 34.6703 17.9952Z" fill="#4E4EDE"/>
<path d="M35.4125 20.9668L16.7917 25.9071C16.6399 25.9501 16.4772 25.9312 16.3393 25.8546C16.2013 25.7781 16.0993 25.65 16.0555 25.4984C16.0213 25.3407 16.0507 25.1758 16.1374 25.0396C16.2242 24.9035 16.3611 24.8071 16.5186 24.7714L35.1394 19.8311C35.214 19.8099 35.2922 19.8039 35.3692 19.8134C35.4463 19.8228 35.5206 19.8476 35.588 19.8863C35.6553 19.925 35.7141 19.9767 35.7612 20.0385C35.8082 20.1003 35.8423 20.1708 35.8616 20.246C35.8799 20.3228 35.8828 20.4025 35.8701 20.4805C35.8574 20.5585 35.8293 20.6331 35.7876 20.7002C35.7458 20.7672 35.6911 20.8253 35.6268 20.8711C35.5624 20.9168 35.4896 20.9494 35.4125 20.9668Z" fill="#4E4EDE"/>
<path d="M36.1547 23.9403L17.5338 28.8806C17.4587 28.904 17.3796 28.912 17.3013 28.904C17.2229 28.8959 17.1471 28.8721 17.0782 28.8339C17.0094 28.7957 16.949 28.7439 16.9008 28.6817C16.8526 28.6195 16.8175 28.5481 16.7976 28.4719C16.7793 28.3951 16.7764 28.3154 16.7891 28.2374C16.8018 28.1595 16.8299 28.0848 16.8717 28.0178C16.9134 27.9507 16.9681 27.8926 17.0325 27.8469C17.0969 27.8011 17.1697 27.7686 17.2467 27.7511L35.8675 22.8108C35.9427 22.7874 36.0218 22.7794 36.1001 22.7875C36.1784 22.7955 36.2543 22.8193 36.3231 22.8575C36.392 22.8957 36.4523 22.9475 36.5006 23.0097C36.5488 23.072 36.5839 23.1433 36.6038 23.2195C36.6221 23.2963 36.625 23.376 36.6123 23.454C36.5995 23.532 36.5715 23.6066 36.5297 23.6737C36.4879 23.7407 36.4333 23.7988 36.3689 23.8446C36.3045 23.8903 36.2317 23.9229 36.1547 23.9403Z" fill="#4E4EDE"/>
<path d="M36.8812 26.9171L18.2604 31.8574C18.1857 31.8786 18.1076 31.8846 18.0305 31.8751C17.9535 31.8656 17.8791 31.8408 17.8118 31.8022C17.7445 31.7635 17.6856 31.7118 17.6386 31.65C17.5916 31.5882 17.5575 31.5177 17.5381 31.4425C17.5198 31.3656 17.517 31.2859 17.5297 31.208C17.5424 31.13 17.5704 31.0554 17.6122 30.9883C17.654 30.9213 17.7086 30.8632 17.773 30.8174C17.8374 30.7717 17.9102 30.7391 17.9873 30.7217L36.6081 25.7814C36.7599 25.7384 36.9225 25.7573 37.0605 25.8339C37.1985 25.9104 37.3005 26.0385 37.3443 26.1901C37.3785 26.3478 37.3491 26.5127 37.2623 26.6489C37.1756 26.785 37.0386 26.8814 36.8812 26.9171Z" fill="#4E4EDE"/>
<path d="M13.3356 43.5159L32.3029 38.4877C33.6063 38.1396 34.4085 36.8584 34.0854 35.6108L27.4769 8.94779C27.1677 7.69402 25.8696 6.96644 24.5801 7.30834L5.59888 12.3428C4.30944 12.6847 3.51345 13.9799 3.81638 15.2197L10.4311 41.8967C10.748 43.1302 12.0462 43.8578 13.3356 43.5159Z" fill="#6678FF"/>
<path fill-rule="evenodd" clip-rule="evenodd" d="M32.3025 38.4881L13.3353 43.5162C12.0458 43.8582 10.7476 43.1306 10.4307 41.897L3.81603 15.22C3.51311 13.9802 4.30909 12.685 5.59854 12.3431L24.5798 7.30868C25.8692 6.96678 27.1674 7.69436 27.4766 8.94812L34.085 35.6112C34.4082 36.8587 33.6059 38.1399 32.3025 38.4881ZM34.5583 35.4886C34.5585 35.4895 34.5587 35.4904 34.559 35.4913C34.954 37.0224 33.9655 38.5499 32.4287 38.9604L32.4278 38.9607L13.4605 43.9888C11.9275 44.3953 10.3464 43.5336 9.95723 42.0187L9.95672 42.0167L3.34111 15.336C2.97121 13.8221 3.94205 12.2766 5.4732 11.8705C5.47319 11.8705 5.47321 11.8705 5.4732 11.8705L24.4544 6.83613C25.9887 6.4293 27.5717 7.29286 27.9511 8.83075M34.5583 35.4886L27.9512 8.83107L34.5583 35.4886Z" fill="#4040B7"/>
<path d="M26.8032 18.8429L8.751 23.6296C8.64033 23.6628 8.52409 23.6733 8.40926 23.6605C8.29442 23.6477 8.18337 23.6118 8.08276 23.555C7.98215 23.4981 7.89406 23.4216 7.8238 23.3298C7.75353 23.2381 7.70253 23.1331 7.67385 23.0212L6.70883 19.176C6.66167 18.9443 6.70572 18.7033 6.83179 18.5032C6.95786 18.3031 7.15624 18.1593 7.38564 18.1018L25.4378 13.3152C25.5485 13.282 25.6648 13.2714 25.7796 13.2843C25.8944 13.2971 26.0055 13.333 26.1061 13.3898C26.2067 13.4466 26.2948 13.5232 26.3651 13.615C26.4353 13.7067 26.4863 13.8117 26.515 13.9236L27.4738 17.7548C27.5213 17.9874 27.4784 18.2294 27.3538 18.4315C27.2292 18.6337 27.0324 18.7808 26.8032 18.8429Z" fill="#4E4EDE"/>
<path d="M27.8304 21.7372L9.20963 26.6775C9.13448 26.7009 9.05535 26.7089 8.97703 26.7008C8.89872 26.6928 8.82285 26.669 8.75402 26.6308C8.68519 26.5925 8.62482 26.5408 8.57659 26.4785C8.52835 26.4163 8.49324 26.345 8.47339 26.2688C8.45508 26.192 8.4522 26.1122 8.46491 26.0343C8.47763 25.9563 8.50568 25.8817 8.54745 25.8146C8.58923 25.7476 8.64389 25.6895 8.70827 25.6437C8.77265 25.598 8.84547 25.5654 8.92251 25.548L27.5433 20.6077C27.6185 20.5843 27.6976 20.5763 27.7759 20.5843C27.8542 20.5924 27.9301 20.6162 27.9989 20.6544C28.0678 20.6926 28.1281 20.7444 28.1764 20.8066C28.2246 20.8688 28.2597 20.9402 28.2796 21.0164C28.3086 21.1709 28.2786 21.3308 28.1954 21.4642C28.1122 21.5977 27.982 21.6951 27.8304 21.7372Z" fill="#4E4EDE"/>
<path d="M28.559 24.7159L9.93815 29.6562C9.86347 29.6774 9.78531 29.6834 9.70827 29.674C9.63123 29.6645 9.55687 29.6397 9.48956 29.601C9.42226 29.5623 9.36337 29.5106 9.31637 29.4488C9.26936 29.387 9.2352 29.3165 9.21588 29.2413C9.19757 29.1645 9.19469 29.0848 9.2074 29.0068C9.22012 28.9288 9.24817 28.8542 9.28994 28.7871C9.33172 28.7201 9.38638 28.662 9.45076 28.6163C9.51514 28.5705 9.58796 28.5379 9.665 28.5205L28.2858 23.5802C28.4376 23.5372 28.6003 23.5561 28.7382 23.6327C28.8762 23.7093 28.9782 23.8373 29.022 23.9889C29.0486 24.1459 29.0159 24.3072 28.9304 24.4415C28.8448 24.5758 28.7125 24.6736 28.559 24.7159Z" fill="#4E4EDE"/>
<path d="M29.3012 27.6875L10.6804 32.6278C10.5286 32.6708 10.3659 32.6519 10.228 32.5753C10.09 32.4988 9.98797 32.3707 9.94414 32.2191C9.90993 32.0614 9.93939 31.8965 10.0261 31.7603C10.1128 31.6242 10.2498 31.5278 10.4072 31.4921L29.028 26.5518C29.1027 26.5306 29.1809 26.5246 29.2579 26.5341C29.335 26.5435 29.4093 26.5684 29.4766 26.607C29.5439 26.6457 29.6028 26.6974 29.6498 26.7592C29.6968 26.821 29.731 26.8915 29.7503 26.9667C29.7686 27.0435 29.7715 27.1233 29.7588 27.2012C29.7461 27.2792 29.718 27.3538 29.6762 27.4209C29.6345 27.4879 29.5798 27.546 29.5154 27.5918C29.4511 27.6375 29.3782 27.6701 29.3012 27.6875Z" fill="#4E4EDE"/>
<path d="M30.0433 30.661L11.4225 35.6013C11.3474 35.6247 11.2682 35.6327 11.1899 35.6247C11.1116 35.6166 11.0357 35.5928 10.9669 35.5546C10.8981 35.5164 10.8377 35.4646 10.7895 35.4024C10.7412 35.3402 10.7061 35.2688 10.6863 35.1926C10.668 35.1158 10.6651 35.0361 10.6778 34.9581C10.6905 34.8802 10.7186 34.8055 10.7603 34.7385C10.8021 34.6714 10.8568 34.6133 10.9212 34.5676C10.9855 34.5218 11.0584 34.4893 11.1354 34.4718L29.7562 29.5315C29.8314 29.5081 29.9105 29.5001 29.9888 29.5082C30.0671 29.5162 30.143 29.54 30.2118 29.5782C30.2806 29.6165 30.341 29.6682 30.3892 29.7304C30.4375 29.7927 30.4726 29.864 30.4924 29.9402C30.5108 30.017 30.5136 30.0967 30.5009 30.1747C30.4882 30.2527 30.4602 30.3273 30.4184 30.3944C30.3766 30.4614 30.322 30.5195 30.2576 30.5653C30.1932 30.611 30.1204 30.6436 30.0433 30.661Z" fill="#4E4EDE"/>
<path d="M30.581 36.0478C30.471 36.4267 29.8476 36.61 29.1999 36.4389C28.5521 36.2678 28.0999 35.8155 28.2099 35.4367C28.3199 35.0578 28.5888 35.0089 28.9676 34.9844C29.0364 34.8563 29.1456 34.7545 29.2782 34.6949C29.4109 34.6352 29.5595 34.621 29.701 34.6544C29.8409 34.6887 29.9642 34.7712 30.0492 34.8875C30.1341 35.0038 30.1753 35.1463 30.1654 35.29C30.4832 35.4978 30.6543 35.7911 30.581 36.0478Z" fill="white"/>
<path d="M28.4656 34.8736C28.3523 34.8953 28.2349 34.8715 28.1389 34.8075C28.0429 34.7435 27.9759 34.6443 27.9523 34.5314C27.9455 34.4758 27.95 34.4194 27.9656 34.3657C27.9811 34.3119 28.0074 34.2618 28.0428 34.2184C28.0782 34.1751 28.1219 34.1393 28.1715 34.1132C28.2211 34.0872 28.2754 34.0715 28.3312 34.0669C28.4428 34.0449 28.5586 34.0669 28.6543 34.1285C28.75 34.19 28.8182 34.2862 28.8445 34.3969C28.8513 34.4532 28.8469 34.5102 28.8314 34.5647C28.816 34.6192 28.7899 34.6701 28.7547 34.7145C28.7194 34.7588 28.6757 34.7957 28.6261 34.823C28.5765 34.8503 28.5219 34.8675 28.4656 34.8736Z" fill="white"/>
<path d="M31.0574 35.5455C30.9444 35.564 30.8286 35.539 30.7333 35.4755C30.638 35.412 30.5704 35.3147 30.5441 35.2032C30.5373 35.1477 30.5418 35.0913 30.5574 35.0375C30.5729 34.9838 30.5992 34.9337 30.6346 34.8903C30.67 34.8469 30.7137 34.8112 30.7633 34.7851C30.8129 34.7591 30.8672 34.7433 30.923 34.7388C31.0346 34.7168 31.1504 34.7388 31.2461 34.8004C31.3418 34.8619 31.41 34.9581 31.4363 35.0688C31.4431 35.125 31.4386 35.1821 31.4232 35.2366C31.4078 35.2911 31.3817 35.342 31.3465 35.3863C31.3112 35.4307 31.2675 35.4676 31.2179 35.4949C31.1683 35.5222 31.1137 35.5394 31.0574 35.5455Z" fill="white"/>
<path d="M30.4578 34.6543C30.3444 34.676 30.2271 34.6523 30.1311 34.5883C30.0351 34.5243 29.968 34.4251 29.9445 34.3121C29.9377 34.2565 29.9422 34.2002 29.9578 34.1464C29.9733 34.0926 29.9996 34.0426 30.035 33.9992C30.0703 33.9558 30.1141 33.92 30.1637 33.894C30.2132 33.868 30.2675 33.8522 30.3233 33.8477C30.4367 33.826 30.554 33.8497 30.65 33.9137C30.7461 33.9778 30.8131 34.0769 30.8367 34.1899C30.8434 34.2455 30.8389 34.3018 30.8234 34.3556C30.8078 34.4094 30.7816 34.4595 30.7462 34.5028C30.7108 34.5462 30.667 34.582 30.6174 34.608C30.5679 34.6341 30.5136 34.6498 30.4578 34.6543Z" fill="white"/>
<path d="M29.3816 34.3731C29.2683 34.3948 29.1509 34.371 29.0549 34.307C28.9589 34.243 28.8919 34.1438 28.8683 34.0309C28.8615 33.9753 28.866 33.9189 28.8816 33.8652C28.8971 33.8114 28.9234 33.7613 28.9588 33.7179C28.9942 33.6746 29.038 33.6388 29.0875 33.6127C29.1371 33.5867 29.1914 33.571 29.2472 33.5664C29.3605 33.5448 29.4778 33.5685 29.5739 33.6325C29.6699 33.6965 29.7369 33.7957 29.7605 33.9086C29.7673 33.9642 29.7627 34.0206 29.7472 34.0744C29.7316 34.1281 29.7054 34.1782 29.67 34.2216C29.6346 34.265 29.5908 34.3007 29.5413 34.3268C29.4917 34.3528 29.4374 34.3686 29.3816 34.3731Z" fill="white"/>
<path d="M26.9862 33.7633C27.2062 33.8855 27.2062 34.2644 26.9862 34.6066C26.7662 34.9488 26.424 35.1199 26.204 34.9855C25.984 34.851 25.9962 34.7044 26.0451 34.4844C25.9782 34.4293 25.9339 34.3516 25.9204 34.2661C25.9068 34.1805 25.9251 34.0929 25.9718 34.0199C26.0194 33.9444 26.0915 33.8875 26.176 33.8586C26.2605 33.8296 26.3523 33.8305 26.4362 33.861C26.6318 33.7266 26.8396 33.6777 26.9862 33.7633Z" fill="white"/>
<path d="M25.8994 34.7531C25.8875 34.8201 25.8505 34.8801 25.7961 34.9209C25.7417 34.9617 25.6738 34.9804 25.6061 34.9731C25.5717 34.9718 25.538 34.9632 25.5071 34.948C25.4763 34.9327 25.449 34.9111 25.4271 34.8846C25.4052 34.858 25.3891 34.8271 25.3799 34.794C25.3708 34.7608 25.3687 34.726 25.3739 34.692C25.3768 34.6571 25.3869 34.6231 25.4035 34.5923C25.4201 34.5614 25.4428 34.5342 25.4703 34.5125C25.4978 34.4907 25.5295 34.4748 25.5633 34.4657C25.5972 34.4567 25.6325 34.4547 25.6672 34.4598C25.7364 34.469 25.7994 34.5047 25.8427 34.5595C25.8861 34.6142 25.9064 34.6837 25.8994 34.7531Z" fill="white"/>
<path d="M26.755 33.4079C26.743 33.4773 26.7043 33.5392 26.6472 33.5803C26.5901 33.6214 26.5191 33.6385 26.4495 33.6279C26.4161 33.6249 26.3838 33.6152 26.3544 33.5992C26.3249 33.5832 26.2991 33.5614 26.2785 33.5351C26.2579 33.5087 26.2429 33.4784 26.2345 33.446C26.226 33.4136 26.2243 33.3799 26.2295 33.3468C26.2478 33.2866 26.2867 33.2347 26.3394 33.2002C26.3921 33.1657 26.4552 33.1508 26.5178 33.1581C26.5803 33.1653 26.6383 33.1943 26.6817 33.24C26.725 33.2856 26.751 33.3451 26.755 33.4079Z" fill="white"/>
<path d="M26.0944 33.5917C26.0852 33.6609 26.0495 33.7238 25.9947 33.7671C25.94 33.8105 25.8705 33.8308 25.8011 33.8239C25.7331 33.812 25.6719 33.7755 25.6291 33.7215C25.5862 33.6674 25.5648 33.5994 25.5688 33.5305C25.5809 33.4603 25.6191 33.3973 25.6758 33.3542C25.7325 33.3111 25.8035 33.2911 25.8744 33.2983C25.9082 33.3028 25.9409 33.314 25.9703 33.3312C25.9998 33.3485 26.0255 33.3714 26.046 33.3988C26.0665 33.4261 26.0813 33.4572 26.0897 33.4903C26.098 33.5235 26.0996 33.5579 26.0944 33.5917Z" fill="white"/>
<path d="M25.7397 34.154C25.7352 34.1879 25.724 34.2205 25.7068 34.25C25.6895 34.2795 25.6666 34.3052 25.6393 34.3257C25.612 34.3462 25.5808 34.361 25.5477 34.3693C25.5146 34.3776 25.4801 34.3792 25.4464 34.374C25.4126 34.371 25.3798 34.3613 25.3498 34.3454C25.3198 34.3296 25.2933 34.308 25.2717 34.2819C25.2501 34.2558 25.2339 34.2256 25.224 34.1932C25.2141 34.1607 25.2108 34.1267 25.2142 34.0929C25.2233 34.0237 25.2591 33.9608 25.3138 33.9174C25.3686 33.8741 25.438 33.8538 25.5075 33.8607C25.5424 33.8637 25.5764 33.8738 25.6073 33.8903C25.6381 33.9069 25.6653 33.9297 25.6871 33.9571C25.7088 33.9846 25.7247 34.0163 25.7338 34.0501C25.7428 34.084 25.7448 34.1194 25.7397 34.154Z" fill="white"/>
</svg>
