<svg width="16" height="16" viewBox="0 0 16 16" fill="none" xmlns="http://www.w3.org/2000/svg">
<g clip-path="url(#clip0_117_27789)">
<circle cx="8" cy="8" r="8" fill="url(#paint0_radial_117_27789)"/>
<circle cx="8" cy="8" r="7.5" stroke="white" stroke-opacity="0.2"/>
<path d="M4.33333 7.0835H5.25V6.16683H4.33333V7.0835Z" fill="#FED955"/>
<path d="M4.33333 8.9165H5.25V7.99984H4.33333V8.9165Z" fill="#FED955"/>
<path d="M4.33333 8H5.25V7.08333H4.33333V8Z" fill="#FED955"/>
<path d="M4.33333 9.8335H5.25V8.91683H4.33333V9.8335Z" fill="#FED955"/>
<path d="M7.99935 5.25H8.91602V4.33333H7.99935V5.25Z" fill="#FED955"/>
<path d="M7.99935 10.75L8.91602 10.75L8.91602 11.6667L7.99935 11.6667L7.99935 10.75Z" fill="#FED955"/>
<path d="M8.91732 5.25H9.83398V4.33333H8.91732V5.25Z" fill="#FED955"/>
<path d="M9.83333 5.25H10.75V4.33333H9.83333V5.25Z" fill="#9695F8"/>
<path d="M6.16667 5.25L5.25 5.25L5.25 4.33333L6.16667 4.33333L6.16667 5.25Z" fill="#9695F8"/>
<path d="M11.6667 10.75L10.75 10.75L10.75 9.83333L11.6667 9.83333L11.6667 10.75Z" fill="#9695F8"/>
<path d="M4.33333 10.75H5.25V9.83333H4.33333V10.75Z" fill="#9695F8"/>
<path d="M8.91732 4.3335H9.83398V3.41683H8.91732V4.3335Z" fill="#9695F8"/>
<path d="M8.91732 3.4165H9.83398V2.49984H8.91732V3.4165Z" fill="#5552FD"/>
<path d="M8.91732 13.5H9.83398V12.5833H8.91732V13.5Z" fill="#5552FD"/>
<path d="M8.91732 12.5835H9.83398V11.6668H8.91732V12.5835Z" fill="#9695F8"/>
<path d="M7.08333 4.3335H8V3.41683H7.08333V4.3335Z" fill="#9695F8"/>
<path d="M7.08333 3.4165H8V2.49984H7.08333V3.4165Z" fill="#5552FD"/>
<path d="M7.08333 13.5H8V12.5833H7.08333V13.5Z" fill="#5552FD"/>
<path d="M7.08333 12.5835H8V11.6668H7.08333V12.5835Z" fill="#9695F8"/>
<path d="M7.99935 4.3335H8.91602V3.41683H7.99935V4.3335Z" fill="#9695F8"/>
<path d="M7.99935 3.4165H8.91602V2.49984H7.99935V3.4165Z" fill="#5552FD"/>
<path d="M7.99935 13.5H8.91602V12.5833H7.99935V13.5Z" fill="#5552FD"/>
<path d="M7.99935 12.5835H8.91602V11.6668H7.99935V12.5835Z" fill="#9695F8"/>
<path d="M6.16732 4.3335H7.08398V3.41683H6.16732V4.3335Z" fill="#9695F8"/>
<path d="M6.16732 3.4165H7.08398V2.49984H6.16732V3.4165Z" fill="#5552FD"/>
<path d="M6.16732 13.5H7.08398V12.5833H6.16732V13.5Z" fill="#5552FD"/>
<path d="M6.16732 12.5835H7.08398V11.6668H6.16732V12.5835Z" fill="#9695F8"/>
<path d="M10.7494 6.1665H11.666V5.24984H10.7494V6.1665Z" fill="#9695F8"/>
<path d="M5.25065 6.1665L4.33398 6.1665L4.33398 5.24984L5.25065 5.24984L5.25065 6.1665Z" fill="#9695F8"/>
<path d="M10.7506 11.6665L9.83398 11.6665L9.83398 10.7498L10.7506 10.7498L10.7506 11.6665Z" fill="#9695F8"/>
<path d="M5.24935 11.6665H6.16602V10.7498H5.24935V11.6665Z" fill="#9695F8"/>
<path d="M11.6673 7.0835H12.584V6.16683H11.6673V7.0835Z" fill="#9695F8"/>
<path d="M3.41732 7.0835H4.33398V6.16683H3.41732V7.0835Z" fill="#9695F8"/>
<path d="M2.49935 7.0835H3.41602V6.16683H2.49935V7.0835Z" fill="#5552FD"/>
<path d="M3.41732 6.1665H4.33398V5.24984H3.41732V6.1665Z" fill="#5552FD"/>
<path d="M12.5827 6.1665L11.666 6.1665L11.666 5.24984L12.5827 5.24984L12.5827 6.1665Z" fill="#5552FD"/>
<path d="M9.83333 12.5835H10.75V11.6668H9.83333V12.5835Z" fill="#5552FD"/>
<path d="M3.41602 9.83333V10.75H4.33268V9.83333H3.41602Z" fill="#5552FD"/>
<path d="M4.33333 5.25H5.25V4.33333H4.33333V5.25Z" fill="#5552FD"/>
<path d="M11.6667 5.25L10.75 5.25L10.75 4.33333L11.6667 4.33333L11.6667 5.25Z" fill="#5552FD"/>
<path d="M10.7494 11.6665H11.666V10.7498H10.7494V11.6665Z" fill="#5552FD"/>
<path d="M4.33398 10.7498V11.6665H5.25065V10.7498H4.33398Z" fill="#5552FD"/>
<path d="M5.24935 4.3335H6.16602V3.41683H5.24935V4.3335Z" fill="#5552FD"/>
<path d="M10.7506 4.3335L9.83398 4.3335L9.83398 3.41683L10.7506 3.41683L10.7506 4.3335Z" fill="#5552FD"/>
<path d="M11.6673 10.75H12.584V9.83333H11.6673V10.75Z" fill="#5552FD"/>
<path d="M5.25 11.6668V12.5835H6.16667V11.6668H5.25Z" fill="#5552FD"/>
<path d="M12.5833 7.0835H13.5V6.16683H12.5833V7.0835Z" fill="#5552FD"/>
<path d="M11.6673 8H12.584V7.08333H11.6673V8Z" fill="#9695F8"/>
<path d="M3.41732 8H4.33398V7.08333H3.41732V8Z" fill="#9695F8"/>
<path d="M2.49935 8H3.41602V7.08333H2.49935V8Z" fill="#5552FD"/>
<path d="M12.5833 8H13.5V7.08333H12.5833V8Z" fill="#5552FD"/>
<path d="M11.6673 8.9165H12.584V7.99984H11.6673V8.9165Z" fill="#9695F8"/>
<path d="M3.41732 8.9165H4.33398V7.99984H3.41732V8.9165Z" fill="#9695F8"/>
<path d="M2.49935 8.9165H3.41602V7.99984H2.49935V8.9165Z" fill="#5552FD"/>
<path d="M12.5833 8.9165H13.5V7.99984H12.5833V8.9165Z" fill="#5552FD"/>
<path d="M11.6673 9.8335H12.584V8.91683H11.6673V9.8335Z" fill="#9695F8"/>
<path d="M3.41732 9.8335H4.33398V8.91683H3.41732V9.8335Z" fill="#9695F8"/>
<path d="M2.49935 9.8335H3.41602V8.91683H2.49935V9.8335Z" fill="#5552FD"/>
<path d="M12.5833 9.8335H13.5V8.91683H12.5833V9.8335Z" fill="#5552FD"/>
<path d="M8.91732 10.75L9.83398 10.75L9.83398 11.6667L8.91732 11.6667L8.91732 10.75Z" fill="#FED955"/>
<path d="M7.99935 7.0835H8.91602V6.16683H7.99935V7.0835Z" fill="#FED955"/>
<path d="M7.99935 8.9165H8.91602V7.99984H7.99935V8.9165Z" fill="#FED955"/>
<path d="M7.99935 9.8335H8.91602V8.91683H7.99935V9.8335Z" fill="#FED955"/>
<path d="M7.99935 6.1665H8.91602V5.24984H7.99935V6.1665Z" fill="#FED955"/>
<path d="M7.99935 9.8335L8.91602 9.8335L8.91602 10.7502L7.99935 10.7502L7.99935 9.8335Z" fill="#FED955"/>
<path d="M6.16732 8.9165H7.08398V7.99984H6.16732V8.9165Z" fill="#FED955"/>
<path d="M6.16732 8H7.08398V7.08333H6.16732V8Z" fill="#FED955"/>
<path d="M6.16732 9.8335H7.08398V8.91683H6.16732V9.8335Z" fill="#FED955"/>
<path d="M6.16732 6.1665H7.08398V5.24984H6.16732V6.1665Z" fill="#FED955"/>
<path d="M6.16732 9.8335L7.08398 9.8335L7.08398 10.7502L6.16732 10.7502L6.16732 9.8335Z" fill="#FED955"/>
<path d="M8.91732 8.9165H9.83398V7.99984H8.91732V8.9165Z" fill="#FED955"/>
<path d="M8.91732 8H9.83398V7.08333H8.91732V8Z" fill="#FED955"/>
<path d="M8.91732 9.8335H9.83398V8.91683H8.91732V9.8335Z" fill="#FED955"/>
<path d="M8.91732 6.1665H9.83398V5.24984H8.91732V6.1665Z" fill="#FED955"/>
<path d="M8.91732 9.8335L9.83398 9.8335L9.83398 10.7502L8.91732 10.7502L8.91732 9.8335Z" fill="#FED955"/>
<path d="M7.08333 5.25H8V4.33333H7.08333V5.25Z" fill="#FED955"/>
<path d="M7.08333 10.75L8 10.75L8 11.6667L7.08333 11.6667L7.08333 10.75Z" fill="#FED955"/>
<path d="M6.16732 5.25H7.08398V4.33333H6.16732V5.25Z" fill="#FED955"/>
<path d="M6.16732 10.75L7.08398 10.75L7.08398 11.6667L6.16732 11.6667L6.16732 10.75Z" fill="#FED955"/>
<path d="M7.08333 7.0835H8V6.16683H7.08333V7.0835Z" fill="#FED955"/>
<path d="M7.08333 8.9165H8V7.99984H7.08333V8.9165Z" fill="#FED955"/>
<path d="M6.16732 7.0835H7.08398V6.16683H6.16732V7.0835Z" fill="#5552FD"/>
<path d="M7.99935 8H8.91602V7.08333H7.99935V8Z" fill="#5552FD"/>
<path d="M9.83333 7.0835H10.75V6.16683H9.83333V7.0835Z" fill="#5552FD"/>
<path d="M9.83333 8.9165H10.75V7.99984H9.83333V8.9165Z" fill="#5552FD"/>
<path d="M9.83333 8H10.75V7.08333H9.83333V8Z" fill="#5552FD"/>
<path d="M9.83333 9.8335H10.75V8.91683H9.83333V9.8335Z" fill="#5552FD"/>
<path d="M9.83333 6.1665H10.75V5.24984H9.83333V6.1665Z" fill="#5552FD"/>
<path d="M9.83333 9.8335L10.75 9.8335L10.75 10.7502L9.83334 10.7502L9.83333 9.8335Z" fill="#5552FD"/>
<path d="M5.24935 7.0835H6.16602V6.16683H5.24935V7.0835Z" fill="#5552FD"/>
<path d="M5.24935 8.9165H6.16602V7.99984H5.24935V8.9165Z" fill="#5552FD"/>
<path d="M5.24935 8H6.16602V7.08333H5.24935V8Z" fill="#5552FD"/>
<path d="M5.24935 9.8335H6.16602V8.91683H5.24935V9.8335Z" fill="#5552FD"/>
<path d="M5.24935 6.1665H6.16602V5.24984H5.24935V6.1665Z" fill="#5552FD"/>
<path d="M5.24935 9.8335L6.16602 9.8335L6.16602 10.7502L5.24935 10.7502L5.24935 9.8335Z" fill="#5552FD"/>
<path d="M8.91732 7.0835H9.83398V6.16683H8.91732V7.0835Z" fill="#5552FD"/>
<path d="M7.08333 8H8V7.08333H7.08333V8Z" fill="#5552FD"/>
<path d="M7.08333 9.8335H8V8.91683H7.08333V9.8335Z" fill="#FED955"/>
<path d="M7.08333 6.1665H8V5.24984H7.08333V6.1665Z" fill="#FED955"/>
<path d="M7.08333 9.8335L8 9.8335L8 10.7502L7.08333 10.7502L7.08333 9.8335Z" fill="#FED955"/>
<path d="M10.7494 7.0835H11.666V6.16683H10.7494V7.0835Z" fill="#FED955"/>
<path d="M10.7494 8.9165H11.666V7.99984H10.7494V8.9165Z" fill="#FED955"/>
<path d="M10.7494 8H11.666V7.08333H10.7494V8Z" fill="#FED955"/>
<path d="M10.7494 9.8335H11.666V8.91683H10.7494V9.8335Z" fill="#FED955"/>
</g>
<defs>
<radialGradient id="paint0_radial_117_27789" cx="0" cy="0" r="1" gradientUnits="userSpaceOnUse" gradientTransform="translate(8 8) rotate(90) scale(8)">
<stop stop-color="#786EBC"/>
<stop offset="1" stop-color="#180845"/>
</radialGradient>
<clipPath id="clip0_117_27789">
<rect width="16" height="16" fill="white"/>
</clipPath>
</defs>
</svg>
