<svg width="16" height="16" viewBox="0 0 16 16" fill="none" xmlns="http://www.w3.org/2000/svg">
<g clip-path="url(#clip0_117_27778)">
<circle cx="8" cy="8" r="8" fill="url(#paint0_radial_117_27778)"/>
<circle cx="8" cy="8" r="7.5" stroke="white" stroke-opacity="0.2"/>
<path d="M10.1997 9.26233C10.1997 8.09652 9.50005 7.69672 8.10075 7.5296C7.10125 7.39607 6.90135 7.1298 6.90135 6.66364C6.90135 6.19747 7.23478 5.89762 7.90085 5.89762C8.50055 5.89762 8.83398 6.09752 9.0003 6.59727C9.03388 6.69722 9.13383 6.76359 9.23378 6.76359H9.76711C9.90065 6.76359 10.0006 6.66364 10.0006 6.5301V6.49652C9.86706 5.76329 9.26736 5.19717 8.50135 5.13081V4.33121C8.50135 4.19767 8.4014 4.09772 8.23508 4.06494H7.73533C7.6018 4.06494 7.50185 4.16489 7.46906 4.33121V5.09722C6.46956 5.23076 5.83628 5.89682 5.83628 6.73C5.83628 7.82945 6.50234 8.26283 7.90164 8.42915C8.83478 8.59547 9.13463 8.79537 9.13463 9.3287C9.13463 9.86203 8.66846 10.2282 8.03518 10.2282C7.16921 10.2282 6.86936 9.86203 6.76941 9.36228C6.73583 9.22875 6.63588 9.16238 6.53593 9.16238H5.96981C5.83628 9.16238 5.73633 9.26233 5.73633 9.39586V9.42945C5.86986 10.2626 6.40239 10.8623 7.50184 11.0286V11.8282C7.50184 11.9618 7.6018 12.0617 7.76811 12.0945H8.26786C8.4014 12.0945 8.50135 11.9946 8.53413 11.8282V11.0286C9.53283 10.8615 10.1997 10.1619 10.1997 9.26233Z" fill="white"/>
<path d="M6.30262 12.7606C3.70392 11.8275 2.37098 8.92893 3.3377 6.3638C3.83745 4.9645 4.9369 3.89863 6.30262 3.39888C6.43615 3.33251 6.50252 3.23256 6.50252 3.06544V2.59928C6.50252 2.46574 6.43615 2.36579 6.30262 2.33301C6.26903 2.33301 6.20267 2.33301 6.16908 2.36659C3.00427 3.36609 1.27153 6.73082 2.27103 9.89645C2.87073 11.7619 4.30362 13.1948 6.16908 13.7945C6.30262 13.8609 6.43535 13.7945 6.46893 13.661C6.50252 13.6274 6.50252 13.5946 6.50252 13.5274V13.0613C6.50252 12.9605 6.40257 12.8278 6.30262 12.7606ZM9.83365 2.36579C9.70012 2.29942 9.56738 2.36579 9.5338 2.49933C9.50022 2.53291 9.50022 2.56569 9.50022 2.63286V3.09903C9.50022 3.23256 9.60017 3.36529 9.70012 3.43246C12.2988 4.3656 13.6318 7.26416 12.665 9.82928C12.1653 11.2286 11.0658 12.2945 9.70012 12.7942C9.56659 12.8606 9.50022 12.9605 9.50022 13.1276V13.5938C9.50022 13.7273 9.56659 13.8273 9.70012 13.8601C9.7337 13.8601 9.80007 13.8601 9.83365 13.8265C12.9985 12.827 14.7312 9.46226 13.7317 6.29664C13.132 4.39838 11.6663 2.96549 9.83365 2.36579Z" fill="white"/>
</g>
<defs>
<radialGradient id="paint0_radial_117_27778" cx="0" cy="0" r="1" gradientUnits="userSpaceOnUse" gradientTransform="translate(8 8) rotate(90) scale(8)">
<stop stop-color="#65A0F3"/>
<stop offset="1" stop-color="#2775CA"/>
</radialGradient>
<clipPath id="clip0_117_27778">
<rect width="16" height="16" fill="white"/>
</clipPath>
</defs>
</svg>
