<svg width="317" height="268" viewBox="0 0 317 268" fill="none" xmlns="http://www.w3.org/2000/svg"><path d="M195.093 22.738l-70.476-.66a121.62 121.62 0 00-2.277 243.231l70.475.66a121.622 121.622 0 002.278-243.231zm-2.216 236.645l-70.475-.659a115.035 115.035 0 012.154-230.061l70.475.66a115.034 115.034 0 0179.5 197.131 115.033 115.033 0 01-81.654 32.929z" fill="#1E1E72"/><path d="M308.985 145.43a115.176 115.176 0 01-116.108 113.954l-70.475-.66a115.035 115.035 0 012.154-230.061l70.475.66A115.174 115.174 0 01308.985 145.43z" fill="#4238AA"/><path d="M188.423 166.441a.704.704 0 00-.835-.569l-7.286-.068a.978.978 0 00-.801.468.98.98 0 00-.053.925 24.25 24.25 0 012.564 10.534 12.753 12.753 0 01-3.024 8.659 9.386 9.386 0 01-7.456 3.153 9.109 9.109 0 01-7.674-3.435c-1.801-2.259-2.61-5.629-2.569-9.973l-.14-.001a3.643 3.643 0 00-3.614-3.116 3.782 3.782 0 00-3.817 3.607l-.032 3.363a11.629 11.629 0 01-2.438 6.002 9.115 9.115 0 01-7.738 3.291 9.394 9.394 0 01-7.395-3.293 12.744 12.744 0 01-2.861-8.714 26.475 26.475 0 012.76-10.483.978.978 0 00-.827-1.409l-7.286-.068a.837.837 0 00-.846.552 28.578 28.578 0 00-2.919 12.444c-.06 6.445 1.574 11.504 4.902 15.179a17.52 17.52 0 0013.54 5.591 17.08 17.08 0 008.846-2.019 16.668 16.668 0 005.233-5.135.694.694 0 01.286-.32.695.695 0 01.418-.094l.281.003a.695.695 0 01.696.427 16.679 16.679 0 005.136 5.232 17.09 17.09 0 008.807 2.184 17.52 17.52 0 0013.642-5.337c3.397-3.611 5.125-8.639 5.186-15.084a28.588 28.588 0 00-2.686-12.496z" fill="#09052E"/><path d="M293.237 76.343a126.67 126.67 0 003.17-54.198c-.797-4.631-2.014-9.407-5.489-12.382-3.475-2.975-11.74-3.193-17.641-1.567a113.075 113.075 0 00-44.634 22.983" fill="#4238AA"/><path d="M297.29 77.502a136.473 136.473 0 004.496-46.199 83.759 83.759 0 00-2.247-14.453 19.196 19.196 0 00-7.737-11.703 21.017 21.017 0 00-12.729-2.361c-9.118 1.036-18.117 4.454-26.421 8.3a121.061 121.061 0 00-27.063 17.122 4.482 4.482 0 00-.057 6.025 4.484 4.484 0 006.025.056 106.346 106.346 0 0144.068-22.427 19.056 19.056 0 0110.092-.326 8.968 8.968 0 015.405 6.356 61.655 61.655 0 012.127 12.35c.375 4.768.612 9.394.568 14.158a127.84 127.84 0 01-4.632 30.784c-1.45 5.17 6.515 7.487 8.105 2.318z" fill="#1E1E72"/><path d="M23.938 74.662a125.824 125.824 0 01-2.156-54.108c.884-4.615 2.19-9.367 5.72-12.277 3.53-2.91 11.798-2.972 17.668-1.376a116.717 116.717 0 0144.335 23.956" fill="#4238AA"/><path d="M28.01 73.72a123.023 123.023 0 01-3.944-27.642 107.332 107.332 0 012.352-26.741c.59-3.218 1.744-6.71 4.422-8.366 2.678-1.657 6.04-1.485 8.976-.897a85.61 85.61 0 0123.324 8.205A112.095 112.095 0 0186.395 33.77a4.344 4.344 0 006.025.057 4.203 4.203 0 00.055-5.885 116.44 116.44 0 00-23.53-16.054A103.546 103.546 0 0043.254 2.12c-4.476-.882-9.376-1.349-13.735.292a16.673 16.673 0 00-9.76 9.717 54.51 54.51 0 00-2.929 13.565 109.709 109.709 0 00-1.122 15.122 122.463 122.463 0 004.297 34.93c1.35 5.338 9.498 3.173 8.006-2.026z" fill="#1E1E72"/><path d="M155.846 69.031c27.392.256 49.669-7.063 49.756-16.349.087-9.285-22.049-17.02-49.442-17.277-27.392-.257-49.669 7.063-49.756 16.348-.087 9.286 22.049 17.022 49.442 17.278z" fill="#4D4ABC"/><path d="M193.091 236.546l-70.476-.66a115.18 115.18 0 01-113.5-104.613c-.316 3.78-.631 7.56-.667 11.343a115.176 115.176 0 00113.954 116.108l70.475.659A115.172 115.172 0 00308.984 145.43c.059-3.79-.093-7.58-.454-11.354a115.172 115.172 0 01-115.439 102.47z" fill="#2F2D8E"/><path d="M231.606 153.575c19.973-3.906 32.518-25.726 28.018-48.738-4.499-23.011-24.339-38.5-44.312-34.594-19.974 3.905-32.518 25.726-28.019 48.737 4.5 23.012 24.339 38.5 44.313 34.595zm-105.019-35.016c4.929-22.924-7.204-44.975-27.102-49.254-19.897-4.279-40.023 10.835-44.952 33.759-4.93 22.923 7.204 44.975 27.1 49.254 19.898 4.278 40.024-10.836 44.954-33.759z" fill="#FEFFFF"/><path d="M97.596 109.541c11.22.105 20.401-8.905 20.506-20.125.105-11.22-8.905-20.401-20.125-20.507-11.22-.105-20.401 8.906-20.507 20.126-.105 11.22 8.906 20.401 20.126 20.506zm118.954 1.114c11.22.105 20.401-8.905 20.506-20.126.105-11.22-8.906-20.4-20.126-20.506-11.22-.105-20.401 8.906-20.506 20.126-.105 11.22 8.906 20.401 20.126 20.506z" fill="#09052E"/><path d="M259.479 105.032a44.559 44.559 0 00-19.201-29.465 45.677 45.677 0 0111.278 22.665c4.41 22.881-8.126 44.763-28.059 48.64a33.626 33.626 0 01-25.034-5.139c8.599 9.469 20.744 14.347 32.957 11.939 20.074-3.876 32.609-25.758 28.059-48.64z" fill="#D4D9F4"/><path d="M226.079 110.464a7.986 7.986 0 10.15-15.972 7.986 7.986 0 00-.15 15.972zm-17.148-24.261a4.064 4.064 0 10.076-8.128 4.064 4.064 0 00-.076 8.128zM87.93 109.171a7.987 7.987 0 10.15-15.973 7.987 7.987 0 00-.15 15.973zm17.741-23.935a4.063 4.063 0 10.076-8.126 4.063 4.063 0 00-.076 8.126z" fill="#FEFFFF"/><path d="M54.358 103.111a45.539 45.539 0 0119.75-29.1 46.659 46.659 0 00-11.56 22.451c-4.978 22.793 7.286 44.907 27.144 49.157a33.626 33.626 0 0025.125-4.669c-8.775 9.306-21.009 13.955-33.315 11.318-19.857-4.249-31.981-26.362-27.144-49.157z" fill="#D4D9F4"/><path d="M66.596 158.014c26.464.247 47.973-5.448 48.041-12.722.068-7.274-21.33-13.371-47.795-13.619-26.464-.248-47.972 5.448-48.04 12.722-.069 7.273 21.33 13.371 47.794 13.619zm173.176 1.621c26.464.248 47.972-5.448 48.041-12.722.068-7.273-21.331-13.371-47.795-13.619-26.464-.247-47.973 5.448-48.041 12.722-.068 7.274 21.33 13.371 47.795 13.619z" fill="#4238AA"/><path d="M69.072 147.948c8.967.084 16.944 1.14 24.618 4.574a19.05 19.05 0 016.963 4.69 6.866 6.866 0 01-.658 10.362 27.467 27.467 0 01-12.528 6.049 69.648 69.648 0 01-38.242-1.199c-4.051-1.299-8.1-2.879-10.864-6.968a6.305 6.305 0 01.359-8.404 18.085 18.085 0 017.333-4.976 59.547 59.547 0 0123.019-4.128zm178.36 1.67c8.827.083 16.804 1.138 24.619 4.574a18.653 18.653 0 016.822 4.688c3.051 3.392 2.734 7.312-.658 10.363-3.391 3.051-8.033 4.969-12.527 6.048a69.63 69.63 0 01-38.242-1.199c-4.052-1.299-7.96-2.877-10.865-6.967-2.904-4.091-1.909-5.623.499-8.403a18.09 18.09 0 017.333-4.976 59.132 59.132 0 0123.019-4.128z" fill="#F0877F"/></svg>