<svg width="139" height="102" viewBox="0 0 139 102" fill="none" xmlns="http://www.w3.org/2000/svg"><path d="M129.054 25.763v20.704c0 2.588-1.841 4.907-4.613 5.735a34.823 34.823 0 01-10.117 1.512h-.526a35.19 35.19 0 01-9.631-1.512c-2.731-.849-4.552-3.147-4.552-5.735V25.763c0-2.526 1.72-4.74 4.411-5.673l.141-.04.729-.229c.266.27.557.513.87.725l-1.032.31-.324.104c-2.286.787-3.743 2.67-3.743 4.803v20.704c0 2.195 1.538 4.141 3.844 4.845a33.49 33.49 0 0019.586.02c2.347-.724 3.905-2.67 3.905-4.865V25.64c0-.145-.02-.269-.02-.414-.223-1.884-1.639-3.54-3.642-4.224l-.405-.144-1.092-.332.283-.269c.106-.13.201-.268.283-.414l.041-.103h.02l.202.062.83.269.222.083c1.882.642 3.298 2.008 3.946 3.644.247.625.377 1.292.384 1.966zm-4.795-8.757c-.344-1.595-6.05-2.174-9.935-2.174-3.884 0-8.801.497-9.772 1.863a.773.773 0 00-.162.456c0 .33.222.62.607.87 1.619 1.055 6.11 1.47 9.327 1.47 3.218 0 7.73-.415 9.348-1.47.385-.25.607-.54.607-.87a.34.34 0 00-.02-.145zm-9.935 1.863c-6.13 0-9.327-1.118-9.327-1.718 0-.6 3.197-1.698 9.327-1.698 6.131 0 9.348 1.118 9.348 1.698 0 .58-3.217 1.718-9.348 1.718z" fill="#4239AB"/><path d="M123.672 17.15c0 .601-3.217 1.719-9.348 1.719-6.13 0-9.327-1.118-9.327-1.718 0-.6 3.197-1.698 9.327-1.698 6.131 0 9.348 1.118 9.348 1.698z" fill="#39309F"/><path d="M124.502 19.946v.103c-.033.168-.1.327-.198.467a1.18 1.18 0 01-.369.34c-1.699 1.222-6.717 1.574-9.611 1.574-2.893 0-7.891-.352-9.59-1.573a1.191 1.191 0 01-.567-.808v-.103a.905.905 0 01.223-.58l.202-.207.304.31.101.083.162.145.141.124a.141.141 0 00-.057.051.159.159 0 00-.024.074c0 .455 3.096 1.552 9.105 1.552 4.897 0 7.851-.724 8.802-1.242.223-.124.324-.228.324-.31 0-.083-.02-.063-.041-.104-.02-.041-.04-.02-.04-.041l.081-.062h.06l.162-.145a2.71 2.71 0 00.223-.29l.101-.166c.108.073.204.164.283.27.132.148.21.338.223.538z" fill="#4239AB"/><path d="M104.997 16.695h-.607v3.097h.607v-3.097z" fill="#4239AB"/><path d="M123.672 18.02v1.532l-.162.145h-.06l-.081.062c0 .021.02.021.04.042a2.89 2.89 0 01-.283.414c-.951.517-3.905 1.242-8.802 1.242-6.009 0-9.105-1.097-9.105-1.553a.159.159 0 01.024-.073.141.141 0 01.057-.051l-.141-.124-.162-.145v-1.49c1.618 1.055 6.11 1.47 9.327 1.47 3.218 0 7.73-.415 9.348-1.47z" fill="#39309F"/><path d="M124.279 17.006h-.607v2.786h.607v-2.786z" fill="#4239AB"/><path d="M128.002 25.64c-.02-.063-.02-.125-.04-.187a.83.83 0 01.02-.228c-.223-1.884-1.639-3.54-3.642-4.224l-.405-.144c-1.699 1.221-6.717 1.573-9.611 1.573-2.893 0-7.891-.352-9.59-1.573l-.324.103c-2.286.787-3.743 2.67-3.743 4.803V40.07c0-.02.02-.02.04-.02.366-.13.764-.132 1.13-.004.367.127.681.376.894.707.087.127.155.267.202.414l.061.228a.182.182 0 00.141.124.97.97 0 01.344.124h.021c.249.112.469.283.642.5.172.215.292.47.349.743.03.122.05.246.061.372a2.34 2.34 0 01-.041.373 1.77 1.77 0 01-.769 1.18c-.191.128-.404.22-.627.27h-.061l-.445.04h-1.942v1.346c0 2.195 1.538 4.141 3.844 4.845a33.49 33.49 0 0019.586.02c2.347-.724 3.905-2.67 3.905-4.865V25.64z" fill="#5959FF"/><path d="M107.124 43.861c-.003.125-.017.25-.04.373a1.79 1.79 0 01-.264.673 1.734 1.734 0 01-.505.507 1.86 1.86 0 01-.628.269h-.06l-.445.041h-6.374a1.772 1.772 0 01-1.01-.306 1.834 1.834 0 01-.8-1.6 1.832 1.832 0 01.679-1.357c.202-.162.436-.278.686-.339.101-.02.121-.062.142-.166a2.447 2.447 0 01.742-1.66 2.338 2.338 0 011.665-.658c.453.007.894.143 1.275.393.149.107.285.232.405.373l.243.31c.06.083.08.104.161.062l.243-.103h.041a1.7 1.7 0 011.129-.004c.367.128.681.377.894.708.087.127.156.266.202.414l.061.227a.19.19 0 00.054.082.18.18 0 00.088.043.975.975 0 01.344.124h.02c.25.112.47.283.642.499.172.216.292.47.349.743.029.116.05.233.061.352z" fill="#fff"/><path d="M122.195 37.275a8.154 8.154 0 00-1.295-3.934 7.78 7.78 0 00-4.962-3.375 7.646 7.646 0 00-5.842 1.201 7.306 7.306 0 00-2.145 2.195 7.83 7.83 0 00-1.174 2.878 8.142 8.142 0 001.18 5.972 7.807 7.807 0 004.951 3.386 8.73 8.73 0 001.477.165h.061l.769-.041a7.724 7.724 0 003.541-1.325c.203-.133.399-.278.586-.435l.304-.269.364-.352.101-.124a7.847 7.847 0 001.943-3.892c.086-.388.134-.783.141-1.18.02-.29.02-.58 0-.87zm-.951 1.884a7.175 7.175 0 01-1.893 3.658 6.92 6.92 0 01-3.563 1.963 6.814 6.814 0 01-4.027-.396 6.997 6.997 0 01-3.131-2.622 7.244 7.244 0 01-1.178-3.96 7.238 7.238 0 011.174-3.962 7 7 0 013.128-2.624 6.815 6.815 0 014.027-.4 6.708 6.708 0 012.503 1.043 6.87 6.87 0 011.908 1.958 7.148 7.148 0 011.048 2.563c.181.917.182 1.861.004 2.779z" fill="#A49FDA"/><path d="M120.192 33.817a6.872 6.872 0 00-1.908-1.959 6.708 6.708 0 00-2.503-1.043 6.8 6.8 0 00-4.626.708 7.048 7.048 0 00-3.137 3.551 7.259 7.259 0 00-.221 4.781 7.087 7.087 0 002.794 3.84 6.817 6.817 0 004.54 1.152 6.878 6.878 0 004.224-2.057 7.178 7.178 0 001.988-4.333 7.232 7.232 0 00-1.151-4.64zm-.445 5.052a5.615 5.615 0 01-1.885 3.202 5.39 5.39 0 01-3.436 1.27c-.355 0-.708-.042-1.052-.124a5.408 5.408 0 01-3.308-2.132 5.645 5.645 0 01.711-7.427 5.352 5.352 0 013.649-1.435 4.69 4.69 0 011.052.124 5.297 5.297 0 011.96.814c.594.402 1.104.92 1.5 1.526a5.715 5.715 0 01.809 4.182z" fill="#C8C5E9"/><path d="M118.938 34.687a5.426 5.426 0 00-1.5-1.526 5.297 5.297 0 00-1.96-.814 4.69 4.69 0 00-1.052-.124 5.352 5.352 0 00-3.649 1.435 5.645 5.645 0 00-.711 7.427 5.408 5.408 0 003.308 2.132c.344.082.697.124 1.052.124a5.39 5.39 0 003.436-1.27 5.615 5.615 0 001.885-3.202 5.715 5.715 0 00-.809-4.182zm.485 4.1a5.264 5.264 0 01-1.384 2.68 5.065 5.065 0 01-2.609 1.441 4.99 4.99 0 01-2.95-.287 5.127 5.127 0 01-2.296-1.919 5.299 5.299 0 01-.865-2.9 5.302 5.302 0 01.857-2.904 5.129 5.129 0 012.291-1.924 4.992 4.992 0 012.95-.295 5.095 5.095 0 013.234 2.208 5.314 5.314 0 01.772 3.9z" fill="#A49FDA"/><path d="M115.417 32.678a4.971 4.971 0 00-2.932.305 5.108 5.108 0 00-2.274 1.92 5.283 5.283 0 00-.848 2.887 5.284 5.284 0 00.861 2.885 5.11 5.11 0 002.282 1.908c.929.392 1.95.493 2.934.29a5.046 5.046 0 002.597-1.425 5.23 5.23 0 001.386-2.662 5.314 5.314 0 00-.772-3.899 5.096 5.096 0 00-3.234-2.209zm-.405 2.568a.736.736 0 01.799.19.775.775 0 01-.123 1.164.737.737 0 01-1.1-.319.794.794 0 010-.609.776.776 0 01.424-.426zm-1.982 0a.753.753 0 01.851.124c.076.07.137.154.18.248a.824.824 0 01.001.601.804.804 0 01-.698.513.75.75 0 01-.559-.202.773.773 0 01-.196-.856.745.745 0 01.421-.428zm-1.72 2.38a.785.785 0 01-.016-.606.76.76 0 01.42-.428.756.756 0 01.852.124c.076.07.137.154.18.248a.824.824 0 01.001.6.804.804 0 01-.698.513.75.75 0 01-.559-.202.773.773 0 01-.18-.248zm3.035 2.9c-1.214 0-2.185-.622-2.185-1.367s.445-.953 1.092-1.201c.047-.261.182-.497.382-.668.2-.17.451-.263.711-.264.258.005.508.1.707.269.198.17.335.403.385.663.648.248 1.073.683 1.073 1.2 0 .518-.972 1.367-2.165 1.367zm2.731-2.527a.753.753 0 01-.852-.124.784.784 0 01-.029-1.114.756.756 0 01.254-.17.756.756 0 01.852.125.789.789 0 01.249.55.775.775 0 01-.22.564.754.754 0 01-.254.17z" fill="#C8C5E9"/><path d="M116.51 39.159c0 .745-.972 1.366-2.165 1.366-1.194 0-2.186-.62-2.186-1.366 0-.745.446-.953 1.093-1.201.047-.261.182-.497.382-.668.2-.17.451-.263.711-.264.258.005.508.1.707.269.198.17.335.403.385.663.648.248 1.073.683 1.073 1.2zM112.342 38a.758.758 0 01-1.032-.373.785.785 0 01-.016-.607.76.76 0 01.42-.428.756.756 0 01.852.124c.076.07.137.154.18.248a.824.824 0 01.001.6.804.804 0 01-.405.435zm4.734 0a.753.753 0 01-.852-.125.784.784 0 01-.029-1.114.756.756 0 01.254-.17.756.756 0 01.852.125.789.789 0 01.249.55.775.775 0 01-.22.564.754.754 0 01-.254.17zm-1.457-1.346a.731.731 0 01-.798-.19.767.767 0 01-.195-.391.79.79 0 01.046-.435.76.76 0 01.272-.339.732.732 0 01.82-.011.76.76 0 01.28.33.794.794 0 010 .61.776.776 0 01-.425.426zm-1.962 0a.758.758 0 01-1.032-.373.775.775 0 01.151-.865.745.745 0 01.254-.17.753.753 0 01.851.124c.076.07.137.154.18.248a.824.824 0 01.001.601.804.804 0 01-.405.435z" fill="#A49FDA"/><path opacity=".48" d="M128.002 25.64c-.02-.063-.02-.125-.04-.187a.83.83 0 01.02-.228 5.332 5.332 0 00-.526-1.636 43.33 43.33 0 00-2.246 1.553l-.182.166a58.427 58.427 0 01-5.2 4.865 56.23 56.23 0 01-2.347 2.05c-2.833 2.567-5.767 4.969-8.781 7.309a156.018 156.018 0 01-3.481 2.712l-.748.538a.194.194 0 01.02.104c.03.122.05.247.061.372a2.34 2.34 0 01-.041.373 1.77 1.77 0 01-.769 1.18c-.191.128-.404.22-.627.27h-.061l-.445.04h-1.214l-.728.56v.786c0 2.195 1.538 4.141 3.844 4.845l.749.207c2.914-2.008 5.807-4.058 8.518-6.356 4.795-4.1 8.964-8.985 14.224-12.505v-7.019zm-17.785 26.894c1.196.145 2.398.228 3.602.248h.789c1.841-1.863 3.642-3.768 5.463-5.631 1.821-1.864 3.419-3.313 5.2-4.866.89-.931 1.801-1.863 2.731-2.774v-2.319a120.797 120.797 0 01-17.785 15.342z" fill="#fff"/><path d="M97.065 23.507a.868.868 0 000 .227c.065.286.23.537.466.704.118.077.248.132.384.166h4.128a1.09 1.09 0 00.604-.188 1.13 1.13 0 00.407-.495 1.116 1.116 0 00-.344-1.249 1.068 1.068 0 00-.404-.2c-.061-.021-.081-.042-.081-.104a1.466 1.466 0 00-.443-.992c-.268-.26-.625-.4-.994-.395a1.356 1.356 0 00-1.032.455l-.141.187c-.02.041-.04.062-.101.02l-.122-.041h-.04a1.03 1.03 0 00-.676-.004 1.05 1.05 0 00-.538.418l-.122.228c-.02.041-.02.103-.04.145-.02.041-.02.062-.081.062l-.202.083a1.055 1.055 0 00-.39.298c-.106.13-.18.283-.217.447a.863.863 0 00-.02.228z" fill="#fff"/><path d="M96 48.788v35.761c0 4.47-3.255 8.475-8.154 9.906a62.868 62.868 0 01-17.881 2.61h-.93a63.512 63.512 0 01-17.022-2.61c-4.828-1.466-8.047-5.436-8.047-9.906V48.788c0-4.363 3.04-8.19 7.796-9.799l.25-.072 1.288-.393c.47.466.986.885 1.538 1.252l-1.824.536-.572.179c-4.041 1.359-6.616 4.613-6.616 8.297v35.761c0 3.79 2.718 7.152 6.795 8.368a60.508 60.508 0 0034.617.036c4.148-1.252 6.901-4.613 6.901-8.404V48.573c0-.25-.035-.465-.035-.715-.394-3.254-2.897-6.115-6.437-7.295l-.716-.25-1.93-.573.5-.465c.187-.224.355-.463.5-.715l.072-.179h.036l.358.107 1.466.465.393.143c3.326 1.109 5.83 3.47 6.974 6.294a9.332 9.332 0 01.68 3.398zM87.524 33.66c-.608-2.753-10.693-3.754-17.56-3.754-6.865 0-15.555.858-17.272 3.218-.178.224-.278.5-.286.787 0 .572.393 1.073 1.073 1.502 2.86 1.824 10.8 2.539 16.486 2.539s13.66-.715 16.522-2.54c.68-.428 1.072-.929 1.072-1.501a.608.608 0 00-.035-.25zm-17.56 3.22c-10.835 0-16.485-1.932-16.485-2.97 0-1.036 5.65-2.931 16.486-2.931 10.835 0 16.522 1.93 16.522 2.932 0 1.001-5.686 2.968-16.522 2.968z" fill="#4239AB"/><path d="M86.487 33.91c0 1.038-5.686 2.97-16.522 2.97-10.836 0-16.486-1.932-16.486-2.97 0-1.036 5.65-2.931 16.486-2.931s16.522 1.93 16.522 2.932z" fill="#39309F"/><path d="M87.953 38.739v.178a2.075 2.075 0 01-1.002 1.395c-3.003 2.11-11.872 2.718-16.986 2.718-5.114 0-13.947-.608-16.951-2.718a2.073 2.073 0 01-1.001-1.395v-.178c.006-.37.146-.726.393-1.002l.358-.357.536.536.179.143.286.25.25.215a.25.25 0 00-.143.215c0 .786 5.472 2.682 16.093 2.682 8.654 0 13.875-1.252 15.556-2.146.394-.215.572-.393.572-.536 0-.143-.035-.108-.071-.18-.036-.07-.072-.035-.072-.07l.143-.108h.108l.286-.25c.142-.158.273-.325.393-.5l.179-.287c.191.126.36.283.5.465.233.257.371.584.394.93z" fill="#4239AB"/><path d="M53.479 33.124h-1.073v5.35h1.073v-5.35z" fill="#4239AB"/><path d="M86.487 35.413v2.646l-.286.25h-.108l-.143.108c0 .036.036.036.072.071a5.122 5.122 0 01-.5.716c-1.682.894-6.903 2.145-15.557 2.145-10.621 0-16.093-1.895-16.093-2.682a.25.25 0 01.143-.214l-.25-.215-.286-.25v-2.575c2.86 1.824 10.8 2.539 16.486 2.539s13.66-.715 16.522-2.54z" fill="#39309F"/><path d="M87.56 33.66h-1.073v4.814h1.072v-4.813z" fill="#4239AB"/><path d="M94.14 48.573c-.036-.107-.036-.215-.072-.322a1.466 1.466 0 01.036-.393c-.394-3.254-2.897-6.115-6.437-7.295l-.716-.25c-3.003 2.11-11.872 2.717-16.986 2.717-5.114 0-13.947-.608-16.951-2.718l-.572.179c-4.041 1.359-6.616 4.613-6.616 8.297v24.71c0-.035.036-.035.072-.035a3.075 3.075 0 013.576 1.216c.154.22.274.46.357.715l.107.393a.321.321 0 00.25.215c.215.033.421.106.609.215h.036a3.04 3.04 0 011.752 2.145c.053.212.089.427.107.644-.006.216-.03.431-.071.644a3.04 3.04 0 01-1.36 2.038 3.326 3.326 0 01-1.108.465h-.107l-.787.072h-3.433v2.324c0 3.79 2.718 7.152 6.795 8.368a60.508 60.508 0 0034.617.036c4.148-1.252 6.901-4.613 6.901-8.404V48.573z" fill="#5959FF"/><path d="M57.239 80.047a3.98 3.98 0 01-.072.644 3.04 3.04 0 01-1.359 2.038 3.328 3.328 0 01-1.108.465h-.108l-.787.072H42.541a3.184 3.184 0 01-2.969-1.967 3.147 3.147 0 012.182-4.256c.179-.035.214-.107.25-.286a4.184 4.184 0 014.256-4.005c.8.012 1.58.247 2.253.68.263.184.503.4.715.643l.43.537c.106.143.142.178.285.107l.43-.179h.07a3.076 3.076 0 013.577 1.216c.154.22.275.46.358.715l.107.394a.322.322 0 00.25.214c.214.033.42.106.608.215h.036a3.038 3.038 0 011.752 2.145c.051.2.087.403.108.608z" fill="#fff"/><path d="M83.876 68.671a13.876 13.876 0 00-2.289-6.795 13.768 13.768 0 00-19.096-3.755 12.766 12.766 0 00-3.791 3.791 13.339 13.339 0 00-2.074 4.97 13.804 13.804 0 0010.836 16.165c.86.168 1.733.264 2.61.286h.107l1.36-.071a13.84 13.84 0 006.258-2.29c.36-.229.706-.48 1.037-.75l.536-.465.644-.608.179-.215a13.447 13.447 0 003.433-6.723 9.944 9.944 0 00.25-2.038c.036-.5.036-1.002 0-1.502zm-1.68 3.254a12.302 12.302 0 11-9.656-14.412 12.017 12.017 0 017.796 5.186 12.23 12.23 0 011.86 9.226z" fill="#A49FDA"/><path d="M80.336 62.699a12.016 12.016 0 00-7.796-5.186 12.266 12.266 0 107.796 5.186zm-.787 8.726a9.655 9.655 0 01-9.405 7.724c-.626 0-1.25-.073-1.86-.215a9.584 9.584 0 011.86-18.989 8.47 8.47 0 011.86.215 9.476 9.476 0 016.114 4.04 9.692 9.692 0 011.431 7.225z" fill="#C8C5E9"/><path d="M78.118 64.2a9.478 9.478 0 00-6.115-4.04 8.477 8.477 0 00-1.86-.215 9.584 9.584 0 00-1.859 18.99c.61.141 1.234.213 1.86.214a9.656 9.656 0 009.405-7.724 9.691 9.691 0 00-1.43-7.224zm.859 7.081a9.012 9.012 0 11-17.695-3.424 9.012 9.012 0 0117.695 3.424z" fill="#A49FDA"/><path d="M71.896 60.732a8.977 8.977 0 107.08 10.55 9.012 9.012 0 00-7.08-10.55zm-.715 4.434a1.323 1.323 0 11-.751 1.788 1.358 1.358 0 01.75-1.788zm-3.505 0a1.36 1.36 0 011.824.644 1.395 1.395 0 01-.715 1.788 1.358 1.358 0 01-1.824-.644 1.324 1.324 0 01.715-1.788zm-3.04 4.113a1.322 1.322 0 01.716-1.788 1.36 1.36 0 011.823.644 1.395 1.395 0 01-.715 1.788 1.36 1.36 0 01-1.824-.644zm5.365 5.007c-2.146 0-3.863-1.073-3.863-2.36 0-1.288.787-1.646 1.931-2.075a1.967 1.967 0 011.932-1.61 2.003 2.003 0 011.93 1.61c1.145.43 1.896 1.18 1.896 2.074 0 .894-1.716 2.36-3.826 2.36zm4.827-4.363a1.358 1.358 0 01-1.823-.644 1.324 1.324 0 01.715-1.788 1.36 1.36 0 011.824.644 1.322 1.322 0 01-.716 1.788z" fill="#C8C5E9"/><path d="M73.827 71.925c0 1.288-1.716 2.36-3.826 2.36-2.11 0-3.863-1.072-3.863-2.36 0-1.287.787-1.645 1.931-2.074A1.967 1.967 0 0170 68.241a2.003 2.003 0 011.932 1.61c1.144.43 1.895 1.18 1.895 2.074zm-7.367-2.002a1.358 1.358 0 01-1.824-.644 1.324 1.324 0 01.716-1.788 1.36 1.36 0 011.823.644 1.394 1.394 0 01-.715 1.788zm8.368 0a1.359 1.359 0 01-1.824-.644 1.322 1.322 0 01.716-1.788 1.36 1.36 0 011.824.644 1.324 1.324 0 01-.716 1.788zm-2.574-2.325a1.323 1.323 0 11.75-1.788 1.358 1.358 0 01-.75 1.788zm-3.469 0a1.359 1.359 0 01-1.824-.644 1.322 1.322 0 01.715-1.788 1.357 1.357 0 011.824.644 1.395 1.395 0 01-.715 1.788z" fill="#A49FDA"/><path opacity=".48" d="M94.14 48.573c-.036-.107-.036-.215-.072-.322a1.466 1.466 0 01.036-.393 9.05 9.05 0 00-.93-2.825 77.08 77.08 0 00-3.97 2.682l-.321.286a102.42 102.42 0 01-9.191 8.404 98.31 98.31 0 01-4.148 3.54c-5.007 4.435-10.192 8.583-15.52 12.624a277.611 277.611 0 01-6.152 4.685l-1.323.93a.322.322 0 01.036.178c.053.212.089.427.107.644-.006.216-.03.431-.071.644a3.04 3.04 0 01-1.36 2.038 3.326 3.326 0 01-1.108.465h-.107l-.787.072h-2.146l-1.287.965v1.359c0 3.79 2.718 7.152 6.795 8.368l1.323.358c5.15-3.47 10.263-7.01 15.055-10.979 8.476-7.08 15.843-15.52 25.14-21.6V48.573zM62.705 95.027c2.114.251 4.238.394 6.366.43h1.395c3.254-3.22 6.437-6.51 9.655-9.728 3.219-3.218 6.044-5.722 9.19-8.404a203.55 203.55 0 014.829-4.792v-4.005a212.281 212.281 0 01-31.435 26.5z" fill="#fff"/><path d="M39.46 44.89a1.52 1.52 0 000 .393c.114.493.407.927.823 1.216.21.131.439.228.68.286h7.295a1.967 1.967 0 001.788-1.18 1.896 1.896 0 00-1.323-2.503c-.108-.036-.143-.072-.143-.18a2.503 2.503 0 00-2.54-2.395 2.431 2.431 0 00-1.823.786l-.25.322c-.036.072-.072.108-.18.036l-.214-.071h-.072a1.86 1.86 0 00-2.145.715l-.215.393c-.036.072-.036.179-.071.25-.036.072-.036.108-.143.108l-.358.143a1.86 1.86 0 00-1.073 1.287c-.03.13-.041.261-.036.394z" fill="#fff"/><path d="M34.157 13.872v20.704c0 2.588-1.842 4.907-4.614 5.735-3.283 1-6.69 1.508-10.116 1.511H18.9a35.181 35.181 0 01-9.631-1.511c-2.732-.85-4.553-3.147-4.553-5.735V13.872c0-2.526 1.72-4.742 4.41-5.673l.143-.042.728-.227c.266.27.558.512.87.724l-1.032.31-.324.104c-2.286.787-3.743 2.671-3.743 4.804v20.704c0 2.194 1.538 4.14 3.845 4.844a33.49 33.49 0 0019.585.021c2.348-.725 3.905-2.67 3.905-4.865V13.748c0-.146-.02-.27-.02-.415-.222-1.884-1.639-3.54-3.642-4.223l-.404-.145-1.093-.331.283-.27c.106-.13.2-.268.284-.414l.04-.103h.02l.203.062.83.27.222.082c1.881.642 3.298 2.008 3.945 3.644.247.625.378 1.292.385 1.967zm-4.796-8.758c-.344-1.594-6.05-2.174-9.934-2.174-3.885 0-8.802.497-9.773 1.863-.1.13-.157.29-.162.456 0 .331.223.621.607.87 1.619 1.055 6.11 1.47 9.328 1.47 3.217 0 7.729-.415 9.348-1.47.384-.249.607-.539.607-.87a.359.359 0 00-.02-.145zm-9.934 1.863c-6.13 0-9.328-1.118-9.328-1.718 0-.6 3.197-1.698 9.328-1.698 6.13 0 9.348 1.118 9.348 1.698 0 .58-3.217 1.718-9.348 1.718z" fill="#4239AB"/><path d="M28.775 5.259c0 .6-3.218 1.718-9.348 1.718-6.131 0-9.328-1.118-9.328-1.718 0-.6 3.197-1.698 9.328-1.698 6.13 0 9.348 1.118 9.348 1.698z" fill="#39309F"/><path d="M29.604 8.054v.103a1.197 1.197 0 01-.566.807c-1.7 1.222-6.718 1.574-9.611 1.574-2.894 0-7.891-.352-9.59-1.573a1.183 1.183 0 01-.37-.341 1.215 1.215 0 01-.197-.467v-.103a.902.902 0 01.222-.58l.202-.207.304.31.101.084.162.144.142.125a.143.143 0 00-.081.124c0 .455 3.095 1.553 9.105 1.553 4.896 0 7.85-.725 8.801-1.243.223-.124.324-.227.324-.31 0-.083-.02-.062-.04-.104-.02-.041-.041-.02-.041-.041l.081-.062h.06l.163-.145c.08-.092.154-.188.222-.29l.101-.166c.109.074.204.164.284.27a.9.9 0 01.222.538z" fill="#4239AB"/><path d="M10.1 4.803h-.608v3.098h.607V4.803z" fill="#4239AB"/><path d="M28.775 6.128v1.533l-.162.144h-.061l-.08.063c0 .02.02.02.04.041a2.968 2.968 0 01-.284.414c-.95.518-3.905 1.242-8.801 1.242-6.01 0-9.105-1.097-9.105-1.553a.143.143 0 01.08-.124l-.141-.124-.162-.145V6.13c1.619 1.055 6.11 1.47 9.328 1.47 3.217 0 7.729-.415 9.348-1.47z" fill="#39309F"/><path d="M29.381 5.114h-.607V7.9h.607V5.114z" fill="#4239AB"/><path d="M33.105 13.748c-.02-.063-.02-.125-.041-.187a.867.867 0 01.02-.228c-.222-1.884-1.639-3.54-3.642-4.223l-.404-.145c-1.7 1.221-6.718 1.573-9.611 1.573-2.894 0-7.891-.352-9.59-1.573l-.325.103c-2.286.787-3.743 2.671-3.743 4.804v14.306c0-.02.02-.02.04-.02.366-.13.764-.131 1.13-.004.367.128.681.377.894.707.087.127.155.267.202.414l.061.228a.186.186 0 00.142.124c.12.02.237.062.344.125h.02c.25.111.47.283.642.498.172.216.292.471.35.744.03.122.05.247.06.372-.003.126-.017.25-.04.373-.042.24-.131.47-.264.673a1.858 1.858 0 01-1.133.776h-.06l-.445.042H5.769v1.346c0 2.194 1.538 4.14 3.845 4.844a33.491 33.491 0 0019.585.021c2.348-.725 3.905-2.67 3.905-4.865V13.748z" fill="#5959FF"/><path d="M12.226 31.97a2.33 2.33 0 01-.04.372c-.041.24-.13.47-.263.673a1.86 1.86 0 01-1.133.776h-.061l-.445.042H3.91a1.771 1.771 0 01-1.01-.307 1.834 1.834 0 01-.8-1.6c.01-.263.077-.52.194-.755a1.796 1.796 0 011.171-.941c.101-.02.122-.062.142-.165a2.447 2.447 0 01.743-1.661 2.337 2.337 0 011.665-.658c.452.007.894.143 1.274.393.15.107.285.232.405.373l.243.31c.06.083.08.104.162.063l.243-.104h.04c.366-.13.763-.13 1.13-.003.366.127.68.376.893.707.088.127.156.266.203.414l.06.228a.18.18 0 00.142.124c.121.02.238.061.344.124h.02c.25.112.47.283.642.499.173.216.292.47.35.743.029.116.049.234.06.352z" fill="#fff"/><path d="M27.297 25.383a8.159 8.159 0 00-1.294-3.934 7.783 7.783 0 00-4.963-3.375 7.647 7.647 0 00-5.842 1.201 7.31 7.31 0 00-2.145 2.195 7.819 7.819 0 00-1.173 2.878 8.142 8.142 0 001.18 5.972 7.805 7.805 0 004.95 3.386c.487.097.981.153 1.477.166h.061l.769-.042a7.721 7.721 0 003.54-1.325c.205-.133.4-.278.588-.434l.303-.27.364-.352.102-.124a7.85 7.85 0 001.942-3.892c.087-.387.134-.783.142-1.18.02-.29.02-.58 0-.87zm-.95 1.884a7.177 7.177 0 01-1.894 3.659 6.914 6.914 0 01-3.562 1.962 6.813 6.813 0 01-4.027-.396 6.996 6.996 0 01-3.132-2.621 7.24 7.24 0 01-1.178-3.96 7.25 7.25 0 011.174-3.963 6.996 6.996 0 013.129-2.624 6.812 6.812 0 014.027-.4 6.711 6.711 0 012.503 1.043 6.88 6.88 0 011.907 1.959 7.168 7.168 0 011.049 2.563c.18.916.182 1.86.003 2.778z" fill="#A49FDA"/><path d="M25.294 21.925a6.88 6.88 0 00-1.907-1.958 6.713 6.713 0 00-2.503-1.044 6.802 6.802 0 00-4.627.708 7.046 7.046 0 00-3.137 3.551 7.257 7.257 0 00-.221 4.782 7.09 7.09 0 002.794 3.839 6.819 6.819 0 004.54 1.152 6.877 6.877 0 004.224-2.057 7.172 7.172 0 001.988-4.333 7.229 7.229 0 00-1.15-4.64zm-.445 5.052a5.614 5.614 0 01-1.885 3.202 5.388 5.388 0 01-3.436 1.27 4.55 4.55 0 01-1.052-.124 5.41 5.41 0 01-3.308-2.132 5.643 5.643 0 01-1.046-3.854 5.596 5.596 0 011.757-3.573 5.36 5.36 0 013.649-1.435 4.72 4.72 0 011.052.125c.7.135 1.366.412 1.96.813.594.402 1.104.92 1.5 1.526a5.718 5.718 0 01.81 4.182z" fill="#C8C5E9"/><path d="M24.04 22.795a5.425 5.425 0 00-1.5-1.526 5.295 5.295 0 00-1.96-.813 4.697 4.697 0 00-1.052-.125 5.354 5.354 0 00-3.649 1.435c-1 .926-1.626 2.2-1.758 3.573a5.643 5.643 0 001.047 3.854 5.41 5.41 0 003.308 2.132 4.55 4.55 0 001.052.124 5.388 5.388 0 003.436-1.27 5.614 5.614 0 001.885-3.202 5.718 5.718 0 00-.81-4.182zm.486 4.1a5.257 5.257 0 01-1.385 2.681 5.066 5.066 0 01-2.609 1.44 4.991 4.991 0 01-2.95-.287 5.126 5.126 0 01-2.296-1.918 5.305 5.305 0 01-.865-2.901 5.304 5.304 0 01.858-2.903 5.126 5.126 0 012.29-1.925 4.99 4.99 0 012.95-.295 5.095 5.095 0 013.234 2.208 5.316 5.316 0 01.773 3.9z" fill="#A49FDA"/><path d="M20.52 20.787a4.972 4.972 0 00-2.933.304 5.107 5.107 0 00-2.273 1.92 5.283 5.283 0 00-.85 2.888 5.282 5.282 0 00.863 2.884 5.105 5.105 0 002.282 1.908 4.97 4.97 0 002.933.29 5.044 5.044 0 002.598-1.425 5.236 5.236 0 001.386-2.662 5.316 5.316 0 00-.773-3.899 5.095 5.095 0 00-3.234-2.208zm-.405 2.567a.732.732 0 01.799.19.772.772 0 01.148.826.762.762 0 01-.271.339.736.736 0 01-.82.011.762.762 0 01-.281-.33.803.803 0 01.17-.866.766.766 0 01.255-.17zm-1.983 0a.756.756 0 011.032.373.824.824 0 010 .6.8.8 0 01-.405.435.756.756 0 01-1.032-.373.779.779 0 01.151-.865.748.748 0 01.254-.17zm-1.72 2.381a.782.782 0 01.151-.866.746.746 0 01.254-.17.754.754 0 01.852.125c.075.07.136.154.18.248a.826.826 0 010 .601.8.8 0 01-.405.435.754.754 0 01-.852-.124.786.786 0 01-.18-.249zm3.035 2.899c-1.214 0-2.185-.622-2.185-1.367s.445-.952 1.092-1.2a1.15 1.15 0 01.382-.668c.2-.17.451-.264.711-.264.259.004.508.099.707.268.199.17.335.404.386.663.647.249 1.072.684 1.072 1.201 0 .518-.971 1.367-2.165 1.367zm2.732-2.526a.754.754 0 01-.852-.124.786.786 0 01-.25-.55.783.783 0 01.22-.565.746.746 0 01.254-.17.754.754 0 01.852.125.786.786 0 01.25.55.783.783 0 01-.22.564.747.747 0 01-.255.17z" fill="#C8C5E9"/><path d="M21.612 27.267c0 .745-.971 1.367-2.165 1.367s-2.185-.622-2.185-1.367.445-.952 1.092-1.2a1.15 1.15 0 01.382-.668c.2-.17.451-.264.71-.264.26.004.51.099.708.268.199.17.335.404.386.663.647.249 1.072.684 1.072 1.201zm-4.168-1.159a.755.755 0 01-.852-.124.786.786 0 01-.25-.55.78.78 0 01.221-.565.746.746 0 01.254-.17.755.755 0 01.852.125c.075.07.136.154.18.248a.825.825 0 010 .601.8.8 0 01-.405.435zm4.734 0a.754.754 0 01-.851-.124.786.786 0 01-.25-.55.78.78 0 01.22-.565.746.746 0 01.254-.17.754.754 0 01.852.125.788.788 0 01.25.55.78.78 0 01-.22.564.748.748 0 01-.255.17zm-1.456-1.346a.733.733 0 01-.8-.19.773.773 0 01-.148-.826.762.762 0 01.272-.338.737.737 0 01.82-.012.76.76 0 01.28.33.803.803 0 01-.17.867.768.768 0 01-.254.169zm-1.962 0a.756.756 0 01-1.033-.373.779.779 0 01.151-.865.75.75 0 01.254-.17.756.756 0 011.032.373.824.824 0 010 .6.8.8 0 01-.405.435z" fill="#A49FDA"/><path opacity=".48" d="M33.105 13.748c-.02-.063-.02-.125-.041-.187a.867.867 0 01.02-.228 5.324 5.324 0 00-.526-1.635 43.543 43.543 0 00-2.246 1.553l-.182.165a58.47 58.47 0 01-5.2 4.866 55.914 55.914 0 01-2.347 2.05c-2.833 2.567-5.766 4.968-8.781 7.308a157.119 157.119 0 01-3.48 2.712l-.749.538a.19.19 0 01.02.104c.03.122.05.247.061.372-.003.126-.017.25-.04.373-.042.24-.131.47-.264.673a1.858 1.858 0 01-1.133.776h-.06l-.445.042H6.498l-.729.559v.787c0 2.194 1.538 4.14 3.845 4.844l.748.207c2.914-2.008 5.807-4.058 8.518-6.356 4.796-4.1 8.964-8.985 14.225-12.505v-7.018zM15.32 40.642c1.195.145 2.397.228 3.6.248h.79c1.841-1.863 3.642-3.768 5.463-5.631 1.821-1.864 3.42-3.313 5.2-4.866.89-.931 1.8-1.863 2.732-2.774V25.3a120.835 120.835 0 01-17.786 15.342z" fill="#fff"/><path d="M2.168 11.615a.869.869 0 000 .228c.064.285.23.536.465.704.119.076.248.132.384.165h4.128c.215-.001.425-.067.605-.188s.32-.293.407-.495a1.12 1.12 0 00-.057-.896 1.09 1.09 0 00-.692-.553c-.06-.02-.08-.042-.08-.104a1.464 1.464 0 00-.444-.992 1.402 1.402 0 00-.993-.395 1.353 1.353 0 00-1.032.456l-.142.186c-.02.041-.04.062-.101.02l-.121-.04h-.041a1.03 1.03 0 00-.676-.004 1.057 1.057 0 00-.538.417l-.121.228c-.02.041-.02.104-.04.145-.021.041-.021.062-.082.062l-.202.083a1.08 1.08 0 00-.607.745.869.869 0 00-.02.228z" fill="#fff"/></svg>