<svg width="96" height="96" viewBox="0 0 96 96" fill="none" xmlns="http://www.w3.org/2000/svg">
<g filter="url(#filter0_d_71_23676)">
<path d="M76.386 27.201V63.0025C76.386 67.4776 73.128 71.4874 68.2233 72.9195C62.4133 74.6481 56.3842 75.5283 50.3226 75.533H49.3917C43.6189 75.4395 37.8857 74.5603 32.3502 72.9195C27.517 71.4516 24.2949 67.4776 24.2949 63.0025V27.201C24.2949 22.8333 27.338 19.0025 32.0996 17.3915L32.3502 17.3199L33.6391 16.926C34.1105 17.3926 34.626 17.8123 35.1786 18.1791L33.3527 18.7161L32.7799 18.8951C28.7343 20.2556 26.1566 23.5135 26.1566 27.201V63.0025C26.1566 66.7974 28.8775 70.1627 32.9589 71.38C44.2608 74.7666 56.3057 74.7791 67.6146 71.4158C71.7676 70.1627 74.5243 66.7974 74.5243 63.0025V26.9862C74.5243 26.7356 74.4885 26.5208 74.4885 26.2702C74.0947 23.0123 71.5886 20.1482 68.0442 18.9667L67.3282 18.7161L65.3949 18.1433L65.8962 17.6779C66.0833 17.4539 66.251 17.2144 66.3974 16.9618L66.469 16.7828H66.5048L66.8628 16.8902L68.3307 17.3557L68.7245 17.4989C72.054 18.6087 74.5601 20.9716 75.7058 23.7999C76.1428 24.8812 76.3735 26.0348 76.386 27.201Z" fill="#4239AB"/>
<path d="M67.9011 12.057C67.2925 9.30029 57.1965 8.29785 50.3226 8.29785C43.4488 8.29785 34.749 9.15709 33.0306 11.52C32.8524 11.7446 32.7519 12.021 32.7441 12.3076C32.7441 12.8804 33.138 13.3817 33.8182 13.8113C36.6823 15.6371 44.6302 16.3532 50.3226 16.3532C56.0151 16.3532 63.9988 15.6371 66.8629 13.8113C67.5431 13.3817 67.9369 12.8804 67.9369 12.3076C67.9427 12.2225 67.9305 12.1371 67.9011 12.057ZM50.3226 15.2791C39.4748 15.2791 33.8182 13.3459 33.8182 12.3076C33.8182 11.2694 39.4748 9.37189 50.3226 9.37189C61.1705 9.37189 66.8629 11.3052 66.8629 12.3076C66.8629 13.31 61.1705 15.2791 50.3226 15.2791Z" fill="#4239AB"/>
<path d="M66.8631 12.3077C66.8631 13.3459 61.1706 15.2792 50.3228 15.2792C39.475 15.2792 33.8184 13.3459 33.8184 12.3077C33.8184 11.2694 39.475 9.37195 50.3228 9.37195C61.1706 9.37195 66.8631 11.3052 66.8631 12.3077Z" fill="#39309F"/>
<path d="M68.33 17.1408V17.3198C68.2723 17.6106 68.153 17.8857 67.9801 18.1265C67.8072 18.3673 67.5847 18.5683 67.3276 18.716C64.3203 20.8283 55.4415 21.4369 50.3219 21.4369C45.2023 21.4369 36.3594 20.8283 33.352 18.716C33.095 18.5683 32.8725 18.3673 32.6996 18.1265C32.5267 17.8857 32.4073 17.6106 32.3496 17.3198V17.1408C32.3559 16.7701 32.4957 16.4142 32.7434 16.1383L33.1014 15.7803L33.6385 16.3173L33.8175 16.4605L34.1039 16.7111L34.3545 16.926C34.3134 16.9454 34.2783 16.9757 34.2531 17.0135C34.2279 17.0513 34.2134 17.0953 34.2113 17.1408C34.2113 17.9284 39.6889 19.8259 50.3219 19.8259C58.9859 19.8259 64.2129 18.5728 65.8955 17.6778C66.2894 17.463 66.4684 17.284 66.4684 17.1408C66.4684 16.9976 66.4326 17.0334 66.3968 16.9618C66.361 16.8902 66.3252 16.926 66.3252 16.8902L66.4684 16.7827H66.5758L66.8622 16.5321C67.0044 16.374 67.136 16.2065 67.256 16.0309L67.435 15.7445C67.6266 15.8709 67.796 16.0281 67.9362 16.2099C68.1685 16.467 68.3073 16.795 68.33 17.1408Z" fill="#4239AB"/>
<path d="M33.8182 11.52H32.7441V16.8759H33.8182V11.52Z" fill="#4239AB"/>
<path d="M66.8631 13.8113V16.4606L66.5766 16.7112H66.4692L66.326 16.8186C66.326 16.8544 66.3618 16.8544 66.3976 16.8902C66.2513 17.1427 66.0836 17.3823 65.8964 17.6062C64.2138 18.5013 58.9868 19.7543 50.3228 19.7543C39.6898 19.7543 34.2122 17.8568 34.2122 17.0692C34.2143 17.0238 34.2288 16.9798 34.254 16.9419C34.2792 16.9041 34.3143 16.8738 34.3554 16.8544L34.1048 16.6396L33.8184 16.389V13.8113C36.6825 15.6372 44.6304 16.3532 50.3228 16.3532C56.0152 16.3532 63.9989 15.6372 66.8631 13.8113Z" fill="#39309F"/>
<path d="M67.9373 12.057H66.8633V16.8759H67.9373V12.057Z" fill="#4239AB"/>
<path d="M74.524 26.9862C74.4882 26.8788 74.4882 26.7714 74.4524 26.664C74.4465 26.5317 74.4585 26.3992 74.4882 26.2702C74.0943 23.0122 71.5882 20.1481 68.0439 18.9667L67.3279 18.7161C64.3206 20.8283 55.4418 21.437 50.3222 21.437C45.2026 21.437 36.3597 20.8283 33.3523 18.7161L32.7795 18.8951C28.734 20.2555 26.1562 23.5135 26.1562 27.201V51.9398C26.1562 51.904 26.1921 51.904 26.2279 51.904C26.875 51.6798 27.5784 51.6778 28.2268 51.8982C28.8752 52.1187 29.4316 52.549 29.808 53.1212C29.9624 53.3407 30.0831 53.582 30.166 53.8372L30.2734 54.2311C30.2919 54.2861 30.325 54.3352 30.3691 54.373C30.4132 54.4108 30.4668 54.436 30.524 54.4459C30.7384 54.4792 30.9448 54.5521 31.1326 54.6607H31.1684C31.6101 54.8541 31.9995 55.1498 32.3045 55.5233C32.6095 55.8967 32.8214 56.3373 32.9227 56.8088C32.9758 57.0203 33.0118 57.2358 33.0301 57.4532C33.024 57.6696 33.0001 57.8851 32.9585 58.0976C32.8857 58.5135 32.7272 58.9098 32.493 59.2611C32.2588 59.6124 31.954 59.9111 31.5981 60.1383C31.2595 60.3596 30.8834 60.5173 30.4882 60.6037H30.3808L29.5932 60.6753H26.1562V63.0024C26.1562 66.7974 28.8772 70.1627 32.9585 71.3799C44.2605 74.7666 56.3054 74.779 67.6143 71.4157C71.7673 70.1627 74.524 66.7974 74.524 63.0024V26.9862Z" fill="#5959FF"/>
<path d="M39.8307 59.6954C39.8236 59.9473 39.7956 60.1983 39.7471 60.4456C39.662 60.9299 39.4768 61.3912 39.2032 61.8002C38.9296 62.2092 38.5736 62.557 38.1578 62.8215C37.7622 63.0791 37.3229 63.2627 36.8612 63.3634H36.7358L35.8157 63.4467H22.6413C21.8993 63.4529 21.1724 63.238 20.5538 62.8295C19.9353 62.4211 19.4534 61.8376 19.1699 61.1542C18.9682 60.6642 18.8754 60.1365 18.8978 59.6073C18.9202 59.0782 19.0573 58.5601 19.2998 58.0888C19.5422 57.6175 19.8841 57.2041 20.3021 56.877C20.7201 56.55 21.2042 56.317 21.7212 56.1941C21.9303 56.1524 21.9721 56.0691 22.0139 55.8607C22.0683 54.5892 22.6192 53.3893 23.5491 52.517C24.479 51.6448 25.7142 51.1694 26.9909 51.1923C27.9261 51.2065 28.8387 51.4808 29.6258 51.9843C29.9339 52.2 30.2147 52.4519 30.4623 52.7345L30.9641 53.3598C31.0896 53.5265 31.1314 53.5682 31.2987 53.4848L31.8006 53.2764H31.8843C32.6402 53.0154 33.462 53.013 34.2194 53.2697C34.9769 53.5264 35.6269 54.0274 36.0666 54.6936C36.247 54.9491 36.388 55.2301 36.4848 55.5272L36.6103 55.9857C36.6319 56.0498 36.6706 56.1069 36.7221 56.1509C36.7736 56.195 36.8362 56.2243 36.9031 56.2358C37.1535 56.2746 37.3946 56.3594 37.6141 56.4859H37.6559C38.1719 56.7111 38.6267 57.0553 38.983 57.4901C39.3394 57.925 39.5869 58.4379 39.7052 58.9868C39.7651 59.2194 39.8071 59.4563 39.8307 59.6954Z" fill="white"/>
<path d="M64.2487 47.1065C64.0941 44.6775 63.3039 42.3318 61.9574 40.3043C59.9196 37.2719 56.7613 35.1726 53.1765 34.4678C49.5917 33.7629 45.8737 34.5101 42.8395 36.5451C41.3202 37.5273 40.0267 38.8208 39.0445 40.3401C38.0212 41.8404 37.3146 43.5337 36.968 45.3165C36.2726 48.8996 37.023 52.6124 39.0554 55.6442C41.0878 58.6761 44.2372 60.7807 47.8159 61.4987C48.6776 61.6667 49.5517 61.7625 50.4294 61.7851H50.5368L51.8972 61.7135C54.1411 61.4714 56.2918 60.6849 58.1625 59.4222C58.5229 59.1921 58.8696 58.941 59.2007 58.6704L59.7377 58.205L60.3822 57.5963L60.5612 57.3815C62.326 55.5122 63.5187 53.1766 63.9981 50.6509C64.1519 49.9811 64.2358 49.2972 64.2487 48.6102C64.2846 48.1096 64.2846 47.6071 64.2487 47.1065ZM62.566 50.3645C62.1001 52.7584 60.9339 54.96 59.2153 56.6904C57.4966 58.4208 55.3029 59.6019 52.9122 60.0841C50.5216 60.5663 48.0415 60.3279 45.7865 59.399C43.5315 58.4701 41.603 56.8926 40.2456 54.8665C38.8881 52.8404 38.1628 50.4568 38.1615 48.018C38.1602 45.5792 38.8831 43.1949 40.2384 41.1673C41.5938 39.1398 43.5206 37.5603 45.7746 36.629C48.0287 35.6978 50.5085 35.4568 52.8997 35.9365C54.4818 36.2354 55.9878 36.8489 57.3285 37.7406C58.6691 38.6323 59.8171 39.7841 60.7044 41.1277C61.6093 42.4681 62.2398 43.9744 62.5593 45.5598C62.8788 47.1452 62.8811 48.7782 62.566 50.3645Z" fill="#A49FDA"/>
<path d="M60.7046 41.1278C59.8173 39.7842 58.6693 38.6324 57.3287 37.7407C55.988 36.849 54.482 36.2355 52.8999 35.9366C50.1118 35.3849 47.2186 35.8174 44.7137 37.1604C42.2088 38.5034 40.2474 40.6737 39.1638 43.3012C38.0802 45.9287 37.9416 48.8508 38.7716 51.5691C39.6017 54.2873 41.3489 56.6335 43.7154 58.2076C46.0819 59.7817 48.9211 60.4861 51.749 60.2008C54.5768 59.9154 57.2181 58.658 59.2225 56.643C61.2268 54.6279 62.4702 51.98 62.7404 49.1507C63.0107 46.3214 62.2912 43.4859 60.7046 41.1278ZM59.917 49.8633C59.4733 52.0371 58.2954 53.9921 56.5809 55.4002C54.8664 56.8083 52.7197 57.5837 50.5012 57.5964C49.8745 57.5956 49.2499 57.5236 48.6395 57.3816C46.2983 56.923 44.2119 55.6085 42.7874 53.6947C41.363 51.7809 40.7025 49.4051 40.9351 47.0307C41.1676 44.6563 42.2763 42.4538 44.045 40.8527C45.8137 39.2516 48.1155 38.3669 50.5012 38.3711C51.1278 38.3737 51.7521 38.4458 52.3629 38.5859C53.6008 38.82 54.7797 39.2982 55.8308 39.9928C56.882 40.6874 57.7842 41.5844 58.4849 42.6315C59.8952 44.7598 60.4097 47.3582 59.917 49.8633Z" fill="#C8C5E9"/>
<path d="M58.4862 42.6314C57.7854 41.5843 56.8832 40.6873 55.8321 39.9927C54.781 39.2981 53.6021 38.8199 52.3641 38.5858C51.7534 38.4457 51.129 38.3736 50.5024 38.371C48.1167 38.3668 45.815 39.2515 44.0463 40.8526C42.2776 42.4537 41.1688 44.6562 40.9363 47.0306C40.7038 49.405 41.3642 51.7808 42.7887 53.6946C44.2132 55.6084 46.2995 56.9229 48.6408 57.3815C49.2512 57.5234 49.8758 57.5955 50.5024 57.5963C52.721 57.5836 54.8677 56.8082 56.5821 55.4001C58.2966 53.992 59.4745 52.037 59.9182 49.8632C60.411 47.3581 59.8965 44.7597 58.4862 42.6314ZM59.3454 49.72C59.0058 51.4742 58.1531 53.088 56.8952 54.357C55.6373 55.6259 54.031 56.4928 52.2799 56.8477C50.5288 57.2026 48.7117 57.0295 47.059 56.3505C45.4064 55.6714 43.9925 54.5169 42.9968 53.0334C42.0011 51.5498 41.4683 49.804 41.4659 48.0173C41.4636 46.2306 41.9918 44.4834 42.9837 42.9972C43.9755 41.5111 45.3863 40.3529 47.0372 39.6695C48.688 38.9861 50.5047 38.8083 52.2567 39.1586C54.5936 39.6259 56.6508 40.9988 57.9789 42.9776C59.3071 44.9564 59.7983 47.3803 59.3454 49.72Z" fill="#A49FDA"/>
<path d="M52.256 39.1587C50.5125 38.8173 48.7069 39.0004 47.0674 39.6847C45.4279 40.3691 44.0281 41.5241 43.0448 43.0038C42.0615 44.4835 41.5389 46.2215 41.543 47.9981C41.5471 49.7747 42.0777 51.5102 43.0678 52.9853C44.0579 54.4605 45.463 55.609 47.1056 56.2858C48.7483 56.9627 50.5547 57.1374 52.2966 56.788C54.0385 56.4386 55.6377 55.5806 56.8922 54.3226C58.1467 53.0646 59.0001 51.463 59.3447 49.7201C59.7976 47.3804 59.3063 44.9565 57.9782 42.9777C56.65 40.9989 54.5929 39.626 52.256 39.1587ZM51.54 43.5981C51.7821 43.5095 52.0448 43.4935 52.2958 43.5521C52.5469 43.6106 52.7754 43.7412 52.9534 43.9277C53.1314 44.1142 53.251 44.3486 53.2977 44.6022C53.3444 44.8557 53.3161 45.1174 53.2163 45.3551C53.1165 45.5928 52.9495 45.7962 52.7357 45.9403C52.522 46.0845 52.2708 46.1631 52.0131 46.1666C51.7553 46.1702 51.5021 46.0984 51.2845 45.9601C51.0669 45.8218 50.8944 45.623 50.7881 45.3881C50.7182 45.2214 50.6823 45.0425 50.6823 44.8617C50.6824 44.681 50.7185 44.502 50.7885 44.3354C50.8585 44.1687 50.961 44.0177 51.09 43.8911C51.219 43.7645 51.372 43.6649 51.54 43.5981ZM48.0314 43.5981C48.1934 43.5193 48.3694 43.4735 48.5493 43.4633C48.7291 43.4531 48.9092 43.4788 49.079 43.5387C49.2489 43.5987 49.4051 43.6917 49.5387 43.8126C49.6723 43.9334 49.7806 44.0795 49.8573 44.2425C49.991 44.5757 49.9912 44.9476 49.8578 45.281C49.7245 45.6143 49.4679 45.8835 49.1413 46.0326C48.9793 46.1113 48.8032 46.1571 48.6234 46.1673C48.4436 46.1775 48.2635 46.1519 48.0937 46.0919C47.9238 46.032 47.7675 45.9389 47.6339 45.8181C47.5003 45.6973 47.3921 45.5511 47.3154 45.3881C47.2394 45.2244 47.1977 45.0468 47.1928 44.8663C47.1879 44.6858 47.22 44.5062 47.2871 44.3386C47.3541 44.1709 47.4547 44.0188 47.5827 43.8914C47.7107 43.7641 47.8634 43.6643 48.0314 43.5981ZM44.9883 47.7152C44.9123 47.5515 44.8706 47.3739 44.8657 47.1934C44.8608 47.0129 44.8929 46.8333 44.96 46.6657C45.027 46.498 45.1276 46.3459 45.2556 46.2185C45.3837 46.0912 45.5363 45.9913 45.7043 45.9252C45.8663 45.8464 46.0423 45.8006 46.2222 45.7904C46.402 45.7802 46.5821 45.8059 46.7519 45.8658C46.9218 45.9257 47.0781 46.0188 47.2117 46.1396C47.3452 46.2605 47.4535 46.4066 47.5302 46.5696C47.6639 46.9028 47.6641 47.2747 47.5307 47.608C47.3974 47.9414 47.1408 48.2106 46.8142 48.3597C46.6522 48.4384 46.4762 48.4842 46.2963 48.4944C46.1165 48.5046 45.9364 48.479 45.7666 48.419C45.5967 48.3591 45.4404 48.266 45.3068 48.1452C45.1732 48.0244 45.065 47.8782 44.9883 47.7152ZM50.3585 52.7274C48.2104 52.7274 46.492 51.6534 46.492 50.3645C46.492 49.0757 47.2796 48.7177 48.4252 48.2881C48.5088 47.8361 48.7478 47.4276 49.1009 47.1334C49.454 46.8391 49.8989 46.6777 50.3585 46.677C50.8163 46.6844 51.2577 46.8483 51.6094 47.1414C51.9611 47.4345 52.2019 47.8391 52.2918 48.2881C53.4374 48.7177 54.1893 49.4695 54.1893 50.3645C54.1893 51.2596 52.4708 52.7274 50.3585 52.7274ZM55.1917 48.3597C55.0297 48.4384 54.8537 48.4842 54.6739 48.4944C54.494 48.5046 54.3139 48.479 54.1441 48.419C53.9742 48.3591 53.818 48.266 53.6844 48.1452C53.5508 48.0244 53.4425 47.8782 53.3658 47.7152C53.2898 47.5515 53.2481 47.3739 53.2432 47.1934C53.2384 47.0129 53.2704 46.8333 53.3375 46.6657C53.4045 46.498 53.5052 46.3459 53.6332 46.2185C53.7612 46.0912 53.9139 45.9913 54.0819 45.9252C54.2439 45.8464 54.4199 45.8006 54.5997 45.7904C54.7795 45.7802 54.9596 45.8059 55.1295 45.8658C55.2993 45.9257 55.4556 46.0188 55.5892 46.1396C55.7228 46.2605 55.8311 46.4066 55.9077 46.5696C55.9837 46.7334 56.0255 46.911 56.0303 47.0915C56.0352 47.2719 56.0031 47.4515 55.9361 47.6192C55.869 47.7868 55.7684 47.939 55.6404 48.0663C55.5124 48.1937 55.3597 48.2935 55.1917 48.3597Z" fill="#C8C5E9"/>
<path d="M54.1895 50.3646C54.1895 51.6534 52.471 52.7274 50.3587 52.7274C48.2465 52.7274 46.4922 51.6534 46.4922 50.3646C46.4922 49.0757 47.2798 48.7177 48.4255 48.2881C48.509 47.8361 48.7481 47.4276 49.1011 47.1334C49.4542 46.8392 49.8991 46.6777 50.3587 46.677C50.8165 46.6844 51.2579 46.8483 51.6096 47.1414C51.9613 47.4345 52.2021 47.8392 52.292 48.2881C53.4377 48.7177 54.1895 49.4695 54.1895 50.3646Z" fill="#A49FDA"/>
<path d="M46.8142 48.3598C46.6522 48.4385 46.4762 48.4843 46.2963 48.4945C46.1165 48.5047 45.9364 48.4791 45.7666 48.4191C45.5967 48.3592 45.4405 48.2661 45.3069 48.1453C45.1733 48.0245 45.065 47.8783 44.9883 47.7153C44.9123 47.5516 44.8706 47.374 44.8657 47.1935C44.8608 47.013 44.8929 46.8334 44.96 46.6658C45.027 46.4981 45.1277 46.3459 45.2557 46.2186C45.3837 46.0913 45.5364 45.9914 45.7043 45.9253C45.8663 45.8465 46.0424 45.8007 46.2222 45.7905C46.402 45.7803 46.5821 45.8059 46.752 45.8659C46.9218 45.9258 47.0781 46.0189 47.2117 46.1397C47.3453 46.2605 47.4535 46.4067 47.5302 46.5697C47.6639 46.9029 47.6641 47.2748 47.5308 47.6081C47.3974 47.9415 47.1408 48.2107 46.8142 48.3598Z" fill="#A49FDA"/>
<path d="M55.1911 48.3598C55.0291 48.4385 54.8531 48.4843 54.6733 48.4945C54.4935 48.5047 54.3134 48.4791 54.1435 48.4191C53.9737 48.3592 53.8174 48.2661 53.6838 48.1453C53.5502 48.0245 53.4419 47.8783 53.3653 47.7153C53.2893 47.5516 53.2475 47.374 53.2427 47.1935C53.2378 47.013 53.2699 46.8334 53.3369 46.6658C53.404 46.4981 53.5046 46.3459 53.6326 46.2186C53.7606 46.0913 53.9133 45.9914 54.0813 45.9253C54.2433 45.8465 54.4193 45.8007 54.5992 45.7905C54.779 45.7803 54.9591 45.8059 55.1289 45.8659C55.2988 45.9258 55.455 46.0189 55.5886 46.1397C55.7222 46.2605 55.8305 46.4067 55.9072 46.5697C55.9832 46.7335 56.0249 46.9111 56.0298 47.0915C56.0346 47.272 56.0026 47.4516 55.9355 47.6193C55.8685 47.7869 55.7678 47.9391 55.6398 48.0664C55.5118 48.1938 55.3591 48.2936 55.1911 48.3598Z" fill="#A49FDA"/>
<path d="M52.6137 46.0326C52.3716 46.1211 52.1089 46.1371 51.8578 46.0786C51.6067 46.02 51.3782 45.8895 51.2002 45.7029C51.0223 45.5164 50.9026 45.282 50.8559 45.0285C50.8092 44.7749 50.8375 44.5133 50.9373 44.2756C51.0372 44.0379 51.2042 43.8345 51.4179 43.6903C51.6317 43.5462 51.8828 43.4675 52.1406 43.464C52.3984 43.4605 52.6516 43.5323 52.8692 43.6705C53.0867 43.8088 53.2592 44.0076 53.3655 44.2425C53.4354 44.4092 53.4714 44.5882 53.4713 44.7689C53.4712 44.9497 53.4351 45.1286 53.3652 45.2953C53.2952 45.4619 53.1927 45.613 53.0636 45.7395C52.9346 45.8661 52.7816 45.9658 52.6137 46.0326Z" fill="#A49FDA"/>
<path d="M49.1404 46.0326C48.9784 46.1114 48.8023 46.1572 48.6225 46.1674C48.4427 46.1775 48.2626 46.1519 48.0928 46.092C47.9229 46.032 47.7666 45.9389 47.633 45.8181C47.4994 45.6973 47.3912 45.5512 47.3145 45.3882C47.2385 45.2244 47.1968 45.0468 47.1919 44.8663C47.187 44.6858 47.2191 44.5062 47.2862 44.3386C47.3532 44.171 47.4538 44.0188 47.5818 43.8915C47.7098 43.7641 47.8625 43.6643 48.0305 43.5981C48.1925 43.5194 48.3685 43.4736 48.5484 43.4634C48.7282 43.4532 48.9083 43.4788 49.0781 43.5387C49.248 43.5987 49.4042 43.6918 49.5378 43.8126C49.6714 43.9334 49.7797 44.0795 49.8564 44.2425C49.9901 44.5757 49.9903 44.9476 49.8569 45.281C49.7236 45.6143 49.467 45.8835 49.1404 46.0326Z" fill="#A49FDA"/>
<path opacity="0.48" d="M74.524 26.9862C74.4882 26.8788 74.4882 26.7714 74.4524 26.664C74.4465 26.5317 74.4585 26.3993 74.4882 26.2702C74.336 25.2825 74.0215 24.3269 73.5573 23.4419C72.1969 24.3011 70.8722 25.1962 69.5834 26.127L69.2612 26.4134C66.3677 29.4019 63.295 32.2115 60.0602 34.8267C58.6997 36.044 57.3393 37.2254 55.9072 38.3711C50.895 42.8105 45.7038 46.9634 40.3694 51.009C38.3645 52.5842 36.2881 54.1595 34.2116 55.699L32.8869 56.6298C32.9159 56.6848 32.9283 56.7469 32.9227 56.8088C32.9758 57.0204 33.0118 57.2359 33.0301 57.4532C33.024 57.6696 33.0001 57.8852 32.9585 58.0977C32.8857 58.5136 32.7272 58.9098 32.493 59.2611C32.2588 59.6124 31.954 59.9112 31.5981 60.1383C31.2595 60.3596 30.8834 60.5173 30.4882 60.6038H30.3808L29.5932 60.6754H27.4451L26.1562 61.642V63.0025C26.1562 66.7974 28.8772 70.1627 32.9585 71.38L34.2832 71.738C39.4386 68.2653 44.5582 64.7209 49.3556 60.747C57.8405 53.6583 65.2156 45.2092 74.524 39.1229V26.9862Z" fill="white"/>
<path opacity="0.48" d="M43.0547 73.4922C45.1702 73.7434 47.2972 73.8868 49.4273 73.9218H50.8236C54.0815 70.6997 57.2678 67.406 60.49 64.1839C63.7121 60.9617 66.5404 58.4556 69.6909 55.7705C71.2662 54.1595 72.8773 52.5484 74.5241 50.9731V46.9634C64.9174 56.8037 54.3781 65.6883 43.0547 73.4922Z" fill="white"/>
<path d="M19.7848 23.2986C19.7671 23.4293 19.7671 23.5617 19.7848 23.6924C19.8985 24.1864 20.1921 24.6203 20.6082 24.9097C20.818 25.0413 21.0477 25.138 21.2884 25.1961H28.5919C28.9725 25.1932 29.3442 25.0801 29.6619 24.8705C29.9796 24.6608 30.2297 24.3635 30.382 24.0146C30.4756 23.7638 30.5151 23.496 30.4978 23.2288C30.4806 22.9616 30.4069 22.7011 30.2818 22.4644C30.1567 22.2277 29.9829 22.0202 29.7719 21.8554C29.5608 21.6907 29.3173 21.5725 29.0573 21.5085C28.9499 21.4727 28.9141 21.4369 28.9141 21.3295C28.8862 20.6774 28.605 20.0619 28.1303 19.614C27.6556 19.166 27.0248 18.9209 26.3722 18.9308C25.8897 18.9244 25.4162 19.0614 25.0118 19.3246C24.841 19.4362 24.6846 19.5685 24.5463 19.7185L24.2957 20.0407C24.2599 20.1123 24.2241 20.1481 24.1167 20.0765L23.9019 20.0049H23.8303C23.4433 19.8715 23.0232 19.8693 22.6349 19.9988C22.2466 20.1282 21.9118 20.382 21.6822 20.7209L21.4674 21.1147C21.4316 21.1863 21.4316 21.2937 21.3958 21.3653C21.36 21.4369 21.36 21.4727 21.2526 21.4727L20.8946 21.6159C20.6272 21.7317 20.3907 21.9087 20.2042 22.1325C20.0176 22.3564 19.8862 22.6209 19.8206 22.9048C19.7909 23.0338 19.7789 23.1663 19.7848 23.2986Z" fill="white"/>
</g>
<defs>
<filter id="filter0_d_71_23676" x="0" y="0" width="96" height="96" filterUnits="userSpaceOnUse" color-interpolation-filters="sRGB">
<feFlood flood-opacity="0" result="BackgroundImageFix"/>
<feColorMatrix in="SourceAlpha" type="matrix" values="0 0 0 0 0 0 0 0 0 0 0 0 0 0 0 0 0 0 127 0" result="hardAlpha"/>
<feOffset dy="6"/>
<feGaussianBlur stdDeviation="6"/>
<feComposite in2="hardAlpha" operator="out"/>
<feColorMatrix type="matrix" values="0 0 0 0 0 0 0 0 0 0 0 0 0 0 0 0 0 0 0.1 0"/>
<feBlend mode="normal" in2="BackgroundImageFix" result="effect1_dropShadow_71_23676"/>
<feBlend mode="normal" in="SourceGraphic" in2="effect1_dropShadow_71_23676" result="shape"/>
</filter>
</defs>
</svg>
