<svg width="193" height="192" viewBox="0 0 193 192" fill="none" xmlns="http://www.w3.org/2000/svg"><path d="M93.92 88.107L18.4 68.267 102.027 46.4l71.786 19.893L93.92 88.107z" fill="#39309F"/><path d="M102.773 85.387l71.04-18.827-70.72-20.16-.32 38.987zm-9.066 104.8l-75.52-19.894.213-102.026 75.52 19.84-.213 102.08z" fill="#3F3FB4"/><path d="M173.813 66.293L173.6 168.32l-79.893 21.867.213-102.08 79.893-21.814z" fill="#5959FF"/><path d="M0 88l75.2 19.733L93.867 88l-75.2-19.733L0 88zm192.533-1.6l-80 21.333L93.867 88l80-21.333L192.533 86.4z" fill="#4E4EDE"/><path d="M79.733 38.507H46.987a6.613 6.613 0 00-6.614 6.613v16.037a6.613 6.613 0 006.614 6.614h32.746a6.613 6.613 0 006.614-6.614V45.12a6.613 6.613 0 00-6.614-6.613z" fill="#5959FF"/><path d="M76.267 65.333l10.08 17.334V65.333h-10.08z" fill="#5959FF"/><path d="M78.88 36.107H47.84a7.467 7.467 0 00-7.467 7.466v14.294a7.414 7.414 0 007.467 7.466h30.507l8 13.76v-35.52a7.467 7.467 0 00-7.467-7.466z" fill="url(#paint0_linear_833_36588)"/><path d="M69.013 54.4c0 1.92-2.453 3.52-5.546 3.573-3.094.054-5.654-1.44-5.707-3.36-.053-1.92 1.067-2.4 2.72-3.04a2.88 2.88 0 015.653-.106c1.707.533 2.827 1.653 2.88 2.933zm-10.88-2.667a1.973 1.973 0 111.014-2.666 2.027 2.027 0 01-1.014 2.666zm12.267-.266a1.974 1.974 0 111.013-2.614 2.027 2.027 0 01-1.013 2.614zm-3.84-3.307a1.973 1.973 0 111.013-2.667 2.026 2.026 0 01-1.013 2.667zm-5.067.107a1.98 1.98 0 11-1.706-3.572 1.98 1.98 0 011.706 3.572z" fill="#fff"/><path d="M105.653 62.027h46.667a6.613 6.613 0 006.613-6.614V30.528a6.613 6.613 0 00-6.613-6.613h-46.667a6.613 6.613 0 00-6.613 6.613v24.885a6.613 6.613 0 006.613 6.614z" fill="#5959FF"/><path d="M112.16 58.933l-13.12 22.56v-22.56h13.12z" fill="#5959FF"/><path d="M151.467 20.8h-44.96a7.466 7.466 0 00-7.467 7.467V76.8l10.4-17.867h42.027a7.52 7.52 0 007.466-7.52V28.267a7.464 7.464 0 00-7.466-7.467z" fill="url(#paint1_linear_833_36588)"/><path d="M121.653 44.64c-.053 2.507 3.147 4.587 7.2 4.64 4.054.053 7.36-1.867 7.414-4.373 0-1.654-1.44-3.147-3.574-3.947a3.731 3.731 0 00-6.04-2.36 3.737 3.737 0 00-1.32 2.2c-2.186.747-3.68 2.187-3.68 3.84zm14.134-3.467a2.557 2.557 0 001.96.094 2.564 2.564 0 00.226-4.734 2.614 2.614 0 00-3.52 1.174 2.667 2.667 0 001.334 3.466zm-15.947-.32a2.666 2.666 0 102.223-4.846 2.666 2.666 0 00-2.223 4.846zm4.96-4.373a2.562 2.562 0 003.719-2.155 2.511 2.511 0 00-.697-1.858 2.506 2.506 0 00-.835-.574 2.619 2.619 0 00-2.894.362 2.6 2.6 0 00-.626.812 2.557 2.557 0 00.496 2.84c.238.245.523.44.837.573zm6.613.16a2.568 2.568 0 003.414-1.227 2.573 2.573 0 00-.422-2.818c-.227-.25-.5-.451-.805-.595a2.562 2.562 0 00-3.721 2.166 2.554 2.554 0 001.534 2.474z" fill="#fff"/><path d="M80.747 29.44c7.246 0 13.12-5.874 13.12-13.12 0-7.246-5.874-13.12-13.12-13.12-7.246 0-13.12 5.874-13.12 13.12 0 7.246 5.874 13.12 13.12 13.12z" fill="#5959FF"/><path d="M80.747 27.84c7.246 0 13.12-5.874 13.12-13.12 0-7.246-5.874-13.12-13.12-13.12-7.246 0-13.12 5.874-13.12 13.12 0 7.246 5.874 13.12 13.12 13.12z" fill="url(#paint2_linear_833_36588)"/><path d="M80.747 10.613a3.68 3.68 0 011.866-1.6 3.627 3.627 0 014.374 1.494 4.213 4.213 0 01.16 4.266 9.76 9.76 0 01-2.24 2.88 21.013 21.013 0 01-3.894 2.987.427.427 0 01-.533 0 20.428 20.428 0 01-5.013-4.053 7.466 7.466 0 01-1.547-2.667c-.533-2.027.533-4.373 2.613-5.013a3.627 3.627 0 014.054 1.493c.053.107.053.16.16.213z" fill="#fff"/><defs><linearGradient id="paint0_linear_833_36588" x1="77.515" y1="68.16" x2="48.512" y2="32.475" gradientUnits="userSpaceOnUse"><stop stop-color="#6678FF"/><stop offset="1" stop-color="#5891FF"/></linearGradient><linearGradient id="paint1_linear_833_36588" x1="103.435" y1="55.829" x2="163.275" y2="18.421" gradientUnits="userSpaceOnUse"><stop stop-color="#6678FF"/><stop offset="1" stop-color="#5891FF"/></linearGradient><linearGradient id="paint2_linear_833_36588" x1="80.731" y1="14.741" x2="80.773" y2="-11.499" gradientUnits="userSpaceOnUse"><stop stop-color="#6678FF"/><stop offset="1" stop-color="#5891FF"/></linearGradient></defs></svg>