<svg width="72" height="72" viewBox="0 0 72 72" fill="none" xmlns="http://www.w3.org/2000/svg">
<path d="M60.4491 12.8171C60.2646 11.2193 59.6476 9.72054 58.6791 8.51731C57.7106 7.31408 56.4358 6.46262 55.022 6.0746C54.4611 5.93902 53.8886 5.87119 53.3145 5.87233H6.93971C5.0366 5.87231 3.21098 6.70592 1.86242 8.19071C0.513865 9.6755 -0.247795 11.6905 -0.255859 13.7948V53.6094C-0.247795 55.7137 0.513865 57.7287 1.86242 59.2135C3.21098 60.6983 5.0366 61.5319 6.93971 61.5319H53.3145C55.2152 61.5231 57.0362 60.6866 58.383 59.2037C59.7299 57.7209 60.4941 55.7109 60.5101 53.6094V13.7948C60.5101 13.4914 60.4796 13.1543 60.4491 12.8171ZM58.9856 53.6094C58.9776 55.2666 58.3765 56.8529 57.3139 58.0216C56.2512 59.1903 54.8133 59.8463 53.3145 59.8462H6.93971C6.19641 59.8507 5.45965 59.6926 4.77178 59.3812C4.08391 59.0698 3.45849 58.6111 2.93148 58.0315C2.40447 57.4519 1.98626 56.7629 1.70089 56.004C1.41552 55.2451 1.26861 54.4313 1.26863 53.6094V13.7948C1.26861 12.9729 1.41552 12.1591 1.70089 11.4002C1.98626 10.6414 2.40447 9.95231 2.93148 9.37272C3.45849 8.79314 4.08391 8.33444 4.77178 8.023C5.45965 7.71156 6.19641 7.55352 6.93971 7.55796H53.3145C53.7759 7.5623 54.2356 7.61878 54.6866 7.72652C55.9093 8.06962 56.9947 8.85142 57.7726 9.94951C58.5505 11.0476 58.9771 12.4 58.9856 13.7948V53.6094Z" fill="#4040B7"/>
<path d="M54.6796 7.57382C54.2287 7.46544 53.7691 7.40863 53.3079 7.40427H6.94501C6.20191 7.3998 5.46534 7.55877 4.77765 7.87204C4.08995 8.18531 3.46469 8.6467 2.93782 9.2297C2.41094 9.81269 1.99284 10.5058 1.70754 11.2691C1.42224 12.0325 1.27538 12.851 1.27539 13.6778V53.7263C1.27538 54.553 1.42224 55.3716 1.70754 56.135C1.99284 56.8983 2.41094 57.5914 2.93782 58.1744C3.46469 58.7574 4.08995 59.2188 4.77765 59.5321C5.46534 59.8453 6.20191 60.0043 6.94501 59.9998H53.3079C54.8063 59.9999 56.2438 59.34 57.3062 58.1644C58.3686 56.9889 58.9695 55.3933 58.9775 53.7263V13.6778C58.9691 12.2747 58.5426 10.9144 57.7648 9.80987C56.9871 8.70533 55.902 7.91893 54.6796 7.57382ZM54.771 50.8439C54.771 52.0581 54.3375 53.2225 53.5658 54.081C52.794 54.9396 51.7474 55.4219 50.656 55.4219H9.26163C8.72011 55.4264 8.18318 55.3111 7.68209 55.0826C7.18099 54.8541 6.72574 54.5171 6.34281 54.0911C5.95988 53.6651 5.65693 53.1586 5.45156 52.6012C5.2462 52.0437 5.14253 51.4464 5.14658 50.8439V16.5602C5.14253 15.9577 5.2462 15.3604 5.45156 14.8029C5.65693 14.2455 5.95988 13.739 6.34281 13.313C6.72574 12.887 7.18099 12.55 7.68209 12.3215C8.18318 12.093 8.72011 11.9777 9.26163 11.9822H50.656C51.7474 11.9822 52.794 12.4645 53.5658 13.3231C54.3375 14.1816 54.771 15.346 54.771 16.5602V50.8439Z" fill="#6678FF"/>
<path d="M11.7434 48.3288L12.3672 49.0212L7.34481 54.3829C6.95956 54.0474 6.39412 53.364 6.18295 52.8762C5.97178 52.3885 5.86519 51.8541 5.87135 51.314V16.6241C5.87135 15.6685 6.21688 14.7521 6.83193 14.0765C7.44697 13.4008 8.28116 13.0212 9.15097 13.0212H11.556V48.3288H11.7434Z" fill="#4747CC"/>
<path d="M54.1272 16.644V51.526C54.1272 52.4868 53.5337 53.4083 52.9319 54.0877C52.33 54.7671 51.5138 55.1487 50.6626 55.1487H9.15671C8.63467 55.1545 7.60906 54.6603 7.14844 54.3829L12.2131 48.9383H46.0475L51.4267 55.0107L51.8546 54.5277L45.9569 48.813L46.3837 13.0212L50.9179 13.0212C51.7691 13.0212 52.5854 13.4029 53.1872 14.0823C53.789 14.7617 54.1272 15.6832 54.1272 16.644Z" fill="#4747CC"/>
<path d="M22.37 49.0212H12.2539V13.0212H45.7007V49.0212H22.37Z" fill="#4747CC"/>
<path d="M51.8579 54.4902L51.4308 54.9172L46.0619 49.5483L45.8789 49.3958L46.306 48.9688L46.3975 49.0603L51.8579 54.4902Z" fill="#312893"/>
<path d="M12.2204 49.3653L12.0374 49.5483L7.49217 54.6732L7.30914 54.9172L6.85156 54.5207L6.97358 54.3376L11.5188 49.2433L11.5798 49.1823L11.7629 48.9688L11.9459 49.1518L12.2204 49.3653Z" fill="#312893"/>
<path d="M12.2542 13.0212H11.4883V49.2766H12.2542V13.0212Z" fill="#312893"/>
<path d="M46.4671 13.0212H45.7012V49.2766H46.4671V13.0212Z" fill="#312893"/>
<path d="M72.4797 21.1338C72.4706 20.1066 72.2325 19.099 71.788 18.206C71.3434 17.313 70.707 16.564 69.9387 16.0297L62.4074 10.6108C62.1134 10.4012 61.7816 10.2702 61.437 10.2278C61.0923 10.1855 60.7438 10.2327 60.4174 10.3661L60.0807 10.5409C59.7499 10.7466 59.4733 11.0495 59.2795 11.4183C59.0857 11.7872 58.9818 12.2084 58.9785 12.6385L59.0397 54.311C59.03 54.8754 59.2046 55.4238 59.5296 55.8492L59.7745 56.1639L66.2343 64.7291C66.5689 65.1697 66.9827 65.5227 67.4477 65.764C67.9126 66.0054 68.4177 66.1293 68.9284 66.1275C69.3862 66.1317 69.8414 66.049 70.2754 65.8828C70.9316 65.6261 71.5005 65.1403 71.9016 64.4941C72.3027 63.8478 72.5156 63.0739 72.5103 62.2819L72.4797 21.1338ZM69.7244 64.2397C69.3187 64.4142 68.8762 64.4441 68.4554 64.3256C68.0345 64.207 67.655 63.9454 67.367 63.5754L60.693 54.7305C60.6114 54.6107 60.5682 54.4627 60.5705 54.311L60.5093 12.6036C60.5183 12.494 60.551 12.3888 60.6044 12.2973C60.6578 12.2057 60.7303 12.1308 60.8154 12.0792C60.9291 12.0122 61.0549 11.9763 61.1828 11.9743C61.3206 11.9758 61.4564 12.0116 61.5808 12.0792L69.1121 17.498C69.6609 17.8793 70.1168 18.4122 70.4378 19.0476C70.7588 19.683 70.9346 20.4004 70.949 21.1338V62.2819C70.9499 62.7135 70.8322 63.1346 70.6125 63.4858C70.3928 63.837 70.0822 64.1007 69.7244 64.2397Z" fill="#4040B7"/>
<path d="M70.9472 21.1452C70.9329 20.413 70.7572 19.6966 70.4362 19.0622C70.1153 18.4278 69.6594 17.8957 69.1107 17.515L61.5811 12.1047C61.4567 12.0373 61.3209 12.0016 61.1832 12C61.0553 12.002 60.9295 12.0379 60.8159 12.1047C60.7308 12.1563 60.6583 12.2311 60.6049 12.3225C60.5515 12.4139 60.5188 12.5189 60.5098 12.6283L60.571 54.2704C60.5686 54.4219 60.6118 54.5697 60.6934 54.6893L67.3661 63.5203C67.654 63.8897 68.0334 64.1509 68.4542 64.2693C68.875 64.3877 69.3173 64.3578 69.7229 64.1835C70.0864 64.0507 70.4036 63.79 70.6291 63.4389C70.8545 63.0877 70.9766 62.6641 70.9779 62.2288L70.9472 21.1452ZM65.7438 29.4876C65.7438 28.9291 66.4172 28.6499 66.8457 28.9989L69.0495 30.9885C69.1212 31.0396 69.1792 31.1122 69.217 31.1985C69.2548 31.2847 69.271 31.3811 69.2638 31.4772V35.6658C69.2638 36.2243 68.5904 36.5036 68.1619 36.1196L65.9581 34.1649C65.8341 34.0396 65.7573 33.8645 65.7438 33.6762V29.4876ZM69.4168 46.1025C69.42 46.3586 69.358 46.6102 69.2386 46.8269C69.1191 47.0437 68.9471 47.2164 68.7434 47.3242C68.5927 47.4159 68.4245 47.4638 68.2537 47.4638C67.9623 47.4489 67.683 47.3264 67.4579 47.1148L65.8356 45.4393C65.7136 45.3093 65.6155 45.1528 65.5472 44.979C65.4788 44.8051 65.4416 44.6175 65.4377 44.4271V37.2017C65.4331 36.9408 65.4979 36.6844 65.6236 36.4663C65.7492 36.2482 65.9299 36.0787 66.1417 35.98C66.3453 35.8681 66.5737 35.8282 66.7973 35.8656C67.021 35.9029 67.2297 36.0157 67.3967 36.1894L69.0495 37.8649C69.1674 37.9966 69.2607 38.1542 69.3239 38.3282C69.387 38.5022 69.4186 38.6889 69.4168 38.8771V46.1025Z" fill="#5959FF"/>
<path d="M68.6788 38.3587V46.1339C68.6837 46.1975 68.6669 46.2608 68.6308 46.3148C68.5948 46.3688 68.5414 46.4107 68.4782 46.4344C68.4381 46.472 68.2777 46.5095 68.1173 46.3593L65.9916 44.5563C65.953 44.5312 65.9218 44.4974 65.9007 44.458C65.8797 44.4187 65.8696 44.375 65.8713 44.331V36.5557C65.8757 36.4941 65.8963 36.4344 65.9313 36.382C65.9663 36.3295 66.0146 36.286 66.0718 36.2552H66.1921L66.4328 36.3304L68.5584 38.1709C68.5939 38.19 68.6236 38.2173 68.6446 38.2502C68.6657 38.283 68.6774 38.3204 68.6788 38.3587Z" fill="#312893"/>
<path d="M69.0693 37.5696L67.3725 35.8381C67.2011 35.6586 66.9868 35.542 66.7573 35.5034C66.5277 35.4649 66.2933 35.5061 66.0843 35.6217C65.8668 35.7237 65.6813 35.8989 65.5523 36.1243C65.4233 36.3496 65.3568 36.6146 65.3616 36.8842V44.3511C65.3656 44.5479 65.4038 44.7418 65.4739 44.9214C65.5441 45.1011 65.6447 45.2628 65.77 45.3972L67.4354 47.1287C67.6665 47.3473 67.9532 47.4739 68.2523 47.4894C68.4277 47.4894 68.6003 47.4398 68.7551 47.3451C68.9641 47.2337 69.1407 47.0552 69.2633 46.8312C69.386 46.6072 69.4495 46.3472 69.4463 46.0826V38.6157C69.4481 38.4211 69.4157 38.2282 69.3509 38.0484C69.2861 37.8686 69.1903 37.7058 69.0693 37.5696ZM68.5037 46.0826C68.5075 46.1436 68.4944 46.2044 68.4661 46.2563C68.4379 46.3081 68.396 46.3484 68.3466 46.3711C68.3152 46.4072 68.1895 46.4433 68.0638 46.299L66.3985 44.5675C66.3682 44.5434 66.3438 44.511 66.3273 44.4731C66.3108 44.4353 66.3029 44.3934 66.3042 44.3511V36.8842C66.3077 36.825 66.3238 36.7677 66.3512 36.7173C66.3787 36.667 66.4165 36.6252 66.4613 36.5956H66.5556L66.7441 36.6678L68.4094 38.4353C68.4421 38.4565 68.4686 38.4884 68.4854 38.527C68.5022 38.5655 68.5085 38.609 68.5037 38.6517V46.0826Z" fill="#4239AB"/>
<path d="M46.246 48.9382H11.7754V49.5483H46.246V48.9382Z" fill="#312893"/>
<path d="M50.7642 12.0001H9.23412C8.69082 11.9956 8.15213 12.1109 7.6494 12.3391C7.14666 12.5674 6.68992 12.9042 6.30573 13.3298C5.92155 13.7555 5.6176 14.2615 5.41156 14.8185C5.20552 15.3755 5.10151 15.9724 5.10558 16.5743V50.8299C5.10151 51.4319 5.20552 52.0287 5.41156 52.5857C5.6176 53.1427 5.92155 53.6488 6.30573 54.0744C6.68992 54.5001 7.14666 54.8368 7.6494 55.0651C8.15213 55.2934 8.69082 55.4086 9.23412 55.4041H50.7642C51.8591 55.4041 52.9092 54.9222 53.6835 54.0644C54.4577 53.2065 54.8927 52.0431 54.8927 50.8299V16.5743C54.8927 15.3612 54.4577 14.1977 53.6835 13.3399C52.9092 12.482 51.8591 12.0001 50.7642 12.0001ZM53.9753 50.8299C53.9753 51.7735 53.6369 52.6784 53.0347 53.3456C52.4325 54.0128 51.6158 54.3876 50.7642 54.3876H9.23412C8.71177 54.3933 8.19651 54.2535 7.73562 53.981C7.54909 53.8811 7.37446 53.7559 7.21572 53.6083C6.83852 53.277 6.53488 52.8542 6.32813 52.3726C6.12138 51.891 6.01701 51.3632 6.02304 50.8299V16.5743C6.02304 15.6308 6.36135 14.7258 6.96354 14.0586C7.56574 13.3914 8.38249 13.0166 9.23412 13.0166H50.7642C51.6158 13.0166 52.4325 13.3914 53.0347 14.0586C53.6369 14.7258 53.9753 15.6308 53.9753 16.5743V50.8299Z" fill="#4239AB"/>
<path d="M69.4452 31.3914V35.8402C69.4452 36.4333 68.7129 36.7299 68.2468 36.3221L65.8502 34.246C65.7154 34.1129 65.6319 33.927 65.6172 33.727V29.2782C65.6172 28.6851 66.3495 28.3885 66.8155 28.7592L69.2122 30.8724C69.2901 30.9266 69.3532 31.0038 69.3943 31.0954C69.4354 31.1869 69.453 31.2894 69.4452 31.3914Z" fill="#4239AB"/>
<path d="M41.4247 39.0241C41.2881 36.8936 40.5922 34.8368 39.4071 33.0611C38.2221 31.2854 36.5897 29.8535 34.6747 28.9099C32.7597 27.9664 30.6298 27.5444 28.4997 27.6866C26.3696 27.8289 24.3146 28.5303 22.5421 29.7201C21.2216 30.604 20.0825 31.7327 19.1865 33.0451C17.8597 35.0501 17.1548 37.4023 17.1602 39.8066C17.1656 42.2108 17.8812 44.5599 19.217 46.5588C19.9755 47.7176 20.9365 48.7303 22.054 49.5483C22.3446 49.7725 22.6504 49.9764 22.9692 50.1584C24.1796 50.9253 25.5257 51.4534 26.9348 51.7142C27.6898 51.8556 28.4548 51.9372 29.2227 51.9582H29.3142L30.5344 51.8972C32.3332 51.7131 34.0657 51.1182 35.5982 50.1584C35.7633 50.0897 35.9175 49.9972 36.0558 49.8839L36.5134 49.5483L36.9709 49.2127L37.459 48.7857L38.0081 48.2671L38.1606 48.0841C39.7214 46.4429 40.7799 44.3894 41.2111 42.1661C41.3273 41.5621 41.3987 40.9503 41.4247 40.3358C41.4552 39.8991 41.4552 39.4608 41.4247 39.0241Z" fill="#C8C5E9"/>
<path d="M36.3295 35.3025C35.7176 34.3705 34.924 33.5714 33.9963 32.953C33.0687 32.3345 32.0258 31.9093 30.9302 31.7029C30.3883 31.5917 29.8359 31.5406 29.2829 31.5504C27.1765 31.538 25.1414 32.3127 23.5766 33.7228C22.0117 35.1329 21.03 37.0766 20.8238 39.173C20.6176 41.2693 21.2018 43.367 22.4619 45.055C23.722 46.7429 25.5672 47.8994 27.6356 48.2976C28.1879 48.4074 28.7503 48.4585 29.3134 48.4501C30.9775 48.4493 32.6031 47.9499 33.9807 47.0164C35.8451 45.7742 37.1399 43.8424 37.5803 41.6457C38.0208 39.4491 37.5709 37.1675 36.3295 35.3025V35.3025Z" stroke="#A49FDA" stroke-width="2" stroke-miterlimit="10" stroke-dasharray="5.12 5.12"/>
<path d="M32.5475 42.0746C32.5475 43.2338 31.0222 44.1794 29.1614 44.1794C27.3006 44.1794 25.7754 43.2338 25.7754 42.0746C25.7754 40.9154 26.4465 40.6409 27.4532 40.2748C27.5353 39.8786 27.7485 39.5216 28.0585 39.2615C28.3684 39.0013 28.757 38.8532 29.1614 38.8411C29.5691 38.8419 29.9635 38.9859 30.2757 39.248C30.588 39.51 30.7982 39.8735 30.8697 40.2748C31.8764 40.6409 32.5475 41.312 32.5475 42.0746Z" fill="#A49FDA"/>
<path d="M26.0509 40.3358C25.9073 40.4105 25.75 40.455 25.5886 40.4668C25.4272 40.4785 25.2651 40.4572 25.1122 40.4042C24.9593 40.3511 24.8188 40.2674 24.6994 40.1582C24.58 40.049 24.4841 39.9166 24.4176 39.7691C24.3511 39.6215 24.3154 39.462 24.3127 39.3002C24.31 39.1384 24.3403 38.9777 24.4018 38.828C24.4633 38.6783 24.5547 38.5428 24.6704 38.4296C24.7861 38.3165 24.9237 38.2281 25.0747 38.17C25.2183 38.0953 25.3756 38.0508 25.537 38.039C25.6984 38.0273 25.8605 38.0486 26.0134 38.1016C26.1663 38.1547 26.3068 38.2384 26.4262 38.3476C26.5456 38.4568 26.6415 38.5892 26.708 38.7367C26.7745 38.8843 26.8102 39.0438 26.8129 39.2056C26.8157 39.3675 26.7853 39.5281 26.7238 39.6778C26.6623 39.8275 26.5709 39.963 26.4552 40.0762C26.3395 40.1893 26.2019 40.2777 26.0509 40.3358Z" fill="#A49FDA"/>
<path d="M33.4337 40.3358C33.2901 40.4104 33.1328 40.455 32.9714 40.4667C32.81 40.4785 32.6479 40.4572 32.495 40.4041C32.3421 40.3511 32.2016 40.2674 32.0822 40.1582C31.9628 40.049 31.8669 39.9166 31.8004 39.769C31.7339 39.6215 31.6982 39.4619 31.6955 39.3001C31.6928 39.1383 31.7231 38.9777 31.7846 38.828C31.8461 38.6783 31.9375 38.5427 32.0532 38.4296C32.1689 38.3164 32.3065 38.2281 32.4575 38.1699C32.749 38.034 33.0824 38.0186 33.3852 38.1271C33.6879 38.2357 33.9356 38.4593 34.0743 38.7495C34.1968 39.0451 34.1984 39.377 34.0785 39.6737C33.9587 39.9704 33.7271 40.2082 33.4337 40.3358Z" fill="#A49FDA"/>
<path d="M31.1752 38.292C30.9587 38.3796 30.7211 38.4016 30.4922 38.3552C30.2633 38.3087 30.0531 38.1959 29.8879 38.0308C29.7226 37.8657 29.6096 37.6556 29.563 37.4267C29.5164 37.1978 29.5382 36.9603 29.6256 36.7437C29.7131 36.5271 29.8624 36.3411 30.0549 36.2088C30.2474 36.0765 30.4746 36.0037 30.7081 35.9997C30.9417 35.9956 31.1712 36.0604 31.3682 36.186C31.5652 36.3115 31.7208 36.4923 31.8158 36.7057C31.9383 37.0013 31.9398 37.3332 31.82 37.6299C31.7002 37.9266 31.4686 38.1644 31.1752 38.292Z" fill="#A49FDA"/>
<path d="M28.0951 38.292C27.8786 38.3796 27.641 38.4016 27.4121 38.3552C27.1832 38.3087 26.973 38.1959 26.8078 38.0308C26.6425 37.8657 26.5296 37.6556 26.4829 37.4267C26.4363 37.1978 26.4581 36.9603 26.5455 36.7437C26.633 36.5271 26.7823 36.3411 26.9748 36.2088C27.1673 36.0765 27.3945 36.0037 27.628 35.9997C27.8616 35.9956 28.0912 36.0604 28.2881 36.186C28.4851 36.3115 28.6408 36.4923 28.7357 36.7057C28.8582 37.0013 28.8598 37.3332 28.7399 37.6299C28.6201 37.9266 28.3885 38.1644 28.0951 38.292Z" fill="#A49FDA"/>
<path d="M41.4247 39.0241C41.2881 36.8936 40.5922 34.8368 39.4071 33.0611C38.2221 31.2854 36.5897 29.8535 34.6747 28.9099C32.7597 27.9664 30.6298 27.5444 28.4997 27.6866C26.3696 27.8289 24.3146 28.5303 22.5421 29.7201C21.2216 30.604 20.0825 31.7327 19.1865 33.0451C17.8597 35.0501 17.1548 37.4023 17.1602 39.8066C17.1656 42.2108 17.8812 44.5599 19.217 46.5588C19.9755 47.7176 20.9365 48.7303 22.054 49.5483C22.3446 49.7725 22.6504 49.9764 22.9692 50.1584C24.1796 50.9253 25.5257 51.4534 26.9348 51.7142C27.6898 51.8556 28.4548 51.9372 29.2227 51.9582H29.3142L30.5344 51.8972C32.3332 51.7131 34.0657 51.1182 35.5982 50.1584C35.7633 50.0897 35.9175 49.9972 36.0558 49.8839L36.5134 49.5483L36.9709 49.2127L37.459 48.7857L38.0081 48.2671L38.1606 48.0841C39.7214 46.4429 40.7799 44.3894 41.2111 42.1661C41.3273 41.5621 41.3987 40.9503 41.4247 40.3358C41.4552 39.8991 41.4552 39.4608 41.4247 39.0241V39.0241Z" stroke="#A49FDA" stroke-width="3" stroke-miterlimit="10"/>
</svg>
