<svg width="24" height="24" viewBox="0 0 24 24" fill="none" xmlns="http://www.w3.org/2000/svg">
<g clip-path="url(#clip0_1895_90813)">
<circle cx="12" cy="12" r="12" fill="url(#paint0_radial_1895_90813)"/>
<circle cx="12" cy="12" r="11.5" stroke="white" stroke-opacity="0.2"/>
<path d="M4.99236 18.753L4.94331 18.6871C4.56596 18.18 4.31692 17.5769 4.20371 16.8965C4.0773 16.1369 4.0773 15.3434 4.20371 14.5367C4.32244 13.7798 4.54133 13.042 4.85463 12.3428L4.82444 12.3013V12.2938C4.39238 11.5681 4.06787 10.4127 3.95655 9.20265C3.91316 8.74464 3.81505 7.21794 4.3339 6.82401C4.49993 6.69773 4.75275 6.63553 5.10368 6.63553C6.40928 6.63553 8.81485 7.52705 9.42803 7.76453C9.86362 7.59123 10.3165 7.46486 10.7789 7.38757C11.1156 7.33143 11.4564 7.30243 11.7977 7.30087C11.9789 7.15008 12.6656 6.5771 13.4543 6.01354C14.7014 5.11825 15.6108 4.66212 16.1542 4.66212C16.238 4.66238 16.3213 4.67509 16.4013 4.69982C17.0183 4.90715 17.4183 6.38296 17.5239 6.82966C17.7994 7.96998 17.8692 9.12726 17.7164 9.94904C18.9427 11.2024 19.7578 12.7461 20.0144 14.303C20.1691 15.2303 20.0408 16.0898 19.6352 16.8588C19.2654 17.5618 18.6635 18.1895 17.8466 18.7266L17.805 18.753H4.99236Z" fill="#5959FF"/>
<path d="M16.1542 4.82799C16.2208 4.82612 16.2871 4.83568 16.3504 4.85626C17.1051 5.10883 17.9089 8.25647 17.5391 10.0037C18.7277 11.1987 19.5843 12.7141 19.8522 14.3312C20.1597 16.1897 19.2767 17.592 17.7542 18.5909H5.07354C4.72261 18.1178 4.47734 17.5486 4.36603 16.8701C4.11509 15.3528 4.39055 13.7526 5.04713 12.3126C5.01532 12.2824 4.98686 12.249 4.96223 12.2127C4.04906 10.6747 3.79624 7.43658 4.42829 6.95595C4.57356 6.84475 4.80752 6.79951 5.09996 6.79951C6.41877 6.79951 8.89792 7.73438 9.42431 7.93983C10.1885 7.62277 11.0081 7.46067 11.8355 7.46297H11.8544C11.8544 7.46297 14.9297 4.82611 16.1523 4.82611L16.1542 4.82799ZM16.1523 4.50003C15.5675 4.50003 14.6524 4.9505 13.3543 5.87972C12.6053 6.41501 11.9657 6.94276 11.7337 7.13689C10.9424 7.14689 10.1594 7.29949 9.42242 7.58736C9.07904 7.45543 8.40737 7.20852 7.65457 6.97857C6.55084 6.64307 5.69239 6.47155 5.09996 6.47155C4.71129 6.47155 4.4264 6.54506 4.23018 6.69396C4.00189 6.86925 3.8585 7.20286 3.79058 7.72119C3.73775 8.13773 3.73586 8.65417 3.78869 9.21773C3.90189 10.4391 4.23018 11.6115 4.6679 12.3597C4.36934 13.048 4.15888 13.7712 4.04151 14.5122C3.91321 15.3359 3.91321 16.1482 4.04151 16.9248C4.15849 17.6297 4.41697 18.2573 4.81129 18.7851L4.9094 18.917H17.8542L17.9353 18.8623C18.7768 18.312 19.3975 17.6617 19.7805 16.9361C20.2031 16.135 20.3352 15.2397 20.1767 14.2785C20.0409 13.451 19.7541 12.6349 19.3315 11.8527C18.9418 11.1389 18.4576 10.4808 17.8919 9.89627C18.0296 9.05941 17.9542 7.91532 17.6844 6.79197C17.5523 6.24349 17.3844 5.75344 17.1995 5.37647C16.9693 4.90715 16.7259 4.63574 16.4542 4.54527C16.3572 4.51447 16.256 4.4992 16.1542 4.50003H16.1523Z" fill="black"/>
<path d="M13.3393 17.1735C13.1739 17.1732 13.0119 17.1269 12.8714 17.0397C12.7459 16.9627 12.6412 16.8561 12.5665 16.7293C12.4918 16.6024 12.4494 16.4592 12.4431 16.3122C12.4454 16.2793 12.4597 16.2485 12.4833 16.2255C12.5069 16.2025 12.5381 16.189 12.5711 16.1876C12.604 16.1862 12.6363 16.197 12.6618 16.2179C12.6872 16.2388 12.7041 16.2683 12.7091 16.3009C12.7136 16.4045 12.7434 16.5054 12.7961 16.5948C12.8487 16.6842 12.9225 16.7593 13.011 16.8135C13.0819 16.8573 13.1607 16.8865 13.243 16.8995C13.3253 16.9124 13.4094 16.9088 13.4902 16.8889C13.5711 16.8701 13.6474 16.8352 13.7145 16.7863C13.7816 16.7374 13.8381 16.6755 13.8808 16.6043C13.9246 16.5337 13.9539 16.4552 13.9672 16.3732C13.9804 16.2913 13.9773 16.2075 13.958 16.1267C13.9387 16.046 13.9036 15.9698 13.8548 15.9027C13.8059 15.8355 13.7442 15.7787 13.6733 15.7354C13.6581 15.7265 13.645 15.7147 13.6345 15.7006C13.624 15.6865 13.6164 15.6705 13.6122 15.6535C13.608 15.6365 13.6072 15.6188 13.6099 15.6015C13.6126 15.5841 13.6188 15.5675 13.628 15.5526C13.6372 15.5376 13.6494 15.5246 13.6637 15.5143C13.678 15.5039 13.6942 15.4966 13.7114 15.4925C13.7286 15.4885 13.7464 15.4879 13.7638 15.4908C13.7812 15.4937 13.7979 15.4999 13.8129 15.5093C13.9643 15.6023 14.0848 15.7381 14.159 15.8994C14.2333 16.0608 14.2581 16.2405 14.2303 16.4159C14.2024 16.5913 14.1232 16.7546 14.0026 16.885C13.8819 17.0155 13.7253 17.1074 13.5525 17.149C13.4825 17.1646 13.411 17.1728 13.3393 17.1735Z" fill="black"/>
<path d="M11.8205 17.3997C11.659 17.4002 11.5004 17.3565 11.362 17.2734C11.2475 17.2061 11.1495 17.1142 11.075 17.0043C11.0005 16.8945 10.9513 16.7695 10.9311 16.6384C10.9109 16.5072 10.9201 16.3732 10.9581 16.2461C10.996 16.1189 11.0618 16.0018 11.1507 15.9032C11.1623 15.8902 11.1764 15.8796 11.1921 15.8721C11.2079 15.8645 11.2249 15.8601 11.2424 15.8592C11.2598 15.8582 11.2773 15.8607 11.2937 15.8664C11.3102 15.8722 11.3254 15.8812 11.3384 15.8928C11.3514 15.9044 11.362 15.9185 11.3695 15.9342C11.3771 15.95 11.3815 15.967 11.3825 15.9844C11.3834 16.0019 11.3809 16.0193 11.3752 16.0357C11.3694 16.0522 11.3604 16.0674 11.3488 16.0804C11.2801 16.1578 11.2313 16.2508 11.2066 16.3513C11.182 16.4517 11.1822 16.5567 11.2073 16.6571C11.2383 16.7783 11.3045 16.8876 11.3977 16.9712C11.4908 17.0548 11.6066 17.109 11.7305 17.1269C11.8544 17.1449 11.9808 17.1257 12.0939 17.072C12.2069 17.0182 12.3015 16.9322 12.3657 16.8249C12.4087 16.7537 12.4368 16.6746 12.4485 16.5924C12.4601 16.5101 12.4551 16.4264 12.4336 16.3461C12.4255 16.3119 12.431 16.2759 12.449 16.2457C12.4669 16.2154 12.4959 16.1933 12.5299 16.184C12.5468 16.1795 12.5645 16.1784 12.5819 16.1808C12.5993 16.1832 12.6161 16.1891 12.6312 16.198C12.6463 16.207 12.6595 16.2189 12.6699 16.233C12.6804 16.2471 12.6879 16.2631 12.6921 16.2801C12.7219 16.3944 12.7285 16.5134 12.7117 16.6302C12.6948 16.7471 12.6548 16.8594 12.594 16.9606C12.5152 17.0954 12.4022 17.207 12.2664 17.2841C12.1305 17.3612 11.9767 17.4011 11.8205 17.3997Z" fill="black"/>
<path d="M14.3015 14.4858C14.0271 14.4844 13.7622 14.385 13.5546 14.2056C13.347 14.0263 13.2104 13.7787 13.1695 13.5076L13.0582 12.7593C13.0547 12.7381 13.0555 12.7165 13.0604 12.6956C13.0654 12.6747 13.0744 12.655 13.0871 12.6376C13.0997 12.6203 13.1157 12.6056 13.134 12.5945C13.1524 12.5833 13.1728 12.5759 13.194 12.5727C13.2371 12.5662 13.2809 12.5771 13.3159 12.6029C13.351 12.6287 13.3743 12.6673 13.3808 12.7103L13.4921 13.4605C13.53 13.6703 13.6483 13.8572 13.8218 13.9814C13.9953 14.1056 14.2105 14.1574 14.4216 14.1258C14.6327 14.0941 14.8232 13.9816 14.9526 13.812C15.082 13.6424 15.1401 13.4291 15.1147 13.2173L15.0034 12.469C15.0002 12.4479 15.0012 12.4263 15.0063 12.4055C15.0114 12.3847 15.0206 12.3652 15.0333 12.3479C15.046 12.3307 15.062 12.3161 15.0803 12.305C15.0986 12.294 15.119 12.2866 15.1402 12.2834C15.1614 12.2802 15.183 12.2811 15.2038 12.2863C15.2246 12.2914 15.2442 12.3006 15.2614 12.3133C15.2787 12.3259 15.2933 12.3419 15.3044 12.3602C15.3154 12.3785 15.3228 12.3989 15.326 12.42L15.4392 13.1683C15.4841 13.4692 15.4076 13.7756 15.2264 14.0202C15.0453 14.2647 14.7744 14.4275 14.4732 14.4726C14.4163 14.4807 14.359 14.4851 14.3015 14.4858Z" fill="black"/>
<path d="M9.68846 7.83804C9.68846 7.83804 10.2715 8.14715 10.2356 8.87658C10.1998 9.63804 9.69789 9.5815 9.79223 10.424C9.88656 11.2665 12.1091 12.8705 11.0261 15.317C9.96015 17.7296 5.14902 17.0963 4.28491 16.1482C4.07737 13.5962 5.71504 11.1007 5.71504 11.1007C5.71504 11.1007 7.71118 8.30359 9.68846 7.83804Z" fill="#6678FF"/>
<path d="M9.92622 15.006C9.65427 15.0059 9.39123 14.9092 9.18416 14.733C8.9771 14.5569 8.83953 14.3129 8.79607 14.0448L8.68287 13.2965C8.6791 13.275 8.67968 13.2529 8.68457 13.2316C8.68946 13.2103 8.69856 13.1902 8.71134 13.1725C8.72412 13.1547 8.74032 13.1397 8.75898 13.1283C8.77765 13.1169 8.7984 13.1094 8.82003 13.1061C8.84166 13.1028 8.86372 13.1039 8.88492 13.1093C8.90612 13.1147 8.92604 13.1242 8.94349 13.1374C8.96095 13.1506 8.97559 13.1671 8.98656 13.186C8.99753 13.2049 9.00461 13.2258 9.00739 13.2475L9.1187 13.9957C9.15732 14.2047 9.27565 14.3906 9.44875 14.5141C9.62185 14.6376 9.8362 14.6892 10.0466 14.6579C10.257 14.6266 10.447 14.5149 10.5766 14.3464C10.7062 14.1779 10.7653 13.9656 10.7413 13.7545L10.63 13.0062C10.6265 12.9851 10.6273 12.9636 10.6322 12.9428C10.6372 12.9221 10.6463 12.9025 10.659 12.8853C10.6716 12.8681 10.6876 12.8536 10.7059 12.8426C10.7243 12.8317 10.7446 12.8245 10.7658 12.8215C10.7871 12.818 10.809 12.8189 10.83 12.8239C10.851 12.829 10.8708 12.8382 10.8882 12.851C10.9056 12.8638 10.9202 12.88 10.9313 12.8986C10.9424 12.9171 10.9496 12.9377 10.9526 12.9591L11.0658 13.7093C11.1055 14.005 11.0282 14.3046 10.8503 14.5443C10.6724 14.784 10.4078 14.9449 10.113 14.9928C10.0512 15.0019 9.98872 15.0063 9.92622 15.006Z" fill="black"/>
<path d="M7.71877 9.21396C7.71877 9.21396 6.99804 8.21689 6.23769 7.6948C5.47735 7.1727 4.89813 6.92014 4.57927 7.07281C4.1774 7.26883 4.15476 8.50904 4.38683 9.78129C4.61889 11.0535 4.97737 11.651 5.13963 11.9809C5.30188 12.3107 7.71877 9.21396 7.71877 9.21396Z" fill="#6678FF"/>
<path opacity="0.2" d="M15.5713 8.31679C15.4256 8.80861 15.0936 9.22425 14.6459 9.47534C14.1982 9.72642 13.6701 9.79314 13.174 9.6613C12.6778 9.52947 12.2527 9.20948 11.989 8.76938C11.7253 8.32928 11.6439 7.80379 11.762 7.30464C11.762 7.30464 12.545 6.57333 15.2883 4.99197C18.0165 3.48977 17.8033 9.80768 17.8033 9.80768L15.5713 8.31679Z" fill="black"/>
<path d="M14.1411 7.76643C14.1411 7.76643 14.392 6.87679 14.9373 6.13229C15.4826 5.38779 15.941 4.95428 16.2939 4.99386C16.7372 5.04475 17.1712 6.20768 17.3749 7.4837C17.5787 8.75973 17.4429 9.44391 17.3976 9.80768C17.158 9.41187 14.1411 7.76643 14.1411 7.76643Z" fill="#6678FF"/>
<path d="M17.9296 18.917H4.84905L4.79811 18.8492C4.41322 18.3289 4.15851 17.7145 4.04342 17.0209C3.80192 15.5545 4.01701 13.9769 4.66981 12.4596C5.2962 11.0027 6.30559 9.69083 7.51309 8.76161C7.53043 8.74825 7.55024 8.73842 7.57139 8.73271C7.59253 8.72699 7.61459 8.72549 7.63632 8.72829C7.65804 8.73109 7.679 8.73813 7.698 8.74903C7.717 8.75992 7.73366 8.77444 7.74704 8.79177C7.76042 8.8091 7.77025 8.82888 7.77598 8.85001C7.7817 8.87113 7.78321 8.89317 7.7804 8.91487C7.7776 8.93658 7.77054 8.95751 7.75964 8.97649C7.74874 8.99547 7.7342 9.01212 7.71685 9.02549C5.28488 10.8971 3.90946 14.1635 4.37359 16.9662C4.47548 17.5769 4.69245 18.1197 5.01885 18.5815H17.8297C19.4503 17.5015 20.1333 16.1049 19.856 14.4293C19.3768 11.5398 16.9712 8.85774 14.0034 7.90779C13.9644 7.89176 13.9328 7.86165 13.915 7.82344C13.8972 7.78524 13.8945 7.74174 13.9073 7.70159C13.9202 7.66145 13.9476 7.6276 13.9843 7.60679C14.021 7.58597 14.0642 7.57971 14.1053 7.58926C15.575 8.06046 16.9844 8.98025 18.0768 10.1809C18.6159 10.771 19.074 11.4302 19.439 12.1411C19.8012 12.8429 20.0532 13.5962 20.1862 14.3746C20.3428 15.3189 20.2107 16.1972 19.7975 16.9832C19.4202 17.6994 18.8051 18.3403 17.9712 18.8887L17.9296 18.917Z" fill="black"/>
<path d="M5.14519 19.2242C5.06848 19.2245 4.99246 19.2096 4.92151 19.1804C4.85056 19.1513 4.78607 19.1084 4.73173 19.0543C4.6774 19.0002 4.63429 18.9359 4.60487 18.8651C4.57545 18.7944 4.56031 18.7185 4.56031 18.6418C4.55999 18.5868 4.56826 18.5322 4.58484 18.4797C4.71502 18.033 5.01124 17.6693 5.44141 17.4337C5.83007 17.2169 6.33005 17.1019 6.88286 17.1019C7.43567 17.1019 7.93565 17.2169 8.3262 17.4318C8.75637 17.6711 9.05258 18.033 9.18277 18.4797C9.22531 18.6284 9.2071 18.7879 9.13212 18.9233C9.05714 19.0586 8.93152 19.1587 8.78278 19.2016C8.73001 19.2167 8.6754 19.2243 8.62052 19.2242H5.14519Z" fill="#5959FF"/>
<path d="M6.88289 17.2678C7.91115 17.2678 8.77526 17.6711 9.0262 18.5269C9.05647 18.6338 9.04309 18.7484 8.98899 18.8456C8.93489 18.9427 8.84448 19.0145 8.73753 19.0452C8.69957 19.0565 8.66016 19.0622 8.62055 19.0621H5.14522C5.03363 19.0621 4.92662 19.0179 4.84771 18.939C4.76881 18.8602 4.72448 18.7533 4.72448 18.6418C4.72458 18.6029 4.7303 18.5642 4.74146 18.5269C4.99051 17.6711 5.85463 17.2678 6.88289 17.2678ZM6.88289 16.9398C5.61879 16.9398 4.69996 17.4977 4.42638 18.4345C4.37157 18.6249 4.39462 18.8293 4.49047 19.0028C4.58633 19.1763 4.74716 19.3048 4.93768 19.3599C5.00526 19.3787 5.07508 19.3882 5.14522 19.3882H8.62055C8.71883 19.3885 8.81618 19.3693 8.90705 19.3319C8.99791 19.2945 9.0805 19.2396 9.15008 19.1703C9.21966 19.1009 9.27486 19.0186 9.31253 18.9279C9.35019 18.8372 9.36958 18.74 9.36958 18.6418C9.36988 18.5716 9.35971 18.5017 9.33939 18.4345C9.0677 17.4977 8.14887 16.9398 6.88289 16.9398Z" fill="black"/>
<path d="M7.69238 18.5005C7.69238 18.5005 7.80747 18.7681 7.76785 18.9962L7.69238 18.5005Z" fill="#5959FF"/>
<path d="M7.76784 19.1601H7.74142C7.6987 19.1528 7.66064 19.1288 7.63555 19.0935C7.61045 19.0582 7.60035 19.0144 7.60747 18.9717C7.63199 18.8246 7.56784 18.6286 7.54143 18.5664C7.52649 18.5268 7.52745 18.483 7.54411 18.4441C7.56077 18.4052 7.59184 18.3742 7.63082 18.3577C7.66981 18.3411 7.71368 18.3403 7.75328 18.3553C7.79288 18.3703 7.82514 18.4 7.8433 18.4383C7.85651 18.4703 7.97537 18.7568 7.93009 19.0244C7.92342 19.0625 7.90347 19.0971 7.87378 19.1219C7.84409 19.1467 7.80656 19.1603 7.76784 19.1601Z" fill="black"/>
<path d="M6.28481 18.5005C6.28481 18.5005 6.11123 18.8416 6.16406 19.0621L6.28481 18.5005Z" fill="#5959FF"/>
<path d="M6.16411 19.2242C6.12743 19.2247 6.0917 19.2126 6.06286 19.19C6.03402 19.1674 6.01382 19.1355 6.00562 19.0998C5.93959 18.8303 6.11882 18.4665 6.13958 18.427C6.15909 18.3885 6.19311 18.3593 6.23416 18.3459C6.2752 18.3324 6.31991 18.3358 6.35844 18.3553C6.39697 18.3748 6.42617 18.4088 6.43961 18.4498C6.45306 18.4908 6.44965 18.5355 6.43013 18.574C6.36976 18.6946 6.29618 18.9132 6.32259 19.0226C6.32792 19.0435 6.32901 19.0653 6.3258 19.0866C6.32259 19.108 6.31514 19.1284 6.30389 19.1469C6.29264 19.1653 6.27782 19.1813 6.2603 19.194C6.24277 19.2066 6.2229 19.2156 6.20184 19.2205C6.18952 19.2236 6.1768 19.2248 6.16411 19.2242Z" fill="black"/>
<path d="M14.1874 11.7056C14.6211 11.6655 14.951 11.4001 14.9244 11.113C14.8977 10.8259 14.5245 10.6257 14.0908 10.6659C13.6571 10.7061 13.3272 10.9714 13.3538 11.2586C13.3805 11.5457 13.7537 11.7458 14.1874 11.7056Z" fill="#6678FF"/>
<path d="M9.48055 12.4086C9.91175 12.3346 10.2215 12.0432 10.1725 11.7578C10.1234 11.4723 9.73406 11.3008 9.30286 11.3748C8.87165 11.4488 8.56187 11.7402 8.61094 12.0256C8.66001 12.3111 9.04934 12.4825 9.48055 12.4086Z" fill="#5959FF"/>
<path opacity="0.2" d="M18.4032 10.8047C18.4032 10.8047 17.9617 11.5662 17.5409 11.8734C17.1202 12.1807 16.341 12.2504 16.3297 12.552C16.3183 12.8535 17.6805 13.4133 19.2126 12.0167L18.4032 10.8047Z" fill="black"/>
<path opacity="0.2" d="M19.288 12.1298C19.288 12.1298 18.7145 12.7989 18.2447 13.0232C17.7749 13.2475 16.9957 13.174 16.9296 13.468C16.8636 13.762 18.0994 14.5612 19.8616 13.4699L19.288 12.1298Z" fill="black"/>
<path d="M12.4864 15.072C12.4817 15.0847 12.4737 15.096 12.4633 15.1046C12.4528 15.1133 12.4403 15.1191 12.4269 15.1214C12.4135 15.1237 12.3998 15.1224 12.387 15.1177C12.3743 15.113 12.363 15.105 12.3543 15.0946C12.2166 14.9381 11.9789 14.8797 11.7902 14.9627C11.5525 15.0663 11.4317 15.3585 11.5223 15.6186C11.6129 15.8787 12.3242 16.3876 12.5751 16.3084C12.8468 16.2707 13.3694 15.5809 13.3958 15.317C13.4222 15.0531 13.2392 14.7949 12.9864 14.7704C12.7864 14.7497 12.5789 14.8797 12.4864 15.072Z" fill="black"/>
<path opacity="0.1" d="M17.6203 10.0282C17.6278 10.047 19.5428 14.2464 17.6127 16.8682C17.0109 17.6862 16.0335 18.2404 14.9713 18.6135H17.8353C19.356 17.6146 20.2409 16.2142 19.9334 14.3557C19.6655 12.7386 18.8089 11.2213 17.6203 10.0282Z" fill="black"/>
<path d="M15.7241 19.2242C15.6475 19.2245 15.5716 19.2096 15.5007 19.1804C15.4299 19.1512 15.3655 19.1083 15.3113 19.0542C15.2571 19.0001 15.2142 18.9358 15.185 18.865C15.1558 18.7942 15.1409 18.7184 15.1411 18.6418C15.1411 18.587 15.1487 18.5324 15.1638 18.4797C15.2939 18.033 15.5902 17.6693 16.0203 17.4337C16.409 17.2169 16.909 17.1019 17.4637 17.1019C18.0184 17.1019 18.5165 17.2169 18.9051 17.4318C19.3353 17.6711 19.6315 18.033 19.7617 18.4797C19.783 18.5532 19.7897 18.6302 19.7812 18.7063C19.7728 18.7824 19.7494 18.8561 19.7124 18.9231C19.6755 18.9902 19.6256 19.0493 19.5658 19.0971C19.5059 19.1448 19.4372 19.1804 19.3636 19.2016C19.3108 19.2167 19.2562 19.2243 19.2013 19.2242H15.7241Z" fill="#5959FF"/>
<path d="M17.4636 17.2678C18.4918 17.2678 19.3559 17.6711 19.605 18.5269C19.6202 18.5798 19.6248 18.6353 19.6186 18.69C19.6123 18.7448 19.5953 18.7978 19.5685 18.8459C19.5416 18.8941 19.5056 18.9365 19.4623 18.9707C19.419 19.0049 19.3694 19.0302 19.3163 19.0452C19.279 19.0565 19.2402 19.0622 19.2012 19.0621H15.724C15.6126 19.0616 15.5058 19.0172 15.427 18.9385C15.3482 18.8598 15.3038 18.7531 15.3033 18.6418C15.3034 18.6029 15.3091 18.5642 15.3202 18.5269C15.5693 17.6711 16.4334 17.2678 17.4617 17.2678H17.4636ZM17.4617 16.9398C16.1976 16.9398 15.2787 17.4977 15.0052 18.4345C14.9509 18.6249 14.9741 18.8291 15.0699 19.0025C15.1657 19.1758 15.3262 19.3043 15.5165 19.3599C15.584 19.3787 15.6539 19.3882 15.724 19.3882H19.2012C19.3994 19.3882 19.5894 19.3096 19.7295 19.1696C19.8696 19.0296 19.9484 18.8398 19.9484 18.6418C19.9484 18.5718 19.9388 18.502 19.9201 18.4345C19.6465 17.4977 18.7277 16.9398 17.4636 16.9398H17.4617Z" fill="black"/>
<path d="M18.2711 18.5005C18.2711 18.5005 18.3862 18.7681 18.3466 18.9962L18.2711 18.5005Z" fill="#5959FF"/>
<path d="M18.3466 19.1601H18.3183C18.2756 19.1528 18.2375 19.1288 18.2124 19.0935C18.1873 19.0582 18.1772 19.0144 18.1843 18.9717C18.2107 18.8246 18.1466 18.6286 18.1202 18.5664C18.1052 18.5268 18.1062 18.483 18.1229 18.4441C18.1395 18.4052 18.1706 18.3742 18.2096 18.3577C18.2485 18.3411 18.2924 18.3403 18.332 18.3553C18.3716 18.3703 18.4039 18.4 18.422 18.4383C18.4352 18.4703 18.5541 18.7568 18.5088 19.0263C18.5014 19.0639 18.4812 19.0978 18.4516 19.1222C18.4221 19.1466 18.3849 19.16 18.3466 19.1601Z" fill="black"/>
<path d="M16.8635 18.5005C16.8635 18.5005 16.69 18.8416 16.7428 19.0621L16.8635 18.5005Z" fill="#5959FF"/>
<path d="M16.7428 19.2242C16.7062 19.2247 16.6704 19.2126 16.6416 19.19C16.6128 19.1674 16.5926 19.1355 16.5844 19.0998C16.5183 18.8303 16.6976 18.4665 16.7183 18.427C16.7279 18.4078 16.7412 18.3908 16.7574 18.3769C16.7736 18.3629 16.7925 18.3523 16.8128 18.3456C16.8332 18.339 16.8546 18.3364 16.876 18.3381C16.8973 18.3397 16.9181 18.3456 16.9372 18.3553C16.9565 18.3648 16.9737 18.3779 16.9879 18.394C17.002 18.4102 17.0128 18.429 17.0197 18.4493C17.0265 18.4696 17.0293 18.4911 17.0277 18.5125C17.0262 18.5339 17.0204 18.5548 17.0108 18.574C16.9485 18.6946 16.8768 18.9132 16.9032 19.0226C16.9134 19.0648 16.9065 19.1094 16.8838 19.1465C16.8612 19.1836 16.8247 19.2102 16.7825 19.2205C16.7695 19.2236 16.7562 19.2248 16.7428 19.2242Z" fill="black"/>
</g>
<defs>
<radialGradient id="paint0_radial_1895_90813" cx="0" cy="0" r="1" gradientUnits="userSpaceOnUse" gradientTransform="translate(12 12) rotate(90) scale(12)">
<stop stop-color="#36ABBF"/>
<stop offset="0.557292" stop-color="#1A2FAB"/>
<stop offset="1" stop-color="#1C109E"/>
</radialGradient>
<clipPath id="clip0_1895_90813">
<rect width="24" height="24" rx="8" fill="white"/>
</clipPath>
</defs>
</svg>
