<svg width="1440" height="458" viewBox="0 0 1440 458" fill="none" xmlns="http://www.w3.org/2000/svg"><g clip-path="url(#clip0_199_21042)"><path fill="#08052E" d="M0 0h1440v458H0z"/><path d="M556.327-99.186c5.089 17.355 1.836 36.284-8.442 55.67C537.606-24.13 520.308-4.3 497.338 14.835 451.398 53.103 382.809 88.56 302.46 112.12c-80.35 23.56-157.224 30.756-216.555 23.355-29.665-3.7-54.933-11.049-74.054-21.816-19.12-10.766-32.078-24.941-37.167-42.295-5.089-17.355-1.836-36.283 8.442-55.67 10.28-19.387 27.577-39.217 50.548-58.351 45.94-38.268 114.528-73.724 194.877-97.284 80.35-23.559 157.224-30.756 216.555-23.355 29.666 3.7 54.933 11.049 74.054 21.816 19.119 10.766 32.079 24.941 37.167 42.295z" stroke="url(#paint0_linear_199_21042)" stroke-width=".5"/><path d="M688.158-137.841c7.404 25.251 2.668 52.784-12.275 80.969C660.94-28.686 635.795.136 602.414 27.942 535.652 83.555 435.983 135.077 319.23 169.31 202.476 203.544 90.767 214.004 4.545 203.248c-43.112-5.377-79.839-16.057-107.637-31.711-27.797-15.652-46.651-36.269-54.055-61.519-7.404-25.251-2.668-52.784 12.275-80.969 14.944-28.186 40.088-57.008 73.47-84.814C-4.642-111.378 95.027-162.9 211.781-197.133c116.754-34.234 228.463-44.694 314.685-33.938 43.111 5.377 79.838 16.057 107.636 31.711 27.797 15.652 46.651 36.269 54.055 61.519z" stroke="url(#paint1_linear_199_21042)" stroke-width=".5"/><path d="M848.572-184.877c10.221 34.86 3.68 72.863-16.939 111.754-20.619 38.892-55.311 78.655-101.361 117.015-92.098 76.718-229.586 147.787-390.637 195.01-161.051 47.223-315.147 61.652-434.091 46.815-59.472-7.419-110.144-22.153-148.501-43.752-38.355-21.598-64.382-50.052-74.603-84.911-10.222-34.859-3.681-72.862 16.938-111.753 20.619-38.892 55.312-78.656 101.361-117.015 92.098-76.719 229.587-147.788 390.637-195.01 161.051-47.223 315.147-61.652 434.091-46.815 59.473 7.418 110.144 22.152 148.501 43.751 38.355 21.598 64.382 50.052 74.604 84.911z" stroke="url(#paint2_linear_199_21042)" stroke-width=".5"/><path d="M1511.07-239.119c7.62 17.174 6.86 37.112-1.07 58.482-7.92 21.372-23.02 44.159-44.05 67.008-42.06 45.696-107.82 91.598-187.33 126.864-79.5 35.265-157.67 53.207-219.77 53.714-31.05.254-58.08-3.85-79.239-12.318-21.162-8.467-36.45-21.288-44.068-38.462-7.618-17.174-6.861-37.112 1.066-58.482 7.928-21.372 23.023-44.16 44.053-67.008 42.058-45.696 107.828-91.598 187.328-126.864 79.5-35.265 157.67-53.207 219.77-53.714 31.05-.254 58.08 3.851 79.24 12.318 21.16 8.467 36.45 21.288 44.07 38.462z" stroke="url(#paint3_linear_199_21042)" stroke-width=".5"/><path d="M1641.51-296.979c11.08 24.988 9.98 53.988-1.55 85.056-11.52 31.07-33.46 64.191-64.02 97.395-61.13 66.407-156.69 133.108-272.21 184.351-115.53 51.243-229.11 77.316-319.365 78.053-45.126.369-84.406-5.596-115.173-17.905-30.766-12.309-53.006-30.955-64.089-55.942-11.084-24.988-9.979-53.988 1.546-85.056 11.526-31.07 33.468-64.191 64.029-97.395C931.8-174.829 1027.36-241.53 1142.89-292.773c115.52-51.243 229.11-77.316 319.36-78.053 45.12-.369 84.4 5.596 115.17 17.905 30.77 12.309 53.01 30.955 64.09 55.942z" stroke="url(#paint4_linear_199_21042)" stroke-width=".5"/><path d="M1800.23-367.383c15.3 34.495 13.77 74.522-2.13 117.391-15.9 42.87-46.18 88.566-88.33 134.37-84.32 91.609-216.15 183.618-375.5 254.303S1018.23 245.332 893.729 246.35c-62.251.509-116.444-7.72-158.897-24.705-42.452-16.984-73.15-42.717-88.451-77.212-15.301-34.494-13.772-74.522 2.13-117.39 15.904-42.87 46.177-88.566 88.336-134.371 84.318-91.608 216.144-183.618 375.493-254.303 159.36-70.684 316.04-106.651 440.54-107.668 62.26-.509 116.45 7.719 158.9 24.704s73.15 42.717 88.45 77.212z" stroke="url(#paint5_linear_199_21042)" stroke-width=".5"/></g><defs><linearGradient id="paint0_linear_199_21042" x1="11.469" y1="197.703" x2="593.592" y2="27.014" gradientUnits="userSpaceOnUse"><stop stop-color="#493FB5"/><stop offset="1" stop-color="#312893" stop-opacity="0"/></linearGradient><linearGradient id="paint1_linear_199_21042" x1="-103.593" y1="293.55" x2="742.192" y2="45.551" gradientUnits="userSpaceOnUse"><stop stop-color="#493FB5"/><stop offset="1" stop-color="#312893" stop-opacity="0"/></linearGradient><linearGradient id="paint2_linear_199_21042" x1="-243.601" y1="410.177" x2="346.775" y2="202.458" gradientUnits="userSpaceOnUse"><stop stop-color="#493FB5"/><stop offset="1" stop-color="#312893" stop-opacity="0"/></linearGradient><linearGradient id="paint3_linear_199_21042" x1="1285.03" y1="158.107" x2="1438.13" y2="-345.753" gradientUnits="userSpaceOnUse"><stop stop-color="#493FB5" stop-opacity=".07"/><stop offset=".838" stop-color="#493FB5"/><stop offset="1" stop-color="#312893" stop-opacity="0"/></linearGradient><linearGradient id="paint4_linear_199_21042" x1="1312.99" y1="280.21" x2="1535.43" y2="-451.864" gradientUnits="userSpaceOnUse"><stop stop-color="#493FB5" stop-opacity=".07"/><stop offset=".838" stop-color="#493FB5"/><stop offset="1" stop-color="#312893" stop-opacity="0"/></linearGradient><linearGradient id="paint5_linear_199_21042" x1="1347.01" y1="428.786" x2="1653.82" y2="-580.982" gradientUnits="userSpaceOnUse"><stop stop-color="#493FB5" stop-opacity=".07"/><stop offset=".838" stop-color="#493FB5"/><stop offset="1" stop-color="#312893" stop-opacity="0"/></linearGradient><clipPath id="clip0_199_21042"><path fill="#fff" d="M0 0h1440v458H0z"/></clipPath></defs></svg>