<svg width="124" height="124" viewBox="0 0 124 124" fill="none" xmlns="http://www.w3.org/2000/svg"><path d="M35.32 0h82.458c1.65 0 3.233.559 4.4 1.553 1.166.995 1.822 2.344 1.822 3.75V24.8H29.098V5.303c0-.696.16-1.386.473-2.03a5.335 5.335 0 011.35-1.72 6.387 6.387 0 012.018-1.15A7.17 7.17 0 0135.32 0z" fill="#6678FF"/><path d="M118.852 19.84H34.246c-2.844 0-5.148 1.964-5.148 4.388v72.11c0 2.424 2.305 4.388 5.148 4.388h84.606c2.843 0 5.148-1.964 5.148-4.388v-72.11c0-2.424-2.305-4.388-5.148-4.388z" fill="#5959FF"/><path d="M115.942 27.852H37.155v67.151h78.787v-67.15z" fill="#221A7E"/><path d="M34.917 27.852L1.925 55.247a5.406 5.406 0 00-1.433 1.777A4.666 4.666 0 000 59.138V124h3.134l.76-3.243 31.023-25.754V32.05h3.134v-4.197h-3.134z" fill="#5050E5"/><path d="M115.942 77.452H37.155v17.551h78.787v-17.55z" fill="#4E4EDE"/><path d="M3.134 124L38.05 95.003v-67.15L4.656 55.59c-.487.4-.873.88-1.135 1.412a3.698 3.698 0 00-.387 1.679V124z" fill="#6678FF"/><path d="M9.625 88.517c1.607 0 2.91-2.477 2.91-5.532 0-3.056-1.303-5.533-2.91-5.533-1.607 0-2.91 2.477-2.91 5.533 0 3.055 1.303 5.532 2.91 5.532z" fill="#4040B7"/></svg>