<svg width="1440" height="60" viewBox="0 0 1440 60" fill="none" xmlns="http://www.w3.org/2000/svg"><g filter="url(#filter0_b_199_21342)"><g clip-path="url(#clip0_199_21342)"><path d="M0 8a8 8 0 018-8h1424a8 8 0 018 8v44a8 8 0 01-8 8H8a8 8 0 01-8-8V8z" fill="#120D48"/><path d="M361.524 141.242c-4.783 8.7-13.419 14.788-25.017 18.316-11.601 3.529-26.134 4.484-42.635 2.933-33-3.102-73.774-16.216-114.484-38.628-40.71-22.412-73.607-49.855-93.89-76.087-10.141-13.116-17.114-25.91-20.345-37.605-3.23-11.691-2.714-22.25 2.07-30.95 4.783-8.7 13.419-14.788 25.017-18.316 11.601-3.528 26.133-4.483 42.634-2.933 33 3.102 73.774 16.217 114.485 38.629 40.71 22.412 73.606 49.854 93.889 76.086 10.142 13.117 17.115 25.911 20.346 37.605 3.23 11.692 2.714 22.25-2.07 30.95z" stroke="url(#paint0_linear_199_21342)"/><path d="M428.371 178.043c-6.986 12.707-19.591 21.582-36.481 26.72-16.892 5.138-38.039 6.525-62.032 4.27-47.984-4.51-107.256-23.577-166.426-56.151C104.263 120.307 56.44 80.416 26.948 42.273 12.2 23.201 2.052 4.585-2.652-12.443-7.358-29.468-6.613-44.873.373-57.58 7.36-70.286 19.966-79.162 36.855-84.3c16.893-5.138 38.039-6.525 62.032-4.27 47.984 4.51 107.256 23.577 166.426 56.151C324.483.157 372.305 40.047 401.798 78.19c14.746 19.072 24.895 37.688 29.6 54.716 4.704 17.025 3.96 32.43-3.027 45.137z" stroke="url(#paint1_linear_199_21342)"/><path d="M509.713 222.823c-9.667 17.582-27.102 29.85-50.43 36.945-23.331 7.097-52.526 9.009-85.635 5.898-66.218-6.224-147.998-32.534-229.629-77.474C62.387 143.252-3.597 88.214-44.296 35.577-64.646 9.258-78.66-16.44-85.158-39.959c-6.498-23.516-5.475-44.819 4.192-62.401 9.666-17.582 27.101-29.849 50.43-36.945 23.331-7.097 52.525-9.009 85.635-5.897 66.217 6.223 147.998 32.533 229.629 77.473S432.344 32.249 473.043 84.886c20.35 26.319 34.363 52.018 40.862 75.537 6.497 23.515 5.475 44.818-4.192 62.4z" stroke="url(#paint2_linear_199_21342)"/><rect x="8" y="19" width="24" height="24" rx="10" fill="url(#paint3_radial_199_21342)"/><path opacity=".7" d="M19.999 28.959l-5.155 2.344 5.155 3.046 5.153-3.046-5.153-2.344z" fill="#fff"/><path opacity=".5" d="M14.844 31.303l5.155 3.046V22.75l-5.155 8.553z" fill="#fff"/><path opacity=".8" d="M20 22.75v11.599l5.152-3.046L20 22.75z" fill="#fff"/><path opacity=".5" d="M14.844 32.28l5.155 7.263v-4.217l-5.155-3.046z" fill="#fff"/><path opacity=".8" d="M20 35.326v4.217l5.156-7.263L20 35.326z" fill="#fff"/><rect x="8.5" y="19.5" width="23" height="23" rx="9.5" stroke="#fff" stroke-opacity=".2"/><rect x="355" y="27" width="18" height="18" rx="9" fill="url(#paint4_radial_199_21342)"/><path opacity=".7" d="M363.999 34.469l-3.866 1.758 3.866 2.285 3.865-2.285-3.865-1.758z" fill="#fff"/><path opacity=".5" d="M360.133 36.227l3.866 2.285v-8.7l-3.866 6.415z" fill="#fff"/><path opacity=".8" d="M363.999 29.813v8.699l3.865-2.285-3.865-6.414z" fill="#fff"/><path opacity=".5" d="M360.133 36.96l3.866 5.447v-3.163l-3.866-2.284z" fill="#fff"/><path opacity=".8" d="M363.999 39.244v3.163l3.868-5.447-3.868 2.284z" fill="#fff"/><rect x="355.5" y="27.5" width="17" height="17" rx="8.5" stroke="#fff" stroke-opacity=".2"/><rect x="289" y="21" width="18" height="18" rx="9" fill="url(#paint5_radial_199_21342)"/><path opacity=".7" d="M297.999 28.469l-3.866 1.758 3.866 2.285 3.865-2.285-3.865-1.758z" fill="#fff"/><path opacity=".5" d="M294.133 30.227l3.866 2.285v-8.7l-3.866 6.415z" fill="#fff"/><path opacity=".8" d="M297.999 23.813v8.699l3.865-2.285-3.865-6.415z" fill="#fff"/><path opacity=".5" d="M294.133 30.96l3.866 5.447v-3.163l-3.866-2.284z" fill="#fff"/><path opacity=".8" d="M297.999 33.244v3.163l3.868-5.447-3.868 2.284z" fill="#fff"/><rect x="289.5" y="21.5" width="17" height="17" rx="8.5" stroke="#fff" stroke-opacity=".2"/><rect x="80" y="41" width="14" height="14" rx="7" fill="url(#paint6_radial_199_21342)"/><path opacity=".7" d="M87 46.81l-3.008 1.367L87 49.953l3.006-1.776L87 46.809z" fill="#fff"/><path opacity=".5" d="M83.992 48.177L87 49.953v-6.766l-3.007 4.99z" fill="#fff"/><path opacity=".8" d="M87 43.188v6.765l3.005-1.776L87 43.187z" fill="#fff"/><path opacity=".5" d="M83.992 48.747L87 52.983v-2.46l-3.007-1.776z" fill="#fff"/><path opacity=".8" d="M87 50.523v2.46l3.008-4.236L87 50.523z" fill="#fff"/><rect x="80.5" y="41.5" width="13" height="13" rx="6.5" stroke="#fff" stroke-opacity=".2"/><path d="M1458.52 141.242c-4.78 8.7-13.42 14.788-25.01 18.316-11.6 3.529-26.14 4.484-42.64 2.933-33-3.102-73.77-16.216-114.48-38.628-40.71-22.412-73.61-49.855-93.89-76.087-10.14-13.116-17.12-25.91-20.35-37.605-3.23-11.691-2.71-22.25 2.07-30.95 4.79-8.7 13.42-14.788 25.02-18.316 11.6-3.528 26.13-4.483 42.63-2.933 33 3.102 73.78 16.217 114.49 38.629 40.71 22.412 73.61 49.854 93.89 76.086 10.14 13.117 17.11 25.911 20.34 37.605 3.23 11.692 2.72 22.25-2.07 30.95z" stroke="url(#paint7_linear_199_21342)"/><path d="M1525.37 178.043c-6.98 12.707-19.59 21.582-36.48 26.72-16.89 5.138-38.04 6.525-62.03 4.27-47.99-4.51-107.26-23.577-166.43-56.151-59.17-32.575-106.99-72.466-136.48-110.609-14.75-19.072-24.9-37.688-29.6-54.716-4.71-17.025-3.96-32.43 3.02-45.137 6.99-12.706 19.6-21.582 36.49-26.72 16.89-5.138 38.03-6.525 62.03-4.27 47.98 4.51 107.25 23.577 166.42 56.151 59.17 32.575 107 72.466 136.49 110.609 14.74 19.072 24.89 37.688 29.6 54.716 4.7 17.025 3.96 32.43-3.03 45.137z" stroke="url(#paint8_linear_199_21342)"/><path d="M1606.71 222.823c-9.66 17.582-27.1 29.85-50.43 36.945-23.33 7.097-52.52 9.009-85.63 5.898-66.22-6.224-148-32.534-229.63-77.474-81.63-44.94-147.62-99.978-188.32-152.615-20.35-26.319-34.36-52.018-40.86-75.536-6.5-23.516-5.47-44.819 4.19-62.401 9.67-17.582 27.11-29.849 50.43-36.945 23.33-7.097 52.53-9.009 85.64-5.897 66.22 6.223 148 32.533 229.63 77.473s147.61 99.978 188.31 152.615c20.35 26.319 34.37 52.018 40.86 75.537 6.5 23.515 5.48 44.818-4.19 62.4z" stroke="url(#paint9_linear_199_21342)"/><rect x="1046" y="30" width="16" height="16" rx="8" fill="url(#paint10_radial_199_21342)"/><path opacity=".7" d="M1054 36.64l-3.44 1.562 3.44 2.03 3.43-2.03-3.43-1.563z" fill="#fff"/><path opacity=".5" d="M1050.56 38.202l3.44 2.03V32.5l-3.44 5.702z" fill="#fff"/><path opacity=".8" d="M1054 32.5v7.733l3.43-2.03L1054 32.5z" fill="#fff"/><path opacity=".5" d="M1050.56 38.853l3.44 4.842v-2.811l-3.44-2.03z" fill="#fff"/><path opacity=".8" d="M1054 40.884v2.811l3.44-4.842-3.44 2.03z" fill="#fff"/><rect x="1046.5" y="30.5" width="15" height="15" rx="7.5" stroke="#fff" stroke-opacity=".2"/><rect x="1105" y="19" width="24" height="24" rx="10" fill="url(#paint11_radial_199_21342)"/><path opacity=".7" d="M1117 28.959l-5.16 2.344 5.16 3.046 5.15-3.046-5.15-2.344z" fill="#fff"/><path opacity=".5" d="M1111.84 31.303l5.16 3.046V22.75l-5.16 8.553z" fill="#fff"/><path opacity=".8" d="M1117 22.75v11.599l5.15-3.046-5.15-8.553z" fill="#fff"/><path opacity=".5" d="M1111.84 32.28l5.16 7.263v-4.217l-5.16-3.046z" fill="#fff"/><path opacity=".8" d="M1117 35.326v4.217l5.16-7.263-5.16 3.046z" fill="#fff"/><rect x="1105.5" y="19.5" width="23" height="23" rx="9.5" stroke="#fff" stroke-opacity=".2"/><rect x="1386" y="21" width="18" height="18" rx="9" fill="url(#paint12_radial_199_21342)"/><path opacity=".7" d="M1395 28.469l-3.87 1.758 3.87 2.285 3.86-2.285-3.86-1.758z" fill="#fff"/><path opacity=".5" d="M1391.13 30.227l3.87 2.285v-8.7l-3.87 6.415z" fill="#fff"/><path opacity=".8" d="M1395 23.813v8.699l3.86-2.285-3.86-6.415z" fill="#fff"/><path opacity=".5" d="M1391.13 30.96l3.87 5.447v-3.163l-3.87-2.284z" fill="#fff"/><path opacity=".8" d="M1395 33.244v3.163l3.87-5.447-3.87 2.284z" fill="#fff"/><rect x="1386.5" y="21.5" width="17" height="17" rx="8.5" stroke="#fff" stroke-opacity=".2"/><rect x="1177" y="41" width="14" height="14" rx="7" fill="url(#paint13_radial_199_21342)"/><path opacity=".7" d="M1184 46.81l-3.01 1.367 3.01 1.776 3.01-1.776-3.01-1.368z" fill="#fff"/><path opacity=".5" d="M1180.99 48.177l3.01 1.776v-6.766l-3.01 4.99z" fill="#fff"/><path opacity=".8" d="M1184 43.188v6.765l3.01-1.776-3.01-4.99z" fill="#fff"/><path opacity=".5" d="M1180.99 48.747l3.01 4.236v-2.46l-3.01-1.776z" fill="#fff"/><path opacity=".8" d="M1184 50.523v2.46l3.01-4.236-3.01 1.776z" fill="#fff"/><rect x="1177.5" y="41.5" width="13" height="13" rx="6.5" stroke="#fff" stroke-opacity=".2"/></g><path d="M8 .5h1424c4.14 0 7.5 3.358 7.5 7.5v44c0 4.142-3.36 7.5-7.5 7.5H8A7.5 7.5 0 01.5 52V8A7.5 7.5 0 018 .5z" stroke="#FF8071"/></g><defs><radialGradient id="paint3_radial_199_21342" cx="0" cy="0" r="1" gradientUnits="userSpaceOnUse" gradientTransform="matrix(0 12 -12 0 20 31)"><stop stop-color="#B2BFE2"/><stop offset="1" stop-color="#6474A2"/></radialGradient><radialGradient id="paint4_radial_199_21342" cx="0" cy="0" r="1" gradientUnits="userSpaceOnUse" gradientTransform="matrix(0 9 -9 0 364 36)"><stop stop-color="#B2BFE2"/><stop offset="1" stop-color="#6474A2"/></radialGradient><radialGradient id="paint5_radial_199_21342" cx="0" cy="0" r="1" gradientUnits="userSpaceOnUse" gradientTransform="matrix(0 9 -9 0 298 30)"><stop stop-color="#B2BFE2"/><stop offset="1" stop-color="#6474A2"/></radialGradient><radialGradient id="paint6_radial_199_21342" cx="0" cy="0" r="1" gradientUnits="userSpaceOnUse" gradientTransform="matrix(0 7 -7 0 87 48)"><stop stop-color="#B2BFE2"/><stop offset="1" stop-color="#6474A2"/></radialGradient><radialGradient id="paint10_radial_199_21342" cx="0" cy="0" r="1" gradientUnits="userSpaceOnUse" gradientTransform="matrix(0 8 -8 0 1054 38)"><stop stop-color="#B2BFE2"/><stop offset="1" stop-color="#6474A2"/></radialGradient><radialGradient id="paint11_radial_199_21342" cx="0" cy="0" r="1" gradientUnits="userSpaceOnUse" gradientTransform="matrix(0 12 -12 0 1117 31)"><stop stop-color="#B2BFE2"/><stop offset="1" stop-color="#6474A2"/></radialGradient><radialGradient id="paint12_radial_199_21342" cx="0" cy="0" r="1" gradientUnits="userSpaceOnUse" gradientTransform="matrix(0 9 -9 0 1395 30)"><stop stop-color="#B2BFE2"/><stop offset="1" stop-color="#6474A2"/></radialGradient><radialGradient id="paint13_radial_199_21342" cx="0" cy="0" r="1" gradientUnits="userSpaceOnUse" gradientTransform="matrix(0 7 -7 0 1184 48)"><stop stop-color="#B2BFE2"/><stop offset="1" stop-color="#6474A2"/></radialGradient><linearGradient id="paint0_linear_199_21342" x1="31.558" y1="43.05" x2="326.825" y2="205.391" gradientUnits="userSpaceOnUse"><stop stop-color="#493FB5"/><stop offset="1" stop-color="#312893"/></linearGradient><linearGradient id="paint1_linear_199_21342" x1="-51.245" y1="35.267" x2="377.757" y2="271.139" gradientUnits="userSpaceOnUse"><stop stop-color="#493FB5"/><stop offset="1" stop-color="#312893"/></linearGradient><linearGradient id="paint2_linear_199_21342" x1="-152" y1="25.798" x2="439.733" y2="351.141" gradientUnits="userSpaceOnUse"><stop stop-color="#493FB5"/><stop offset="1" stop-color="#312893"/></linearGradient><linearGradient id="paint7_linear_199_21342" x1="1128.56" y1="43.05" x2="1423.82" y2="205.391" gradientUnits="userSpaceOnUse"><stop stop-color="#493FB5"/><stop offset="1" stop-color="#312893"/></linearGradient><linearGradient id="paint8_linear_199_21342" x1="1045.75" y1="35.267" x2="1474.76" y2="271.139" gradientUnits="userSpaceOnUse"><stop stop-color="#493FB5"/><stop offset="1" stop-color="#312893"/></linearGradient><linearGradient id="paint9_linear_199_21342" x1="945" y1="25.798" x2="1536.73" y2="351.141" gradientUnits="userSpaceOnUse"><stop stop-color="#493FB5"/><stop offset="1" stop-color="#312893"/></linearGradient><clipPath id="clip0_199_21342"><path d="M0 8a8 8 0 018-8h1424a8 8 0 018 8v44a8 8 0 01-8 8H8a8 8 0 01-8-8V8z" fill="#fff"/></clipPath><filter id="filter0_b_199_21342" x="-40" y="-40" width="1520" height="140" filterUnits="userSpaceOnUse" color-interpolation-filters="sRGB"><feFlood flood-opacity="0" result="BackgroundImageFix"/><feGaussianBlur in="BackgroundImage" stdDeviation="20"/><feComposite in2="SourceAlpha" operator="in" result="effect1_backgroundBlur_199_21342"/><feBlend in="SourceGraphic" in2="effect1_backgroundBlur_199_21342" result="shape"/></filter></defs></svg>