<svg width="125" height="124" viewBox="0 0 125 124" fill="none" xmlns="http://www.w3.org/2000/svg"><path d="M92.805 21.14a6.28 6.28 0 01-.083 1.248 5.95 5.95 0 01-2.58 3.786 6.284 6.284 0 01-2.039.874h-.208l-1.498.084H65.301a6.076 6.076 0 01-5.576-3.704 5.825 5.825 0 014.078-7.906c.374-.125.457-.25.457-.624a7.864 7.864 0 017.99-7.407 7.615 7.615 0 015.575 2.497c.296.306.561.64.791.998.208.25.291.292.583.167l.873-.375a5.742 5.742 0 016.741 2.289c.288.408.512.857.666 1.332.094.227.164.465.208.707a.582.582 0 00.458.416c.401.08.792.206 1.165.375a5.867 5.867 0 013.37 4.036c.085.396.127.801.125 1.207z" fill="#fff"/><path d="M100.836 73.32c-.083-.542-.208-1.04-.291-1.54a63.471 63.471 0 00-2.497-8.739l-.666-1.747-1.498-3.412c-1.081-2.164-2.163-4.161-3.245-5.95l-1.165-1.748a57.337 57.337 0 00-5.535-7.199 50.352 50.352 0 00-6.033-5.617l-1.79-1.29a32.456 32.456 0 00-17.892-5.992c-6.74-.125-13.149 1.83-19.14 5.909l-1.832 1.29a47.934 47.934 0 00-5.41 4.826 58.496 58.496 0 00-6.49 8.031c-.416.583-.833 1.165-1.166 1.706a61.862 61.862 0 00-3.162 5.535 63.49 63.49 0 00-1.748 3.828c-.25.582-.457 1.165-.665 1.789a56.755 56.755 0 00-2.539 8.613c-.124.583-.25 1.165-.332 1.79a58.378 58.378 0 00-.957 8.78v1.165c0 9.695 2.912 17.809 8.405 23.551 9.362 9.779 23.177 9.862 34.245 9.945h2.955c10.236 0 22.137-.666 30.542-9.029 5.909-5.826 8.946-14.398 8.863-24.717a61.1 61.1 0 00-.957-9.779zm-9.071 33.33c-8.738 8.696-21.263 8.613-32.29 8.53-5.41-.042-11.443-.083-17.268-1.249-5.826-1.165-11.402-3.536-15.812-8.155-10.944-11.402-8.78-30.334-3.953-42.9.041-.167.124-.292.166-.459a45.631 45.631 0 011.914-4.285c2.205-4.453 14.273-26.382 35.036-26.382h.624c19.932.416 31.209 20.68 34.204 26.88 5.951 12.36 10.154 35.328-2.621 48.02z" fill="#4239AB"/><path d="M94.386 58.63c-2.995-6.2-14.272-26.464-34.203-26.88h-.625c-20.764 0-32.83 21.93-35.036 26.382a45.631 45.631 0 00-1.914 4.285 1.5 1.5 0 01-.166.458c-4.827 12.567-6.991 31.5 3.953 42.901 4.41 4.619 9.986 6.949 15.812 8.155 5.825 1.207 11.859 1.207 17.268 1.249 11.027.083 23.552.166 32.29-8.53 12.775-12.692 8.572-35.66 2.621-48.02zM70.835 97.579a.93.93 0 01-1.79-.499 23.5 23.5 0 00.583-1.83 23.552 23.552 0 00-.749-14.564 21.722 21.722 0 00-3.62-6.325c-1.665-1.998-3.745-3.912-6.2-4.91-2.455-1-5.326-.916-7.157 1.04-1.83 1.956-1.248 3.745.041 5.201 1.29 1.457 3.288 2.538 4.952 3.787a11.526 11.526 0 013.953 5.16c1.623 4.119 1.249 9.528-2.372 12.441a.957.957 0 01-1.543-.303.915.915 0 01.212-1.028 6.16 6.16 0 001.165-1.166c2.663-3.328 1.83-8.821-.749-11.983-2.58-3.163-8.447-4.453-8.53-9.404-.083-2.747 1.914-4.952 4.41-5.784 2.497-.833 6.284-.042 8.822 1.664 4.452 3.038 7.573 7.781 9.03 12.941a25.174 25.174 0 01-.458 15.562z" fill="#5959FF"/><path d="M93.221 45.523c-.54 1.582-1.165 3.121-1.747 4.66a57.337 57.337 0 00-5.535-7.198 50.353 50.353 0 00-6.033-5.617 45.194 45.194 0 016.242-1.415 27.263 27.263 0 013.703-.167c.587.029 1.17.098 1.748.209.454.077.867.313 1.165.665 2.455 2.33 1.414 6.076.457 8.863z" fill="#8079CB"/><path d="M96.134 40.697c-.083 3.786-1.956 7.198-3.08 10.735a.832.832 0 01-.415.5c-.666.374-1.706-.125-1.415-1l.25-.748c.582-1.54 1.206-3.08 1.747-4.66.957-2.788 1.998-6.533-.457-8.864a1.956 1.956 0 00-1.165-.665 12.52 12.52 0 00-1.748-.209 27.254 27.254 0 00-3.703.167 45.193 45.193 0 00-6.242 1.415l-.874.25c-.957.29-1.456-.958-.915-1.54a.874.874 0 01.416-.25c2.87-.832 5.784-1.623 8.78-1.83a19.477 19.477 0 014.12.083c.421.025.84.095 1.247.208.258.098.497.238.708.416.38.31.741.644 1.082.998a7.282 7.282 0 011.664 4.994z" fill="#4239AB"/><path d="M39.252 37.285a47.944 47.944 0 00-5.41 4.826 58.502 58.502 0 00-6.49 8.031 47.146 47.146 0 01-1.665-6.325 26.712 26.712 0 01-.374-3.62 9.113 9.113 0 01.333-2.996c.087-.3.228-.582.416-.832l.499-.54a3.537 3.537 0 011.748-.625c1.42-.149 2.857-.05 4.244.291a45.358 45.358 0 016.7 1.79z" fill="#8079CB"/><path d="M41.749 37.16c-.125.416-.666.832-1.124.624l-1.373-.5a45.358 45.358 0 00-6.7-1.789 12.36 12.36 0 00-4.243-.291 3.537 3.537 0 00-1.748.624l-.5.541a2.58 2.58 0 00-.415.832 9.108 9.108 0 00-.333 2.996 26.63 26.63 0 00.374 3.62 47.135 47.135 0 001.665 6.325c.055.24.125.476.208.708.29.873-.75 1.373-1.373.998a.75.75 0 01-.417-.5 45.775 45.775 0 01-2.122-8.779c-.291-2.164-.5-4.785.583-6.783 1.082-1.997 2.33-2.247 3.953-2.455a15.684 15.684 0 015.035.375 46.107 46.107 0 017.864 2.288h.042a.958.958 0 01.624 1.166zm29.086 60.418a.93.93 0 01-1.79-.499c.209-.582.417-1.207.583-1.83a23.551 23.551 0 00-.749-14.564 21.722 21.722 0 00-3.62-6.325c-1.664-1.998-3.745-3.912-6.2-4.91-2.455-1-5.326-.916-7.157 1.04-1.83 1.956-1.248 3.745.042 5.201 1.29 1.457 3.287 2.538 4.951 3.787a11.526 11.526 0 013.953 5.16c1.623 4.119 1.249 9.528-2.372 12.441a.957.957 0 01-1.543-.303.915.915 0 01.212-1.028 6.16 6.16 0 001.165-1.166c2.663-3.328 1.83-8.821-.749-11.983-2.58-3.163-8.447-4.453-8.53-9.404-.083-2.747 1.914-4.952 4.41-5.784 2.497-.833 6.284-.042 8.822 1.664 4.452 3.038 7.573 7.781 9.03 12.941a25.174 25.174 0 01-.458 15.562z" fill="#4239AB"/><path d="M107.286 64.664a13.927 13.927 0 01-2.497 3.787 14.477 14.477 0 01-4.078 3.204l-.166.125a63.471 63.471 0 00-2.497-8.739l5.035-1.373c1.124-.29 3.204-1.165 4.203-.208.998.957.374 2.33 0 3.204z" fill="#645CC0"/><path d="M108.909 65.538a16.728 16.728 0 01-7.241 7.74.998.998 0 01-.832.041.915.915 0 01-.291-1.54l.166-.124a14.475 14.475 0 004.078-3.204 13.926 13.926 0 002.497-3.787c.374-.873.832-2.413 0-3.204-.832-.79-3.079-.083-4.203.208l-5.035 1.373-.666.167c-1.165.333-1.622-1.498-.499-1.79l.5-.124c2.246-.624 4.493-1.29 6.782-1.831 2.289-.54 3.87-.458 4.952 1.29 1.082 1.748.457 3.329-.208 4.785z" fill="#4239AB"/><path d="M20.61 63a56.763 56.763 0 00-2.538 8.613 15.022 15.022 0 01-6.2-6.366c-.499-.957-1.082-2.372-.582-3.454.5-1.082 2.663-.624 3.662-.333L20.61 63z" fill="#645CC0"/><path d="M22.608 62.417a1.5 1.5 0 01-.166.458.873.873 0 01-1 .333l-.83-.208-5.66-1.54c-.998-.291-2.995-.957-3.661.333-.666 1.29.083 2.497.582 3.454a15.02 15.02 0 006.2 6.366h.084c.873.458.374 1.665-.416 1.748a1.29 1.29 0 01-.541-.125 16.726 16.726 0 01-4.744-3.745 15.393 15.393 0 01-2.788-4.619c-.583-1.498-.707-3.453.5-4.702 1.206-1.248 3.495-.998 5.2-.54l5.91 1.58.665.209a.832.832 0 01.666.998zm29.627 6.367l-4.286-3.787a.624.624 0 00-.874 0 .624.624 0 000 .874l4.286 3.787a.624.624 0 00.874 0 .624.624 0 000-.874zm-2.289 2.164l-4.702-2.497a.666.666 0 00-.832.25.624.624 0 00.208.832l4.702 2.496a.666.666 0 00.874-.208.624.624 0 00-.25-.873z" fill="#4239AB"/><path d="M21.235 50.766v.375a1.747 1.747 0 01-.79 1.165c-.192.13-.402.229-.625.291h-6.99a1.83 1.83 0 01-1.707-1.165 1.79 1.79 0 011.249-2.413.166.166 0 00.166-.167 2.371 2.371 0 014.12-1.54l.25.334c.082.083.082.083.166.041l.291-.125a1.748 1.748 0 012.039.708c.094.125.165.266.208.416.042.041.042.125.083.208.042.083.042.083.125.125l.375.125a1.832 1.832 0 01.998 1.206c.04.135.053.276.042.416zm94.872 1.249a3.18 3.18 0 01-.041.624 3.04 3.04 0 01-1.29 1.914 2.5 2.5 0 01-1.041.416h-11.484a3.039 3.039 0 01-2.83-1.872 2.953 2.953 0 012.081-3.995c.166-.042.208-.125.208-.291a4 4 0 012.62-3.483 3.994 3.994 0 014.246.986l.374.5c.125.124.167.166.292.083l.457-.209a3.038 3.038 0 013.412 1.166c.136.208.247.432.333.665.048.12.076.246.083.375a.252.252 0 00.208.208h.042l.583.208a2.87 2.87 0 011.664 1.997c.054.232.082.47.083.708zM42.456 24.468v.25a1.29 1.29 0 01-.499.749l-.416.167h-4.41a1.207 1.207 0 01-1.083-.708 1.165 1.165 0 01.79-1.54c.084 0 .084-.041.084-.124a1.498 1.498 0 011.54-1.415 1.374 1.374 0 011.081.458l.167.208h.125l.166-.084a1.04 1.04 0 011.29.5.25.25 0 01.125.25.167.167 0 01.042.124c.041.042.041.084.083.084l.25.083a.957.957 0 01.624.79c.04.062.054.136.041.208z" fill="#fff"/><path d="M94.386 58.63c-2.995-6.2-14.272-26.464-34.203-26.88h-.625c-20.764 0-32.83 21.93-35.036 26.382a45.631 45.631 0 00-1.914 4.285 1.5 1.5 0 01-.166.458c-4.827 12.567-6.991 31.5 3.953 42.901 4.41 4.619 9.986 6.949 15.812 8.155 5.825 1.207 11.859 1.207 17.268 1.249 11.027.083 23.552.166 32.29-8.53 12.775-12.692 8.572-35.66 2.621-48.02zM70.835 97.579a.93.93 0 01-1.79-.499 23.5 23.5 0 00.583-1.83 23.552 23.552 0 00-.749-14.564 21.722 21.722 0 00-3.62-6.325c-1.665-1.998-3.745-3.912-6.2-4.91-2.455-1-5.326-.916-7.157 1.04-1.83 1.956-1.248 3.745.041 5.201 1.29 1.457 3.288 2.538 4.952 3.787a11.526 11.526 0 013.953 5.16c1.623 4.119 1.249 9.528-2.372 12.441a.957.957 0 01-1.543-.303.915.915 0 01.212-1.028 6.16 6.16 0 001.165-1.166c2.663-3.328 1.83-8.821-.749-11.983-2.58-3.163-8.447-4.453-8.53-9.404-.083-2.747 1.914-4.952 4.41-5.784 2.497-.833 6.284-.042 8.822 1.664 4.452 3.038 7.573 7.781 9.03 12.941a25.174 25.174 0 01-.458 15.562z" fill="#645CC0"/><path d="M60.515 31.792c.292 11.526 12.65 20.847 27.88 20.847.873 0 1.747-.042 2.58-.125-5.202-8.28-15.313-20.223-30.46-20.722z" fill="#8079CB"/><path d="M27.85 68.076c.625-.873-.082-1.997-1.164-2.621-1.082-.624-2.414-.999-3.537-1.581a3.996 3.996 0 01-.874-.583 106.554 106.554 0 00-1.498 4.494c.646.3 1.314.55 1.997.75.87.303 1.784.457 2.705.457.957 0 1.914-.333 2.372-.916zm3.33-7.032c.624-.832-.083-1.872-1.165-2.496-1.082-.625-2.414-.916-3.537-1.457a4.58 4.58 0 01-1.04-.707c-.417.707-.708 1.331-.916 1.747l-1.123 2.33c.864.426 1.77.76 2.704 1 .87.303 1.784.457 2.705.457.957 0 1.914-.291 2.372-.874zm52.637 39.322c-13.273 8.031-30.292 8.489-44.232 2.039a31.04 31.04 0 01-14.148-13.773c-3.162-6.158-4.41-12.442-5.076-19.266-3.08 11.943-3.162 26.84 6.034 36.41 4.41 4.619 9.986 6.949 15.812 8.155 5.825 1.207 11.859 1.207 17.268 1.249 11.027.083 23.552.166 32.29-8.53 6.325-6.284 8.489-15.064 8.322-23.843a43.437 43.437 0 01-16.27 17.559z" fill="#493FB5"/><path d="M52.276 76.066h2.164c-.291-.042 1.373-.458 1.165-.375 1.914-.832 3.08-2.164 4.078-3.745.375-.54.75-1.123 1.082-1.706a13.182 13.182 0 00-1.706-.874c-2.33-.915-5.326-.915-7.157 1.04-1.83 1.956-1.248 3.746.041 5.202l.333.458zm9.28 15.604a40.947 40.947 0 003.828-1.873 53.671 53.671 0 004.91-3.037 23.47 23.47 0 00-1.415-6.076 14.355 14.355 0 00-.582-1.414 20.557 20.557 0 01-7.033 6.2h-.125c.644 2.001.787 4.13.417 6.2z" fill="#8079CB"/><path d="M52.276 68.534a11.9 11.9 0 00-4.743-4.203.624.624 0 00-.624 1.082 10.985 10.985 0 014.286 3.745.666.666 0 00.873.25.623.623 0 00.208-.874zm-2.663 2.622l-3.453-1.79a.666.666 0 00-.833.208.666.666 0 00.209.874l3.453 1.79a.624.624 0 00.832-.25.58.58 0 00-.208-.832z" fill="#4239AB"/></svg>