<svg width="1022" height="1022" viewBox="0 0 1022 1022" fill="none" xmlns="http://www.w3.org/2000/svg"><path d="M655 550.5c-92.834 0-281.5-9.5-287.5-9.5-18 92.167-51.7 288.8-48.5 300 4 14 146 29 216.5 32.5 56.4 2.8 140.833-17.5 176-28l9.5-158-66-137z" fill="#5959FF"/><path d="M231.398 652.627a15.635 15.635 0 01-20.477-7.447 14.895 14.895 0 018.191-20.105 15.265 15.265 0 0120.477 7.074 16.01 16.01 0 01-8.191 20.478zm-28.668-26.435a15.64 15.64 0 01-20.85-7.074 16.01 16.01 0 018.191-20.477 15.635 15.635 0 0120.478 7.446 14.888 14.888 0 01.399 11.728 14.895 14.895 0 01-8.218 8.377z" fill="#A49FDA"/><path d="M809.606 390.516C784.66 338.764 690.464 169.36 524.039 166.009h-5.213c-173.127 0-274.024 183.18-292.64 220.412-50.635 100.525-87.867 289.662 15.637 397.634 29.785 31.274 65.9 49.89 104.249 61.06V709.591h-16.755a177.19 177.19 0 01-53.613-13.403c-7.447-3.351-.745-14.148 6.701-11.17a142.226 142.226 0 0059.571 11.915c11.542 0 36.487-.373 37.976-16.382 1.117-8.936-6.329-17.499-11.914-23.829-5.584-6.329-13.775-14.148-21.222-20.849a285.194 285.194 0 00-46.539-34.626c-6.702-4.468-.373-15.265 6.701-11.169a336.053 336.053 0 0149.146 36.487l8.563 8.563a79.673 79.673 0 0134.998-21.594l1.489-.745v-1.117a2.605 2.605 0 01.373-1.861h-.373v-36.86h1.49c13.403-24.2 116.907-24.573 121.747-24.573 4.84 0 118.024.373 122.865 28.296h.372v32.764h-.372c.16.613.285 1.234.372 1.862 0 .372-.372.744-.372 1.117l2.978 1.117a81.912 81.912 0 0133.136 20.477c4.468-4.468 9.308-8.563 14.148-12.659a299.004 299.004 0 0143.189-31.647c7.074-4.095 13.403 6.702 6.702 11.17a272.52 272.52 0 00-47.284 34.998l-20.478 20.477c-5.585 6.33-13.031 14.893-11.914 23.828 1.862 16.382 27.179 16.382 39.093 16.382a152.264 152.264 0 0058.826-11.914c7.447-2.978 13.776 7.819 6.33 11.17a173.517 173.517 0 01-61.433 13.775h-7.818v134.034a220.407 220.407 0 0085.26-52.124c106.855-105.738 71.485-297.853 21.595-400.985z" fill="#5959FF"/><path d="M376.601 703.262a58.068 58.068 0 01-17.871 5.212 72.502 72.502 0 01-12.659 1.117h-16.754a177.22 177.22 0 01-53.613-13.403c-7.447-3.351-.745-14.148 6.701-11.17a142.207 142.207 0 0059.571 11.914c11.542 0 36.487-.372 37.976-16.382 1.117-8.935-6.329-17.498-11.914-23.828-5.585-6.329-13.776-14.148-21.222-20.85a285.246 285.246 0 00-46.539-34.625c-6.702-4.468-.373-15.265 6.701-11.169a336.053 336.053 0 0149.146 36.487l8.563 8.563 8.564 8.563 1.861 2.234a73.718 73.718 0 0114.893 20.85 27.18 27.18 0 01-13.404 36.487z" fill="#221A7E"/><path d="M874.761 594.918c.744 87.122-24.946 159.351-74.836 208.869a237.17 237.17 0 01-97.175 57.337l-11.169 3.351c.451-2.458.7-4.948.745-7.446v-.745l2.233-10.053 8.191-2.606a220.418 220.418 0 0085.261-52.124c106.855-105.738 71.485-297.853 21.594-400.985-24.945-51.752-119.141-221.156-285.566-224.507h-5.213c-173.127 0-274.025 183.18-292.641 220.412-50.635 100.525-87.866 289.662 15.638 397.634 29.785 31.274 65.9 49.89 104.248 61.059l7.074 2.234v13.031c.094 1.634.343 3.254.745 4.84l-7.819-2.233c-42.444-11.914-83.026-32.02-116.535-67.017-48.401-50.635-72.974-122.865-70.74-208.87a507.11 507.11 0 0152.124-208.497c4.468-8.563 13.031-24.945 26.063-45.05 3.723-5.958 7.818-11.915 12.286-18.244a463.504 463.504 0 0196.43-103.504c5.957-4.84 12.286-9.308 18.616-13.776 43.188-28.668 94.568-49.145 154.511-49.145h5.585c58.453 1.117 108.344 21.594 149.671 49.89 6.329 4.468 12.659 8.936 18.616 13.776 39.838 31.274 70.74 69.623 93.451 103.131 4.468 6.33 8.564 12.659 12.287 18.616 11.914 20.105 20.85 37.232 26.434 48.774a509.322 509.322 0 0149.891 211.848z" fill="#4040B7"/><path fill-rule="evenodd" clip-rule="evenodd" d="M495.527 880.686c-66.762-1.193-127.917-8.967-166.543-22.706L336 842c35.874 12.76 93.735 19.507 159.848 20.689 65.913 1.178 138.108-4.163 200.333-17.003L692 864.5c-63.774 13.16-129.51 17.383-196.473 16.186z" fill="#4040B7"/><path d="M799.553 279.938c-4.095 12.287-8.936 23.828-13.403 35.743-22.712-33.509-53.614-71.857-93.452-103.132a313.94 313.94 0 0148.401-11.17 180.325 180.325 0 0131.647-1.489l13.404 1.489a14.154 14.154 0 0110.425 5.213c19.732 19.36 10.797 50.263 2.978 73.346z" fill="#6678FF"/><path d="M827.477 238.983c-.372 32.019-16.382 61.06-26.062 90.845a10.43 10.43 0 01-2.979 4.468c-6.702 5.213-18.616 0-15.265-9.68a83.87 83.87 0 012.979-8.936c4.467-11.914 9.308-23.456 13.403-35.742 7.819-23.084 16.754-53.986-2.978-73.346a14.154 14.154 0 00-10.425-5.213l-13.404-1.489a180.229 180.229 0 00-31.647 1.489 313.94 313.94 0 00-48.401 11.17l-9.68 2.606c-10.425 2.978-15.637-10.425-8.936-16.382a11.55 11.55 0 013.724-1.862c24.2-7.074 48.773-13.775 74.091-15.637a140.753 140.753 0 0135.37 1.117 30.152 30.152 0 0116.009 5.212 58.526 58.526 0 018.936 7.819 61.806 61.806 0 0115.265 43.561z" fill="#4040B7"/><path d="M345.699 211.804a463.51 463.51 0 00-96.43 103.132 365.925 365.925 0 01-12.659-49.146 157.531 157.531 0 01-2.979-29.413 69.636 69.636 0 012.234-24.945c2.979-10.797 10.797-15.265 21.595-16.755a112.819 112.819 0 0134.997 2.607 342.089 342.089 0 0153.242 14.52z" fill="#6678FF"/><path d="M371.388 209.942a10.052 10.052 0 01-11.914 6.702l-13.775-4.84a342.089 342.089 0 00-53.242-14.52 112.819 112.819 0 00-34.997-2.607c-10.798 1.49-18.616 5.957-21.595 16.755a69.636 69.636 0 00-2.234 24.945 157.531 157.531 0 002.979 29.413 365.925 365.925 0 0012.659 49.146c1.117 2.606 1.861 5.584 2.978 8.563 2.979 9.68-8.935 14.893-15.265 9.68a10.06 10.06 0 01-3.351-4.468 421.476 421.476 0 01-17.871-74.091c-2.234-18.615-4.095-40.582 5.213-57.709 9.308-17.126 20.477-19.732 34.997-21.594 14.521-1.862 28.669.745 42.817 3.351a399.803 399.803 0 0165.527 18.988h.373a10.05 10.05 0 016.701 12.286z" fill="#4040B7"/><path d="M772.002 695.815a173.496 173.496 0 01-61.433 13.776h-7.818l-12.659-.745a51.007 51.007 0 01-23.456-8.563c-13.776-9.68-14.148-26.434-5.585-40.21a101.695 101.695 0 0113.776-17.499 93.142 93.142 0 018.563-8.563c4.468-4.468 9.308-8.563 14.148-12.659a299.004 299.004 0 0143.189-31.647c7.074-4.095 13.404 6.702 6.702 11.17a272.515 272.515 0 00-47.284 34.997l-20.478 20.478c-5.584 6.329-13.031 14.893-11.914 23.828 1.862 16.382 27.179 16.382 39.093 16.382a152.264 152.264 0 0058.826-11.914c7.447-2.979 13.776 7.819 6.33 11.169z" fill="#221A7E"/><path d="M841.997 479.872a578.127 578.127 0 00-12.287-40.582l-106.482 33.136c-6.702 1.861-14.148 4.84-15.637 11.542-1.49 6.701 11.169 16.381 21.966 17.871 22.339 2.978 45.051 4.468 67.39-.373a97.542 97.542 0 0045.05-21.594zm-26.435-76.697c-1.861-4.468-4.095-8.563-5.957-12.659a350.18 350.18 0 00-16.754-32.019l-75.208 23.456c-6.329 1.861-13.776 4.84-15.265 11.542-1.489 6.701 11.169 16.382 21.594 17.871 22.339 2.978 45.423 4.468 67.39-.373a96.789 96.789 0 0024.2-7.818z" fill="#4040B7"/><path d="M516.965 167.871c-173.127 0-274.025 183.18-292.641 220.411a453.863 453.863 0 00-30.902 80.421 264.339 264.339 0 00100.525 19.36c141.853 0 256.899-110.578 256.899-247.59a230.456 230.456 0 00-11.17-71.858l-17.499-.744h-5.212z" fill="#6678FF"/><path d="M552.707 522.316a40.947 40.947 0 01-20.85-9.308 41.7 41.7 0 01-15.265-36.114 6.33 6.33 0 016.702-5.585 5.97 5.97 0 012.348.624 5.97 5.97 0 013.046 3.655c.229.786.294 1.611.19 2.423a30.897 30.897 0 0010.797 25.689 30.161 30.161 0 0021.595 6.33 30.904 30.904 0 0020.105-10.797 30.156 30.156 0 006.329-21.595 29.409 29.409 0 00-10.797-20.105 5.952 5.952 0 01-1.924-6.491 5.96 5.96 0 011.179-2.072 6.331 6.331 0 018.564-1.117 40.59 40.59 0 0115.265 28.296 40.217 40.217 0 01-8.936 30.902 42.068 42.068 0 01-28.296 15.265h-10.052z" fill="#221A7E"/><path d="M480.85 523.433a45.787 45.787 0 01-20.105-8.563 43.187 43.187 0 01-16.01-28.296 41.337 41.337 0 012.649-20.079 41.334 41.334 0 0111.871-16.408 5.945 5.945 0 014.361-1.632 5.966 5.966 0 014.203 2.004 6.329 6.329 0 01-.373 8.936 29.412 29.412 0 0022.712 51.752 29.783 29.783 0 0019.732-11.17 27.915 27.915 0 005.957-21.594 6.7 6.7 0 015.585-7.074 6.33 6.33 0 016.702 5.584 41.705 41.705 0 01-20.961 41.486 41.705 41.705 0 01-15.526 5.054H480.85zm137.757-125.098a53.614 53.614 0 01-29.785-14.521 52.125 52.125 0 01-16.382-37.603l-.745-35.371a7.81 7.81 0 011.378-6.617 7.816 7.816 0 019.42-2.385 7.824 7.824 0 014.361 5.166 7.822 7.822 0 01.106 3.464l.745 35.37a36.864 36.864 0 0011.541 26.807 37.598 37.598 0 0027.18 10.797 38.35 38.35 0 0037.603-38.721v-35.37a7.447 7.447 0 017.447-7.818 7.817 7.817 0 017.818 7.446v35.37a51.749 51.749 0 01-14.892 37.976 52.111 52.111 0 01-17.123 12.045 52.113 52.113 0 01-20.481 4.337l-8.191-.372zm-210.731 2.606a53.617 53.617 0 01-46.168-51.752l-.744-35.37a8.193 8.193 0 017.819-7.819 7.44 7.44 0 015.401 2.311 7.454 7.454 0 012.045 5.508l.744 34.998a37.98 37.98 0 0011.915 26.807 37.603 37.603 0 0027.551 10.424 38.346 38.346 0 0037.232-38.348l-.745-35.37a8.188 8.188 0 017.446-7.819 7.82 7.82 0 017.819 7.819l.745 35.37a53.985 53.985 0 01-52.125 53.613l-8.935-.372z" fill="#221A7E"/><path d="M526.272 419.557a3.723 3.723 0 01-5.212 1.489l-1.117-1.117a23.46 23.46 0 00-25.318-9.68 24.572 24.572 0 00-16.382 28.668c2.607 12.287 32.392 40.583 44.306 38.349 11.914-2.234 41.327-28.668 44.306-40.583 2.978-11.914-4.096-25.317-15.638-27.923a24.197 24.197 0 00-24.945 10.797z" fill="#221A7E"/></svg>